<?xml version="1.0" encoding="UTF-8"?>
<svg version="1.1" xmlns="http://www.w3.org/2000/svg" width="512" height="512">
<path d="M0 0 C6.3010787 5.44134603 10.74382703 12.26453654 11.5078125 20.65625 C11.63515753 26.13957726 11.09764812 30.78957365 9.26171875 35.953125 C9.98875 35.90671875 10.71578125 35.8603125 11.46484375 35.8125 C23.06893649 35.39594282 32.56087229 38.15822351 41.26171875 45.953125 C41.86628906 46.45457031 42.47085937 46.95601562 43.09375 47.47265625 C51.71559714 55.19287232 55.17751528 65.48653044 55.82421875 76.703125 C55.86740234 77.40050781 55.91058594 78.09789063 55.95507812 78.81640625 C56.06061471 80.52844422 56.16161785 82.24076061 56.26171875 83.953125 C56.89078125 84.16066406 57.51984375 84.36820312 58.16796875 84.58203125 C68.88176848 88.43835374 75.4010286 94.64119355 80.26171875 104.953125 C85.11307763 117.27374586 84.44724257 129.848218 79.26171875 141.953125 C75.29904505 148.91920846 69.09251035 155.58015785 61.26171875 157.953125 C61.82000554 162.48553226 63.06750845 166.5000918 64.58496094 170.77612305 C80.83263166 216.61287377 81.03969936 266.05698237 69.26171875 312.953125 C68.97989746 314.08621094 68.97989746 314.08621094 68.69238281 315.2421875 C61.25437086 344.41086182 46.87545458 371.72214089 29.26171875 395.953125 C28.30213939 397.29337959 27.34372471 398.63446917 26.38671875 399.9765625 C25.33484375 401.44996094 25.33484375 401.44996094 24.26171875 402.953125 C24.73593262 403.41162842 25.21014648 403.87013184 25.69873047 404.3425293 C27.85265174 406.43390715 29.99470409 408.53705675 32.13671875 410.640625 C32.88308594 411.36185547 33.62945312 412.08308594 34.3984375 412.82617188 C35.11386719 413.53193359 35.82929688 414.23769531 36.56640625 414.96484375 C37.22624512 415.60897217 37.88608398 416.25310059 38.56591797 416.91674805 C41.8916955 420.91045815 42.48804837 424.66254991 42.625 429.79296875 C41.73329111 435.09528073 38.66694408 438.92584751 34.953125 442.625 C34.12361328 443.45386719 33.29410156 444.28273438 32.43945312 445.13671875 C31.14491211 446.40708984 31.14491211 446.40708984 29.82421875 447.703125 C28.53547852 448.99669922 28.53547852 448.99669922 27.22070312 450.31640625 C18.23907188 459.22139053 18.23907188 459.22139053 11.38671875 459.328125 C10.56429688 459.35648437 9.741875 459.38484375 8.89453125 459.4140625 C2.14773081 458.23287192 -2.53196022 452.40878251 -7.11328125 447.703125 C-7.75394531 447.0534375 -8.39460938 446.40375 -9.0546875 445.734375 C-10.62057489 444.14511615 -12.18156634 442.55136083 -13.73828125 440.953125 C-18.54668226 444.10257733 -23.25963901 447.32152083 -27.86328125 450.765625 C-56.36110009 471.57418535 -90.3053 484.28044349 -124.73828125 490.953125 C-126.01106934 491.20304199 -126.01106934 491.20304199 -127.30957031 491.45800781 C-153.91414771 496.41748712 -184.20797094 496.20912987 -210.73828125 490.953125 C-211.75954102 490.75444824 -212.78080078 490.55577148 -213.83300781 490.35107422 C-271.85469866 478.73803715 -327.46410784 447.11380948 -362.55566406 398.58447266 C-363.75958642 396.92373583 -364.99245275 395.28777734 -366.23046875 393.65234375 C-404.28154853 342.71776924 -419.42783564 276.70759277 -410.703125 214.07421875 C-401.05847892 150.92119567 -367.70238918 91.5876189 -315.94165039 53.37988281 C-313.884021 51.88934727 -311.81550866 50.41621132 -309.73828125 48.953125 C-309.08939941 48.49583008 -308.44051758 48.03853516 -307.77197266 47.56738281 C-289.00686799 34.52523601 -268.3972351 24.19938089 -246.73828125 16.953125 C-245.48821289 16.53426025 -245.48821289 16.53426025 -244.21289062 16.10693359 C-186.34431732 -2.93232009 -118.71462679 -0.40895524 -63.73828125 26.953125 C-63.80789063 26.37046875 -63.8775 25.7878125 -63.94921875 25.1875 C-64.52353301 16.49074114 -61.52063093 9.46887146 -55.9453125 2.8125 C-40.85915936 -11.49601638 -16.31587137 -12.1920797 0 0 Z M-18.73828125 54.953125 C-16.06580491 57.29599918 -16.06580491 57.29599918 -12.73828125 57.953125 C-12.40828125 56.303125 -12.07828125 54.653125 -11.73828125 52.953125 C-14.84379791 52.953125 -16.09089209 53.4924965 -18.73828125 54.953125 Z " fill="#D27E69" transform="translate(420.73828125,13.046875)"/>
<path d="M0 0 C6.3010787 5.44134603 10.74382703 12.26453654 11.5078125 20.65625 C11.63515753 26.13957726 11.09764812 30.78957365 9.26171875 35.953125 C9.98875 35.90671875 10.71578125 35.8603125 11.46484375 35.8125 C23.06893649 35.39594282 32.56087229 38.15822351 41.26171875 45.953125 C41.86628906 46.45457031 42.47085937 46.95601562 43.09375 47.47265625 C51.71559714 55.19287232 55.17751528 65.48653044 55.82421875 76.703125 C55.86740234 77.40050781 55.91058594 78.09789063 55.95507812 78.81640625 C56.06061471 80.52844422 56.16161785 82.24076061 56.26171875 83.953125 C56.89078125 84.16066406 57.51984375 84.36820312 58.16796875 84.58203125 C68.88176848 88.43835374 75.4010286 94.64119355 80.26171875 104.953125 C85.11307763 117.27374586 84.44724257 129.848218 79.26171875 141.953125 C75.29904505 148.91920846 69.09251035 155.58015785 61.26171875 157.953125 C61.82000554 162.48553226 63.06750845 166.5000918 64.58496094 170.77612305 C80.83263166 216.61287377 81.03969936 266.05698237 69.26171875 312.953125 C68.97989746 314.08621094 68.97989746 314.08621094 68.69238281 315.2421875 C60.64183746 346.8129536 44.81093773 378.4814337 23.26171875 402.953125 C18.35697974 398.83982629 13.73976595 394.56770039 9.234375 390.0234375 C8.28370399 389.07064407 8.28370399 389.07064407 7.31382751 388.09860229 C5.31490469 386.09413784 3.31951091 384.08620286 1.32421875 382.078125 C-0.04078258 380.70810111 -1.40601485 379.33830726 -2.77148438 377.96875 C-6.09642336 374.63285957 -9.41820478 371.29385464 -12.73828125 367.953125 C-11.3630073 364.04208034 -9.54586432 361.15358847 -7.01953125 357.87890625 C21.54238593 319.34738486 30.36567902 267.09595837 24.578125 220.18359375 C23.76738917 215.02659919 22.58760737 209.99886779 21.26171875 204.953125 C20.95621094 203.68758789 20.95621094 203.68758789 20.64453125 202.39648438 C9.00429939 154.29071133 -22.15265089 111.17077719 -64.20703125 85.09375 C-75.48530679 77.99776385 -75.48530679 77.99776385 -87.73828125 72.953125 C-86.99578125 73.9740625 -86.99578125 73.9740625 -86.23828125 75.015625 C-84.3596921 78.69452875 -84.23589279 80.8622475 -84.73828125 84.953125 C-86.97419088 89.25932132 -89.14301353 92.21713497 -93.73828125 93.953125 C-100.6844629 94.06889469 -106.58743475 91.68919139 -113.01342773 89.32739258 C-120.45213316 86.61924015 -127.98238202 84.55267991 -135.73828125 82.953125 C-136.56602051 82.77362305 -137.39375977 82.59412109 -138.24658203 82.40917969 C-146.70042689 80.76768472 -154.99597133 80.6471778 -163.57275391 80.69238281 C-165.97063851 80.70304654 -168.36776386 80.69246037 -170.765625 80.6796875 C-184.06977759 80.66644163 -197.23044539 81.56386518 -210.11328125 85.140625 C-210.90089844 85.35565674 -211.68851563 85.57068848 -212.5 85.79223633 C-239.09738978 93.30854414 -264.83391688 106.92608745 -284.4296875 126.6640625 C-286.78970023 129.00410897 -287.52526231 129.66962333 -290.73828125 129.953125 C-291.85203125 130.076875 -292.96578125 130.200625 -294.11328125 130.328125 C-299.00385884 129.82220318 -300.33055744 128.4400982 -303.73828125 124.953125 C-305.72975288 121.81900571 -305.89928368 119.84794151 -305.36328125 116.203125 C-305.25242187 115.40390625 -305.1415625 114.6046875 -305.02734375 113.78125 C-304.93195313 113.17796875 -304.8365625 112.5746875 -304.73828125 111.953125 C-333.39961473 138.70370291 -351.04997548 175.9441037 -358.73828125 213.953125 C-358.93405762 214.9121875 -359.12983398 215.87125 -359.33154297 216.859375 C-360.96073735 225.9332229 -361.04378947 234.90247636 -360.99902344 244.08984375 C-360.98835519 246.68513663 -360.99894868 249.27972873 -361.01171875 251.875 C-361.04587329 291.0174943 -349.21775577 330.3373867 -325.73828125 361.953125 C-325.33931641 362.50323242 -324.94035156 363.05333984 -324.52929688 363.62011719 C-294.87356252 404.42659868 -249.72532522 432.21375481 -200.00683594 440.79394531 C-172.73758302 445.08640038 -145.43429434 443.80256264 -118.73828125 436.953125 C-118.04557129 436.77942383 -117.35286133 436.60572266 -116.63916016 436.42675781 C-92.45261396 430.25025487 -70.63287411 418.84298434 -50.73828125 403.953125 C-42.98328151 410.29812479 -36.09725013 417.52374693 -29.078125 424.65625 C-27.24865749 426.45212128 -25.44369472 428.07113674 -23.42578125 429.640625 C-22.53890625 430.40375 -21.65203125 431.166875 -20.73828125 431.953125 C-20.73828125 432.613125 -20.73828125 433.273125 -20.73828125 433.953125 C-20.14015625 434.200625 -19.54203125 434.448125 -18.92578125 434.703125 C-16.45180604 436.11682512 -15.3045787 437.60367883 -13.73828125 439.953125 C-43.92509785 467.33186564 -85.28340584 483.30726316 -124.73828125 490.953125 C-126.01106934 491.20304199 -126.01106934 491.20304199 -127.30957031 491.45800781 C-153.91414771 496.41748712 -184.20797094 496.20912987 -210.73828125 490.953125 C-211.75954102 490.75444824 -212.78080078 490.55577148 -213.83300781 490.35107422 C-271.85469866 478.73803715 -327.46410784 447.11380948 -362.55566406 398.58447266 C-363.75958642 396.92373583 -364.99245275 395.28777734 -366.23046875 393.65234375 C-404.28154853 342.71776924 -419.42783564 276.70759277 -410.703125 214.07421875 C-401.05847892 150.92119567 -367.70238918 91.5876189 -315.94165039 53.37988281 C-313.884021 51.88934727 -311.81550866 50.41621132 -309.73828125 48.953125 C-309.08939941 48.49583008 -308.44051758 48.03853516 -307.77197266 47.56738281 C-289.00686799 34.52523601 -268.3972351 24.19938089 -246.73828125 16.953125 C-245.48821289 16.53426025 -245.48821289 16.53426025 -244.21289062 16.10693359 C-186.34431732 -2.93232009 -118.71462679 -0.40895524 -63.73828125 26.953125 C-63.80789063 26.37046875 -63.8775 25.7878125 -63.94921875 25.1875 C-64.52353301 16.49074114 -61.52063093 9.46887146 -55.9453125 2.8125 C-40.85915936 -11.49601638 -16.31587137 -12.1920797 0 0 Z M-18.73828125 54.953125 C-16.06580491 57.29599918 -16.06580491 57.29599918 -12.73828125 57.953125 C-12.40828125 56.303125 -12.07828125 54.653125 -11.73828125 52.953125 C-14.84379791 52.953125 -16.09089209 53.4924965 -18.73828125 54.953125 Z " fill="#C2CDF1" transform="translate(420.73828125,13.046875)"/>
<path d="M0 0 C6.37891143 1.4533127 11.55494549 4.28883095 17.1875 7.5625 C18.58742188 8.37158813 18.58742188 8.37158813 20.015625 9.19702148 C27.10096281 13.35128118 33.65069396 17.7738237 40 23 C41.01707031 23.81597656 42.03414063 24.63195312 43.08203125 25.47265625 C79.75784139 55.32687735 103.63078293 95.68098229 113 142 C113.19577637 142.9590625 113.39155273 143.918125 113.59326172 144.90625 C115.2224561 153.9800979 115.30550822 162.94935136 115.26074219 172.13671875 C115.25007394 174.73201163 115.26066743 177.32660373 115.2734375 179.921875 C115.28777089 194.82258545 114.13063087 209.27575302 110.375 223.75 C109.98368896 225.26968384 109.98368896 225.26968384 109.58447266 226.82006836 C103.13079993 251.02039701 92.48688054 274.2302432 77 294 C78.32483081 296.93529349 79.76144662 299.01037418 82.03759766 301.28051758 C82.65228912 301.89828568 83.26698059 302.51605377 83.90029907 303.15254211 C84.564841 303.80989853 85.22938293 304.46725494 85.9140625 305.14453125 C86.60253265 305.83254318 87.29100281 306.52055511 88.00033569 307.22941589 C89.45895983 308.68502068 90.92001191 310.13819597 92.38330078 311.58911133 C94.60108772 313.78878304 96.81090877 315.99620887 99.01953125 318.20507812 C100.44224022 319.62286572 101.86540331 321.04019781 103.2890625 322.45703125 C103.94145905 323.10831497 104.59385559 323.75959869 105.26602173 324.43061829 C109.13564554 328.26127831 113.1113246 331.91812468 117.23803711 335.47071838 C119.69969025 337.60729056 122.04856199 339.84259552 124.375 342.125 C125.20773437 342.93195313 126.04046875 343.73890625 126.8984375 344.5703125 C130.52681995 348.7652082 131.21651296 352.34167769 131.36328125 357.83984375 C130.47157236 363.14215573 127.40522533 366.97272251 123.69140625 370.671875 C122.86189453 371.50074219 122.03238281 372.32960938 121.17773438 373.18359375 C119.88319336 374.45396484 119.88319336 374.45396484 118.5625 375.75 C117.27375977 377.04357422 117.27375977 377.04357422 115.95898438 378.36328125 C106.97735313 387.26826553 106.97735313 387.26826553 100.125 387.375 C99.30257813 387.40335937 98.48015625 387.43171875 97.6328125 387.4609375 C91.04390853 386.30739051 86.43367359 380.71372754 81.9375 376.125 C81.33873047 375.52558594 80.73996094 374.92617188 80.12304688 374.30859375 C77.39869704 371.55738833 74.77233041 368.78620348 72.32421875 365.78515625 C70.29361192 363.35184083 68.29204995 361.34566554 65.875 359.3125 C60.75842793 354.98232714 60.75842793 354.98232714 59 353 C59 352.34 59 351.68 59 351 C58.42024414 350.74621582 57.84048828 350.49243164 57.24316406 350.23095703 C54.74927777 348.86241385 53.10256164 347.33002231 51.109375 345.3046875 C50.40039062 344.58925781 49.69140625 343.87382812 48.9609375 343.13671875 C48.23132813 342.39035156 47.50171875 341.64398438 46.75 340.875 C46.00492187 340.12089844 45.25984375 339.36679687 44.4921875 338.58984375 C42.6568658 336.73099228 40.8263809 334.86762995 39 333 C38.33355469 333.42410156 37.66710937 333.84820312 36.98046875 334.28515625 C35.02732738 335.52806439 33.07278381 336.76877056 31.1171875 338.0078125 C29.19513917 339.23618926 27.28163059 340.47819814 25.3828125 341.7421875 C17.5891218 346.8827069 9.41945922 351.00418156 1 355 C-0.63001953 355.78890625 -0.63001953 355.78890625 -2.29296875 356.59375 C-47.64187086 377.36255292 -101.42172522 377.03011375 -147.77294922 359.97998047 C-181.60871137 346.97835983 -211.87304442 324.77312957 -233.66503906 295.76611328 C-234.9100952 294.11894136 -236.18446318 292.49403967 -237.4609375 290.87109375 C-267.83128457 250.81958426 -278.40336216 197.55804467 -272.31640625 148.2265625 C-271.50540744 143.07102293 -270.32553585 138.04440033 -269 133 C-268.69449219 131.73446289 -268.69449219 131.73446289 -268.3828125 130.44335938 C-261.32947309 101.29391041 -247.1538118 74.20301389 -227.75 51.375 C-227.27916992 50.81941406 -226.80833984 50.26382813 -226.32324219 49.69140625 C-222.86507973 45.7295811 -219.06556094 42.32921945 -215 39 C-215.11859375 39.65226562 -215.2371875 40.30453125 -215.359375 40.9765625 C-216.0461729 45.63305228 -216.40525319 48.18949362 -214.25 52.5 C-211.3973698 55.66958911 -209.9305337 56.93107158 -205.625 57.25 C-200.31475667 56.88377632 -197.64883336 55.80086809 -194 52 C-167.35941955 24.38963396 -125.39607758 8.47700085 -87.60546875 7.76171875 C-61.14066496 7.39067876 -37.82855666 10.08080481 -13.09375 20.1875 C-10.17657992 21.31953615 -8.10734642 21.3804914 -5 21 C-1.96477105 19.36564595 0.28352297 17.944447 2.375 15.1875 C3.70454351 10.53409773 3.42762984 6.97998506 1.5 2.5625 C1.005 1.716875 0.51 0.87125 0 0 Z M-112 26 C-113.31689819 26.29028076 -113.31689819 26.29028076 -114.66040039 26.58642578 C-153.61193189 35.27137135 -187.75095229 60.38412172 -209.49316406 93.60644531 C-218.2798223 107.56373587 -224.59051698 122.13263549 -229 138 C-229.22300781 138.75941895 -229.44601563 139.51883789 -229.67578125 140.30126953 C-240.14951485 177.04768916 -232.10071507 219.77053446 -214.29882812 252.76098633 C-194.75084329 287.32482466 -161.61471295 314.58903241 -123.39257812 325.76220703 C-112.13502745 328.86682204 -101.23550646 331.10198295 -89.53125 331.2734375 C-88.74191071 331.28614685 -87.95257141 331.2988562 -87.13931274 331.31195068 C-49.21271261 331.80366495 -15.49300255 323.69175678 15 300 C16.35544922 298.95199219 16.35544922 298.95199219 17.73828125 297.8828125 C35.3387285 283.89207508 48.81758908 266.9859166 59 247 C59.55171875 245.93652344 60.1034375 244.87304688 60.671875 243.77734375 C65.20348545 234.53893172 68.23872494 224.88401968 71 215 C71.21462891 214.27087402 71.42925781 213.54174805 71.65039062 212.79052734 C78.19742209 189.87072116 77.78796912 160.79168533 71 138 C70.76925781 137.17258301 70.53851563 136.34516602 70.30078125 135.49267578 C64.78793066 115.97528876 55.67698807 97.85209755 43 82 C42.53480957 81.41669922 42.06961914 80.83339844 41.59033203 80.23242188 C16.16053245 48.72767853 -17.50022763 31.01377018 -57 24 C-57.94270752 23.81969238 -58.88541504 23.63938477 -59.85668945 23.45361328 C-65.5875917 22.62658288 -71.3750725 22.77465762 -77.1550293 22.75976562 C-79.39996865 22.75016058 -81.64395072 22.71914016 -83.88867188 22.6875 C-93.66194473 22.6156045 -102.46063988 23.70841005 -112 26 Z " fill="#4E5079" transform="translate(332,85)"/>
<path d="M0 0 C1.87558594 0.46599609 1.87558594 0.46599609 3.7890625 0.94140625 C34.01246338 9.30346381 62.13722442 29.11412017 81 54 C81.99580078 55.27230469 81.99580078 55.27230469 83.01171875 56.5703125 C103.13828432 83.06304125 113.46497148 114.89257648 113.375 148 C113.3737915 148.82180756 113.37258301 149.64361511 113.37133789 150.49032593 C113.32107101 163.08723672 112.638372 174.86881772 109 187 C108.73687012 187.92458008 108.47374023 188.84916016 108.20263672 189.80175781 C96.35915855 230.80820909 70.04197842 264.81774046 32.57739258 285.66723633 C9.10283142 298.14664803 -14.54002973 303.42461619 -40.9375 303.5 C-41.75726318 303.50476349 -42.57702637 303.50952698 -43.42163086 303.51443481 C-85.43273858 303.60654597 -122.26525266 285.9975222 -152 257 C-181.21640476 227.87186232 -195.19395046 188.23740041 -195.4375 147.5625 C-195.4310809 134.66315526 -194.65051047 122.43125424 -191 110 C-190.76925781 109.16968262 -190.53851563 108.33936523 -190.30078125 107.48388672 C-184.7880093 87.9740701 -175.67817855 69.84304834 -163 54 C-162.52949219 53.41138184 -162.05898437 52.82276367 -161.57421875 52.21630859 C-122.58519129 4.03296892 -59.718605 -15.7713469 0 0 Z M-134.25146484 69.00146484 C-157.55750454 95.63972803 -164.82480858 128.42350476 -163 163 C-162.56144603 168.47368111 -161.49789726 173.7221741 -160 179 C-159.77957031 179.79535156 -159.55914062 180.59070313 -159.33203125 181.41015625 C-154.22345514 199.33071688 -146.53074532 215.08439512 -134 229 C-133.32839844 229.81339844 -132.65679687 230.62679687 -131.96484375 231.46484375 C-121.47981822 243.87049078 -108.36912705 252.69379722 -94 260 C-93.02289063 260.50273437 -92.04578125 261.00546875 -91.0390625 261.5234375 C-75.76785458 268.91273165 -59.67152469 271.3842844 -42.875 271.3125 C-42.18991364 271.31034485 -41.50482727 271.3081897 -40.79898071 271.30596924 C-11.97621973 271.16053772 14.71215696 262.67359822 37 244 C37.52013672 243.56880859 38.04027344 243.13761719 38.57617188 242.69335938 C59.61560719 225.03841905 72.39285552 201.45743009 79 175 C79.18095215 174.29053223 79.3619043 173.58106445 79.54833984 172.85009766 C81.24438056 165.48551198 81.29711907 158.28119764 81.25 150.75 C81.25773438 149.52925781 81.26546875 148.30851562 81.2734375 147.05078125 C81.2341861 128.50449411 77.36432555 111.56088525 69 95 C68.49855469 93.97519531 67.99710938 92.95039063 67.48046875 91.89453125 C57.74478167 72.81076055 42.39386496 56.04053292 24 45 C23.07743408 44.44022461 23.07743408 44.44022461 22.13623047 43.86914062 C-30.05304203 12.70435375 -93.94941682 25.26488809 -134.25146484 69.00146484 Z " fill="#AE5A5A" transform="translate(294,113)"/>
<path d="M0 0 C2.66523362 0.01610855 5.32895175 0.00002203 7.99414062 -0.01904297 C24.27966868 -0.04085223 39.8284319 2.13153376 55.47851562 6.70361328 C56.53385498 7.00847656 57.58919434 7.31333984 58.67651367 7.62744141 C80.82836975 14.17784041 80.82836975 14.17784041 84.54101562 19.82861328 C86.2430262 25.21831343 86.62500578 28.54416929 83.97851562 33.64111328 C81.5510733 36.52780145 80.19082863 38.05951726 76.66601562 39.39111328 C69.71983398 39.50688298 63.81686212 37.12717967 57.39086914 34.76538086 C49.95216372 32.05722843 42.42191485 29.99066819 34.66601562 28.39111328 C33.83827637 28.21161133 33.01053711 28.03210938 32.15771484 27.84716797 C23.70386998 26.205673 15.40832554 26.08516608 6.83154297 26.13037109 C4.43365836 26.14103482 2.03653302 26.13044865 -0.36132812 26.11767578 C-13.66548071 26.10442991 -26.82614852 27.00185346 -39.70898438 30.57861328 C-40.49660156 30.79364502 -41.28421875 31.00867676 -42.09570312 31.23022461 C-68.6930929 38.74653243 -94.42962 52.36407573 -114.02539062 72.10205078 C-116.38540336 74.44209725 -117.12096544 75.10761161 -120.33398438 75.39111328 C-121.44773437 75.51486328 -122.56148438 75.63861328 -123.70898438 75.76611328 C-128.59956196 75.26019146 -129.92626057 73.87808648 -133.33398438 70.39111328 C-135.32545601 67.25699399 -135.4949868 65.28592979 -134.95898438 61.64111328 C-134.848125 60.84189453 -134.73726563 60.04267578 -134.62304688 59.21923828 C-134.52765625 58.61595703 -134.43226563 58.01267578 -134.33398438 57.39111328 C-162.99531785 84.1416912 -180.64567861 121.38209198 -188.33398438 159.39111328 C-188.52976074 160.35017578 -188.72553711 161.30923828 -188.92724609 162.29736328 C-190.55644048 171.37121118 -190.6394926 180.34046464 -190.59472656 189.52783203 C-190.58405832 192.12312491 -190.5946518 194.71771701 -190.60742188 197.31298828 C-190.64157641 236.45548258 -178.81345889 275.77537498 -155.33398438 307.39111328 C-154.93501953 307.9412207 -154.53605469 308.49132812 -154.125 309.05810547 C-124.46926564 349.86458696 -79.32102835 377.65174309 -29.60253906 386.23193359 C-2.33328615 390.52438866 24.97000254 389.24055092 51.66601562 382.39111328 C52.35872559 382.21741211 53.05143555 382.04371094 53.76513672 381.86474609 C77.95168291 375.68824315 99.77142276 364.28097263 119.66601562 349.39111328 C127.42101537 355.73611307 134.30704675 362.96173521 141.32617188 370.09423828 C143.15563939 371.89010956 144.96060215 373.50912502 146.97851562 375.07861328 C147.86539062 375.84173828 148.75226563 376.60486328 149.66601562 377.39111328 C149.66601562 378.05111328 149.66601562 378.71111328 149.66601562 379.39111328 C150.26414062 379.63861328 150.86226563 379.88611328 151.47851562 380.14111328 C153.95249084 381.5548134 155.09971818 383.04166711 156.66601562 385.39111328 C152.34100197 389.31380008 147.80862378 392.83495276 143.04101562 396.20361328 C142.49098877 396.60056396 141.94096191 396.99751465 141.37426758 397.40649414 C138.15378872 399.6479862 135.61630219 401.23885305 131.66601562 401.39111328 C129.23413086 399.56103516 129.23413086 399.56103516 126.72460938 396.85986328 C126.27505386 396.38995972 125.82549835 395.92005615 125.36231995 395.43591309 C123.92756976 393.93450171 122.51402354 392.41529818 121.10351562 390.89111328 C119.68860958 389.36788562 118.26978746 387.84988822 116.83399963 386.34631348 C115.53278438 384.98330113 114.25016361 383.60260995 112.96850586 382.22119141 C110.88045859 380.14796051 110.88045859 380.14796051 108.55981445 380.49633789 C105.53953759 381.92334765 102.73935672 383.67944466 99.91601562 385.45361328 C74.67229287 400.89457844 47.03984745 410.69565198 17.66601562 414.39111328 C16.37179687 414.57544922 15.07757813 414.75978516 13.74414062 414.94970703 C6.89645297 415.68550068 -0.00753439 415.61482653 -6.88720703 415.63134766 C-9.30081629 415.6409809 -11.71354531 415.67204612 -14.12695312 415.70361328 C-24.85558976 415.77635747 -34.84411285 414.59165893 -45.33398438 412.39111328 C-46.23358887 412.21789551 -47.13319336 412.04467773 -48.06005859 411.86621094 C-83.78140735 404.97125049 -117.53011928 388.22171426 -144.17773438 363.39501953 C-146.18100362 361.53328562 -148.23971735 359.77380168 -150.33398438 358.01611328 C-175.10181716 336.33182595 -191.33793797 305.89752514 -202.33398438 275.39111328 C-202.59840332 274.66230957 -202.86282227 273.93350586 -203.13525391 273.18261719 C-214.03832818 242.29183622 -215.9063423 206.41029292 -209.33398438 174.39111328 C-209.12467285 173.35374023 -208.91536133 172.31636719 -208.69970703 171.24755859 C-205.947076 157.88765513 -202.86746407 144.88331988 -197.33398438 132.39111328 C-196.96708496 131.54548828 -196.60018555 130.69986328 -196.22216797 129.82861328 C-187.84653677 110.7379389 -177.1916584 93.03011403 -163.33398438 77.39111328 C-162.26470703 76.15941406 -162.26470703 76.15941406 -161.17382812 74.90283203 C-143.15006848 54.46318926 -120.69022573 35.81165941 -95.28076172 25.2331543 C-92.1598454 23.8832621 -89.12158065 22.36665246 -86.06591797 20.8762207 C-73.3224563 14.68164426 -60.69851668 9.43692086 -47.02148438 5.70361328 C-46.33618652 5.51307373 -45.65088867 5.32253418 -44.94482422 5.1262207 C-30.11846271 1.28985361 -15.27571067 -0.10927233 0 0 Z " fill="#9FA5E2" transform="translate(250.333984375,67.60888671875)"/>
<path d="M0 0 C1.28801514 0.35408936 1.28801514 0.35408936 2.60205078 0.71533203 C47.11333616 13.42698801 83.75279152 42.57588935 106.67724609 82.60888672 C121.0435256 108.57849571 127.44189238 135.36157331 127.4375 164.9375 C127.43889984 165.84152557 127.44029968 166.74555115 127.44174194 167.67697144 C127.42350622 182.01960449 126.20359562 195.2197475 122 209 C121.59741218 210.45494405 121.19756663 211.91065034 120.80078125 213.3671875 C113.59388663 238.90302515 99.83857416 262.50646653 81.41650391 281.53222656 C79.99524487 283.00492724 78.59721558 284.49742498 77.19921875 285.9921875 C65.25022914 298.56781527 51.36541053 308.07307382 36 316 C35.02522705 316.51771973 35.02522705 316.51771973 34.03076172 317.04589844 C-5.07271421 337.66743935 -51.87462837 340.03698404 -93.76953125 327.14794922 C-118.55471563 318.86679228 -140.9081047 305.71262948 -159.56835938 287.40087891 C-160.92047611 286.07781515 -162.29554397 284.77832477 -163.671875 283.48046875 C-193.73766386 254.58183008 -210.56202664 212.3680114 -211.3891449 171.06520081 C-211.76979154 142.60078333 -207.56379997 116.75744743 -195 91 C-194.69336426 90.36755371 -194.38672852 89.73510742 -194.07080078 89.08349609 C-187.15893784 75.02686659 -178.04423876 62.9727326 -168 51 C-167.54109375 50.41734375 -167.0821875 49.8346875 -166.609375 49.234375 C-163.19801315 44.91331665 -159.21642726 41.50067572 -155 38 C-154.23816406 37.35369629 -154.23816406 37.35369629 -153.4609375 36.69433594 C-111.93816788 1.56896978 -53.3189931 -14.71050849 0 0 Z M-75 14 C-76.31689819 14.29028076 -76.31689819 14.29028076 -77.66040039 14.58642578 C-116.61193189 23.27137135 -150.75095229 48.38412172 -172.49316406 81.60644531 C-181.2798223 95.56373587 -187.59051698 110.13263549 -192 126 C-192.22300781 126.75941895 -192.44601563 127.51883789 -192.67578125 128.30126953 C-203.14951485 165.04768916 -195.10071507 207.77053446 -177.29882812 240.76098633 C-157.75084329 275.32482466 -124.61471295 302.58903241 -86.39257812 313.76220703 C-75.13502745 316.86682204 -64.23550646 319.10198295 -52.53125 319.2734375 C-51.74191071 319.28614685 -50.95257141 319.2988562 -50.13931274 319.31195068 C-12.21271261 319.80366495 21.50699745 311.69175678 52 288 C53.35544922 286.95199219 53.35544922 286.95199219 54.73828125 285.8828125 C72.3387285 271.89207508 85.81758908 254.9859166 96 235 C96.55171875 233.93652344 97.1034375 232.87304688 97.671875 231.77734375 C102.20348545 222.53893172 105.23872494 212.88401968 108 203 C108.21462891 202.27087402 108.42925781 201.54174805 108.65039062 200.79052734 C115.19742209 177.87072116 114.78796912 148.79168533 108 126 C107.76925781 125.17258301 107.53851563 124.34516602 107.30078125 123.49267578 C101.78793066 103.97528876 92.67698807 85.85209755 80 70 C79.53480957 69.41669922 79.06961914 68.83339844 78.59033203 68.23242188 C53.16053245 36.72767853 19.49977237 19.01377018 -20 12 C-20.94270752 11.81969238 -21.88541504 11.63938477 -22.85668945 11.45361328 C-28.5875917 10.62658288 -34.3750725 10.77465762 -40.1550293 10.75976562 C-42.39996865 10.75016058 -44.64395072 10.71914016 -46.88867188 10.6875 C-56.66194473 10.6156045 -65.46063988 11.70841005 -75 14 Z " fill="#403C60" transform="translate(295,97)"/>
<path d="M0 0 C7.02362182 3.91426334 11.31649147 9.23138967 13.75 16.9375 C14.43404493 24.00596425 13.4097817 30.30052356 9.14453125 36.1328125 C5.48745453 40.30626562 1.54155371 44.14620676 -2.4453125 48 C-3.56752197 49.09538086 -3.56752197 49.09538086 -4.71240234 50.21289062 C-6.20271938 51.66217225 -7.70517116 53.09911146 -9.22119141 54.52148438 C-14.94066355 60.06463116 -20.83136629 67.55808974 -21.37698364 75.87255859 C-21.37777924 76.60297363 -21.37857483 77.33338867 -21.37939453 78.0859375 C-21.38412277 79.33238037 -21.38412277 79.33238037 -21.38894653 80.60400391 C-21.3869223 81.49780762 -21.38489807 82.39161133 -21.3828125 83.3125 C-21.38424759 84.69381104 -21.38424759 84.69381104 -21.38571167 86.10302734 C-21.3863921 88.04980538 -21.38454734 89.9965857 -21.38037109 91.94335938 C-21.37502093 94.92583301 -21.38032071 97.90815605 -21.38671875 100.890625 C-21.38605794 102.78125033 -21.38477673 104.67187557 -21.3828125 106.5625 C-21.38584885 107.90320557 -21.38584885 107.90320557 -21.38894653 109.27099609 C-21.38579437 110.10195801 -21.38264221 110.93291992 -21.37939453 111.7890625 C-21.37859894 112.51947754 -21.37780334 113.24989258 -21.37698364 114.00244141 C-21.31769397 116.15679741 -21.31769397 116.15679741 -20.25 118.9375 C-14.30041008 119.76002347 -14.30041008 119.76002347 -8.97967529 117.43045044 C-6.56461736 115.19294198 -4.31922119 112.86046968 -2.0859375 110.44140625 C-1.24962799 109.57813217 -0.41331848 108.71485809 0.44833374 107.82542419 C3.11300222 105.07084053 5.7459431 102.28856136 8.375 99.5 C11.0136669 96.71775999 13.65860992 93.94282705 16.3230896 91.18528748 C17.97831139 89.47088142 19.61854889 87.7418496 21.24160767 85.9969635 C27.45899285 79.53540873 27.45899285 79.53540873 31.68505859 78.83569336 C34.75 78.9375 34.75 78.9375 36.6875 79.9375 C38.33436057 83.03747283 38.39448804 85.57388625 37.75 88.9375 C31.57575057 106.60957392 19.3928627 120.50558971 2.75 128.9375 C-1.14581964 130.58560467 -5.10002723 132.0653447 -9.12084961 133.37939453 C-14.48048382 135.22811969 -17.0345681 137.22852776 -20.25 141.9375 C-21.45573315 145.55469944 -21.45021033 148.9069155 -21.48828125 152.67578125 C-21.50038887 153.81336128 -21.50038887 153.81336128 -21.51274109 154.97392273 C-21.52656182 156.5785393 -21.53729296 158.18318502 -21.54516602 159.7878418 C-21.55668481 161.42399748 -21.57713529 163.06011562 -21.60668945 164.69604492 C-21.64947503 167.06454919 -21.66554944 169.43193795 -21.67578125 171.80078125 C-21.70204338 172.88858635 -21.70204338 172.88858635 -21.72883606 173.99836731 C-21.7071131 179.12614559 -20.49769689 182.00511184 -17.25 185.9375 C-13.62087045 188.3569197 -10.47623287 188.65735285 -6.25 187.9375 C-1.87431786 185.6907081 1.37787982 182.57623175 4.79370117 179.10498047 C5.37643295 178.52093445 5.95916473 177.93688843 6.55955505 177.33514404 C8.4753424 175.41289063 10.38405327 173.48376307 12.29296875 171.5546875 C13.62573562 170.21564768 14.95902064 168.87712342 16.2928009 167.53909302 C19.79629609 164.02231647 23.29417367 160.50000987 26.79046631 156.97607422 C32.39605088 151.3273048 38.00843347 145.68530886 43.62401772 140.04648209 C45.5863083 138.07394798 47.54516344 136.09804849 49.50370789 134.12179565 C50.70051825 132.91816009 51.89743714 131.71463241 53.09448242 130.51123047 C53.64048096 129.95849457 54.18647949 129.40575867 54.74902344 128.83627319 C58.23508734 125.33964982 59.62246266 124.04661652 64.625 123.5625 C67.87277807 123.62757388 68.59935732 123.82359944 71.3125 125.875 C74.71575954 133.12542249 70.94102365 141.25380504 68.38378906 148.35766602 C59.5133227 171.73068138 42.42110223 189.79999553 19.76171875 200.22265625 C4.51614215 206.89559312 -11.01623467 210.50507053 -27.6875 210.3125 C-28.95795166 210.30307373 -30.22840332 210.29364746 -31.53735352 210.28393555 C-40.45595267 210.14035474 -48.67270883 209.54113306 -57.25 206.9375 C-58.39597656 206.5971875 -59.54195313 206.256875 -60.72265625 205.90625 C-85.04880621 197.93222964 -106.43356484 182.04069596 -118.33984375 159.046875 C-128.08766704 139.19084677 -128.08766704 139.19084677 -126.25 128.9375 C-124.6875 126.375 -124.6875 126.375 -122.25 124.9375 C-119 124.25 -119 124.25 -115.25 124.9375 C-113.41723633 126.25683594 -113.41723633 126.25683594 -111.51953125 127.984375 C-110.82134277 128.61899658 -110.1231543 129.25361816 -109.40380859 129.9074707 C-105.93922543 133.1729444 -102.54413461 136.49883114 -99.1875 139.875 C-98.51912109 140.53951172 -97.85074219 141.20402344 -97.16210938 141.88867188 C-96.49888672 142.55318359 -95.83566406 143.21769531 -95.15234375 143.90234375 C-94.27823853 144.77814087 -94.27823853 144.77814087 -93.38647461 145.67163086 C-91.52637443 147.64438709 -89.75020679 149.65709245 -87.97753906 151.70776367 C-84.37299489 155.84766136 -80.58416338 159.76468067 -76.70703125 163.6484375 C-76.01614914 164.34264801 -75.32526703 165.03685852 -74.6134491 165.75210571 C-73.16686222 167.20371394 -71.71895607 168.65400857 -70.26977539 170.10302734 C-68.05261056 172.32239928 -65.8435939 174.54967842 -63.63476562 176.77734375 C-62.22184343 178.19319676 -60.80844869 179.60857838 -59.39453125 181.0234375 C-58.40849663 182.0202504 -58.40849663 182.0202504 -57.40254211 183.03720093 C-56.47588997 183.95923813 -56.47588997 183.95923813 -55.53051758 184.89990234 C-54.9920369 185.43980804 -54.45355621 185.97971375 -53.89875793 186.53598022 C-51.18118932 188.84603804 -48.90911669 189.85152826 -45.375 190.3125 C-41.40512486 189.83611498 -39.35463464 188.40709574 -36.25 185.9375 C-33.63845403 182.02018104 -33.92610455 178.6538476 -33.9140625 174.10546875 C-33.9074057 173.23610184 -33.9007489 172.36673492 -33.89389038 171.47102356 C-33.88376508 169.63101313 -33.87907332 167.79096599 -33.87939453 165.95092773 C-33.87503219 163.1456993 -33.83874259 160.34205827 -33.80078125 157.53710938 C-33.79491076 155.7474012 -33.79094292 153.95768557 -33.7890625 152.16796875 C-33.77469147 151.33339645 -33.76032043 150.49882416 -33.74551392 149.63896179 C-33.78721214 144.28074048 -34.62587522 141.14844203 -38.25 136.9375 C-41.54322019 135.13385872 -41.54322019 135.13385872 -45.25 133.9375 C-55.09853908 130.29268041 -63.02334015 126.64372107 -71.25 119.9375 C-72.095625 119.2878125 -72.94125 118.638125 -73.8125 117.96875 C-83.33440594 110.03382838 -92.11581851 95.69146085 -93.5625 83.25 C-93.25 80.9375 -93.25 80.9375 -92.125 79.125 C-89.16843207 77.25250698 -87.71131055 77.28442254 -84.25 77.9375 C-78.43034282 82.18526838 -73.47160084 87.65944426 -68.49609375 92.83984375 C-67.05103957 94.32185077 -65.60504857 95.80294481 -64.15820312 97.28320312 C-61.9090513 99.58809662 -59.66582625 101.89761926 -57.43774414 104.22290039 C-55.26491711 106.48648957 -53.07047543 108.72708713 -50.87109375 110.96484375 C-50.21048447 111.66471909 -49.54987518 112.36459442 -48.86924744 113.0856781 C-45.60700687 116.36723703 -44.09870154 117.81392045 -39.39868164 118.49829102 C-36.16281401 118.23175715 -36.16281401 118.23175715 -34.25 115.9375 C-33.93178961 114.07167356 -33.93178961 114.07167356 -33.95947266 111.921875 C-33.94671295 111.09341064 -33.93395325 110.26494629 -33.92080688 109.41137695 C-33.91858124 108.51249756 -33.91635559 107.61361816 -33.9140625 106.6875 C-33.9074057 105.7596167 -33.9007489 104.8317334 -33.89389038 103.87573242 C-33.88374732 101.90529362 -33.87907387 99.93482035 -33.87939453 97.96435547 C-33.87505727 94.97694371 -33.83885612 91.99105283 -33.80078125 89.00390625 C-33.79490592 87.08594252 -33.79094133 85.16797181 -33.7890625 83.25 C-33.77469147 82.36731445 -33.76032043 81.48462891 -33.74551392 80.57519531 C-33.80503794 72.31704002 -36.09201026 64.43391533 -41.9375 58.375 C-42.70835937 57.56160156 -43.47921875 56.74820313 -44.2734375 55.91015625 C-46.64732273 53.51512094 -49.06275635 51.16330583 -51.4765625 48.80859375 C-52.22977783 48.06875244 -52.98299316 47.32891113 -53.7590332 46.56665039 C-55.26522031 45.09271022 -56.7816467 43.62914262 -58.30932617 42.17749023 C-63.60682476 37.01849621 -67.51876096 32.23890611 -68.78125 24.8125 C-68.69726543 17.08591974 -67.81915601 11.63099136 -62.34375 5.96484375 C-55.48022479 -0.27123233 -51.07384501 -1.50123419 -41.7421875 -1.39453125 C-37.00492191 -0.94412009 -34.28120867 0.47398359 -30.25 2.9375 C-28.32354383 3.80325714 -28.32354383 3.80325714 -26.25 3.9375 C-24.14997619 3.01525734 -24.14997619 3.01525734 -22.1875 1.5625 C-15.16168719 -3.26521782 -7.75051108 -3.576257 0 0 Z " fill="#FEC386" transform="translate(280.25,154.0625)"/>
<path d="M0 0 C6.3010787 5.44134603 10.74382703 12.26453654 11.5078125 20.65625 C11.63515753 26.13957726 11.09764812 30.78957365 9.26171875 35.953125 C9.98875 35.90671875 10.71578125 35.8603125 11.46484375 35.8125 C23.06893649 35.39594282 32.56087229 38.15822351 41.26171875 45.953125 C41.86628906 46.45457031 42.47085938 46.95601562 43.09375 47.47265625 C51.71559714 55.19287232 55.17751528 65.48653044 55.82421875 76.703125 C55.86740234 77.40050781 55.91058594 78.09789063 55.95507812 78.81640625 C56.06061471 80.52844422 56.16161785 82.24076061 56.26171875 83.953125 C56.89078125 84.16066406 57.51984375 84.36820312 58.16796875 84.58203125 C68.88176848 88.43835374 75.4010286 94.64119355 80.26171875 104.953125 C85.11307763 117.27374586 84.44724257 129.848218 79.26171875 141.953125 C77.55229395 144.95816571 75.63612106 147.4471293 73.26171875 149.953125 C72.73707031 150.51773438 72.21242188 151.08234375 71.671875 151.6640625 C66.26851592 156.87671479 60.03980008 158.55543223 52.69921875 159.328125 C43.18845535 158.29058717 35.65369817 154.02718614 29.00390625 147.21484375 C20.99528599 136.81800265 19.6367926 125.62604595 20.26171875 112.953125 C20.7203927 110.43241252 21.34769549 108.35243606 22.26171875 105.953125 C21.45089844 105.685 20.64007813 105.416875 19.8046875 105.140625 C8.43593008 101.11722307 -1.47808287 95.57823234 -7.73828125 84.953125 C-8.44791016 83.77169922 -8.44791016 83.77169922 -9.171875 82.56640625 C-13.59929564 74.17562889 -15.3216136 63.2183214 -12.73828125 53.953125 C-13.41294434 53.97407227 -14.08760742 53.99501953 -14.78271484 54.01660156 C-17.89274692 54.10067086 -21.00253884 54.15206944 -24.11328125 54.203125 C-25.70462891 54.25339844 -25.70462891 54.25339844 -27.328125 54.3046875 C-38.7173932 54.44443312 -47.5507439 50.93714804 -55.73828125 42.953125 C-61.48863553 35.88523772 -64.37586478 29.13976931 -64.17578125 19.9609375 C-62.98054076 11.74365913 -58.50506565 4.519091 -52.01953125 -0.58203125 C-35.95267172 -10.89893592 -15.48918531 -11.57433628 0 0 Z " fill="#D17D69" transform="translate(420.73828125,13.046875)"/>
<path d="M0 0 C2.66523362 0.01610855 5.32895175 0.00002203 7.99414062 -0.01904297 C24.27966868 -0.04085223 39.8284319 2.13153376 55.47851562 6.70361328 C56.53385498 7.00847656 57.58919434 7.31333984 58.67651367 7.62744141 C80.82836975 14.17784041 80.82836975 14.17784041 84.54101562 19.82861328 C86.2430262 25.21831343 86.62500578 28.54416929 83.97851562 33.64111328 C81.5510733 36.52780145 80.19082863 38.05951726 76.66601562 39.39111328 C69.71983398 39.50688298 63.81686212 37.12717967 57.39086914 34.76538086 C49.95216372 32.05722843 42.42191485 29.99066819 34.66601562 28.39111328 C33.83827637 28.21161133 33.01053711 28.03210938 32.15771484 27.84716797 C23.70386998 26.205673 15.40832554 26.08516608 6.83154297 26.13037109 C4.43365836 26.14103482 2.03653302 26.13044865 -0.36132812 26.11767578 C-13.66548071 26.10442991 -26.82614852 27.00185346 -39.70898438 30.57861328 C-40.49660156 30.79364502 -41.28421875 31.00867676 -42.09570312 31.23022461 C-68.6930929 38.74653243 -94.42962 52.36407573 -114.02539062 72.10205078 C-116.38540336 74.44209725 -117.12096544 75.10761161 -120.33398438 75.39111328 C-121.44773438 75.51486328 -122.56148437 75.63861328 -123.70898438 75.76611328 C-128.59956196 75.26019146 -129.92626057 73.87808648 -133.33398438 70.39111328 C-135.60116001 67.53250052 -135.32568066 66.21673523 -135.14648438 62.45361328 C-133.18486606 50.61851613 -120.82878081 43.08278041 -111.74414062 36.48095703 C-92.01866197 22.47925221 -70.36637754 12.05611321 -47.02148438 5.70361328 C-46.33650879 5.51323486 -45.6515332 5.32285645 -44.94580078 5.12670898 C-30.11975044 1.28880726 -15.27564022 -0.10927182 0 0 Z " fill="#7A86AF" transform="translate(250.333984375,67.60888671875)"/>
<path d="M0 0 C6.37891143 1.4533127 11.55494549 4.28883095 17.1875 7.5625 C18.12078125 8.10189209 19.0540625 8.64128418 20.015625 9.19702148 C27.10096281 13.35128118 33.65069396 17.7738237 40 23 C41.01707031 23.81597656 42.03414063 24.63195312 43.08203125 25.47265625 C79.76210717 55.33034971 103.6225293 95.67930859 113 142 C113.19650146 142.95543701 113.39300293 143.91087402 113.59545898 144.89526367 C115.25132931 154.06359472 115.27201063 163.1287493 115.20581055 172.41137695 C115.18750719 175.06145876 115.18530201 177.71118945 115.18554688 180.36132812 C115.16644946 189.2854577 114.97931243 198.1185716 114 207 C113.67 207 113.34 207 113 207 C112.84144531 206.38511719 112.68289063 205.77023437 112.51953125 205.13671875 C111.06846433 200.04323702 111.06846433 200.04323702 107.875 195.9375 C103.83891604 194.62138567 100.19915895 194.29124903 96 195 C93.05099476 196.72376805 93.05099476 196.72376805 91 199 C90.34 199.66 89.68 200.32 89 201 C89.01571045 199.76137207 89.0314209 198.52274414 89.04760742 197.24658203 C89.10274722 192.56110383 89.13664913 187.87565293 89.16479492 183.18994141 C89.17969327 181.17882432 89.20001888 179.16773859 89.22631836 177.15673828 C89.43709892 160.60013213 88.30727921 144.89803807 83.3125 129 C83.05831299 128.17661133 82.80412598 127.35322266 82.54223633 126.50488281 C76.51227216 107.64071475 67.21799983 89.59340056 55 74 C54.33742188 73.13375 53.67484375 72.2675 52.9921875 71.375 C36.48931791 50.42670798 15.28532631 34.04433181 -9 23 C-8.10667969 22.56300781 -8.10667969 22.56300781 -7.1953125 22.1171875 C-3.59197914 20.28346269 -0.10030732 18.45040511 2.375 15.1875 C3.70454351 10.53409773 3.42762984 6.97998506 1.5 2.5625 C0.7575 1.2940625 0.7575 1.2940625 0 0 Z " fill="#5D6988" transform="translate(332,85)"/>
<path d="M0 0 C1 2 1 2 0.3125 5.75 C-0.19855192 9.30795642 -0.02209564 9.95738698 1.75 13.375 C4.0620359 16.07237522 5.61660461 17.8805358 9.26171875 18.1953125 C10.46248047 18.16050781 10.46248047 18.16050781 11.6875 18.125 C12.49574219 18.10695312 13.30398437 18.08890625 14.13671875 18.0703125 C14.75160156 18.04710937 15.36648437 18.02390625 16 18 C14.51698729 21.41401884 12.56243446 23.69359537 10 26.375 C0.2146696 37.10122756 -7.30919121 49.1589896 -14 62 C-14.32097656 62.61456055 -14.64195313 63.22912109 -14.97265625 63.86230469 C-25.44836569 84.25487296 -30.85484095 106.74742201 -31.31640625 129.62890625 C-31.33718735 130.50401352 -31.35796844 131.37912079 -31.37937927 132.28074646 C-31.44409776 135.04126102 -31.50339341 137.80186017 -31.5625 140.5625 C-31.60575937 142.44857601 -31.64937585 144.33464386 -31.69335938 146.22070312 C-31.7996979 150.81371822 -31.90117746 155.40681729 -32 160 C-33.70491536 158.97257487 -35.40983073 157.94514974 -37.11474609 156.91772461 C-40.1867253 155.42231282 -42.66510145 155.56769834 -46 156 C-50.22223897 157.82323956 -51.89068957 159.98226585 -54 164 C-54.66 164.99 -55.32 165.98 -56 167 C-58.85377346 143.27444508 -59.08583287 117.1599751 -53 94 C-52.69449219 92.73446289 -52.69449219 92.73446289 -52.3828125 91.44335938 C-43.95721503 56.62275749 -25.47737462 25.06341432 0 0 Z " fill="#5D6988" transform="translate(116,124)"/>
<path d="M0 0 C3.13879381 1.3875818 5.22254795 2.99523408 7.609375 5.44921875 C8.28226562 6.13306641 8.95515625 6.81691406 9.6484375 7.52148438 C10.34195313 8.23626953 11.03546875 8.95105469 11.75 9.6875 C16.40625537 14.46326002 21.11351718 19.05995021 26.16992188 23.41235352 C28.65488396 25.56813106 31.02697265 27.82141481 33.375 30.125 C34.20773437 30.93195313 35.04046875 31.73890625 35.8984375 32.5703125 C39.52681995 36.7652082 40.21651296 40.34167769 40.36328125 45.83984375 C39.47157236 51.14215573 36.40522533 54.97272251 32.69140625 58.671875 C31.86189453 59.50074219 31.03238281 60.32960938 30.17773438 61.18359375 C29.31470703 62.03050781 28.45167969 62.87742187 27.5625 63.75 C26.70333984 64.61238281 25.84417969 65.47476563 24.95898438 66.36328125 C15.97735313 75.26826553 15.97735313 75.26826553 9.125 75.375 C8.30257812 75.40335937 7.48015625 75.43171875 6.6328125 75.4609375 C0.04390853 74.30739051 -4.56632641 68.71372754 -9.0625 64.125 C-9.66126953 63.52558594 -10.26003906 62.92617188 -10.87695312 62.30859375 C-13.60130296 59.55738833 -16.22766959 56.78620348 -18.67578125 53.78515625 C-20.70638808 51.35184083 -22.70795005 49.34566554 -25.125 47.3125 C-30.24157207 42.98232714 -30.24157207 42.98232714 -32 41 C-32 40.34 -32 39.68 -32 39 C-33.32 38.34 -34.64 37.68 -36 37 C-33.0120216 33.91242232 -29.91285951 31.02668662 -26.6875 28.1875 C-21.88542294 23.88443396 -17.26752028 19.41325559 -12.6875 14.875 C-12.00582764 14.20621826 -11.32415527 13.53743652 -10.62182617 12.84838867 C-6.58272231 8.81723287 -3.1820651 4.73924589 0 0 Z " fill="#5D6888" transform="translate(423,397)"/>
<path d="M0 0 C2.03422643 2.65732282 3.86812812 5.42579697 5.734375 8.203125 C10.10609706 13.5999405 15.31542489 15.60475192 21.75 17.6875 C32.04833965 21.28961513 39.29855221 27.68763527 45 37 C45 37.66 45 38.32 45 39 C46.23363281 39.00386719 46.23363281 39.00386719 47.4921875 39.0078125 C57.83679133 39.3661706 64.58828651 42.1832833 71.8125 49.625 C79.85904571 59.49771211 81.96609936 71.63120676 81 84 C79.38705115 92.15691273 76.74797983 98.93345743 71 105 C70.47535156 105.56460938 69.95070313 106.12921875 69.41015625 106.7109375 C63.9861849 111.94347457 57.64982851 113.93268759 50.1875 114.0703125 C49.135625 114.04710937 48.08375 114.02390625 47 114 C47.04189453 113.351521 47.08378906 112.70304199 47.12695312 112.03491211 C47.84608125 99.18277268 48.15669493 89.09325089 40.9453125 78.12109375 C35.6139926 69.5674299 35.88322745 59.01637006 37.67578125 49.359375 C38.37946278 46.54464889 39.13383972 43.76861947 40 41 C38.35 41.66 36.7 42.32 35 43 C34.64808594 42.48050781 34.29617188 41.96101563 33.93359375 41.42578125 C28.56496554 33.84241869 23.96463884 30.56204129 15.125 27.625 C4.24978203 23.90392436 -2.53970976 17.42675005 -9 8 C-9.33 7.01 -9.66 6.02 -10 5 C-8.71186658 4.16121545 -7.41936744 3.32913217 -6.125 2.5 C-5.40570313 2.0359375 -4.68640625 1.571875 -3.9453125 1.09375 C-2 0 -2 0 0 0 Z " fill="#D17D68" transform="translate(423,58)"/>
<path d="M0 0 C5.50476141 4.75367998 9.7839295 10.74100826 11.26171875 17.953125 C11.48124928 21.63635942 11.44455961 25.26922023 11.26171875 28.953125 C3.82235673 28.07048883 3.82235673 28.07048883 0.8359375 27.4453125 C-8.48188283 25.66375656 -15.26729421 27.055801 -23.6328125 31.4453125 C-33.42021679 36.19743584 -44.45744466 36.65935184 -54.73608398 33.25805664 C-62.49008781 30.44951188 -62.49008781 30.44951188 -63.73828125 27.953125 C-64.99683738 19.06357664 -62.67030201 12.33531454 -57.73828125 4.953125 C-43.70600964 -11.76942962 -16.72359053 -12.49674897 0 0 Z " fill="#D17C68" transform="translate(420.73828125,13.046875)"/>
<path d="M0 0 C0.86071106 -0.01252808 1.72142212 -0.02505615 2.60821533 -0.03796387 C29.87297885 -0.35736526 55.48242341 1.59501366 81.50244141 10.49853516 C83.86876417 11.3073558 86.24556281 12.07835736 88.625 12.84765625 C90.17394756 13.36227002 91.72215975 13.87910395 93.26953125 14.3984375 C93.97053955 14.62781006 94.67154785 14.85718262 95.39379883 15.09350586 C99.38727117 16.48802818 102.17476829 17.88528837 104.76953125 21.2734375 C105.40292629 26.25011283 104.82337027 29.27995571 101.76953125 33.2734375 C97.88730201 35.21455212 93.53599484 34.79084474 89.47070312 33.60009766 C86.96237032 32.6478602 84.49130192 31.62933651 82.01953125 30.5859375 C58.89401404 21.34185118 34.27236588 17.42056531 9.42578125 17.09765625 C8.6018689 17.08564178 7.77795654 17.07362732 6.92907715 17.06124878 C3.50184934 17.01261125 0.07500965 16.96506239 -3.35253906 16.94750977 C-5.88534453 16.93207741 -8.41677594 16.8919781 -10.94921875 16.84765625 C-11.72213257 16.84956467 -12.49504639 16.85147308 -13.29138184 16.85343933 C-16.78984594 16.77350498 -18.8542681 16.54881726 -21.71289062 14.45629883 C-23.95986568 11.22428404 -23.8467472 9.108059 -23.23046875 5.2734375 C-21.15694152 2.73169444 -19.54828763 1.52287288 -16.28715515 0.90560913 C-10.85298348 0.36337969 -5.46024282 0.07350989 0 0 Z " fill="#FDFEFE" transform="translate(242.23046875,32.7265625)"/>
<path d="M0 0 C2.03422643 2.65732282 3.86812812 5.42579697 5.734375 8.203125 C10.10609706 13.5999405 15.31542489 15.60475192 21.75 17.6875 C31.99623086 21.27138871 39.39927314 27.66545524 45 37 C45 37.99 45 38.98 45 40 C46.98 40 48.96 40 51 40 C50.53503252 43.71973983 49.97922439 47.07210359 48.9375 50.6875 C46.19338901 61.72776048 48.42406359 69.33413469 54 79 C59.78131084 90.18440509 60.01707773 100.6453989 58 113 C54.32238669 114.17683626 50.83330292 114.03578346 47 114 C47.04189453 113.351521 47.08378906 112.70304199 47.12695312 112.03491211 C47.84608125 99.18277268 48.15669493 89.09325089 40.9453125 78.12109375 C35.6139926 69.5674299 35.88322745 59.01637006 37.67578125 49.359375 C38.37946278 46.54464889 39.13383972 43.76861947 40 41 C38.35 41.66 36.7 42.32 35 43 C34.64808594 42.48050781 34.29617188 41.96101563 33.93359375 41.42578125 C28.56496554 33.84241869 23.96463884 30.56204129 15.125 27.625 C4.24978203 23.90392436 -2.53970976 17.42675005 -9 8 C-9.33 7.01 -9.66 6.02 -10 5 C-8.71186658 4.16121545 -7.41936744 3.32913217 -6.125 2.5 C-5.40570313 2.0359375 -4.68640625 1.571875 -3.9453125 1.09375 C-2 0 -2 0 0 0 Z " fill="#9C3E4B" transform="translate(423,58)"/>
<path d="M0 0 C0.33 0 0.66 0 1 0 C1.04995648 6.15233213 1.0859794 12.30454256 1.10986328 18.45703125 C1.11983476 20.54396627 1.13341681 22.63088765 1.15087891 24.71777344 C1.24561531 36.34248747 1.18726929 47.54402604 -1 59 C-1.13116211 59.75667969 -1.26232422 60.51335937 -1.39746094 61.29296875 C-2.81677534 69.30792069 -4.63498562 77.21349081 -7 85 C-7.18369141 85.62148926 -7.36738281 86.24297852 -7.55664062 86.88330078 C-11.4426352 99.88287786 -16.92948407 111.88418689 -23 124 C-19.48782701 128.29265588 -15.80175636 132.23751468 -11.8203125 136.1015625 C-10.8921875 137.00390625 -9.9640625 137.90625 -9.0078125 138.8359375 C-7.55841547 140.2418625 -6.1056246 141.64343089 -4.64257812 143.03515625 C-3.21143129 144.39978231 -1.79684836 145.78171372 -0.3828125 147.1640625 C0.45878418 147.97311035 1.30038086 148.7821582 2.16748047 149.61572266 C4 152 4 152 4.36962891 154.66235352 C3.8804464 157.75609363 2.63910324 159.05880194 0.5 161.3125 C-0.47453125 162.35857422 -0.47453125 162.35857422 -1.46875 163.42578125 C-1.9740625 163.94527344 -2.479375 164.46476563 -3 165 C-7.90473901 160.88670129 -12.5219528 156.61457539 -17.02734375 152.0703125 C-17.66112442 151.43511688 -18.29490509 150.79992126 -18.94789124 150.14547729 C-20.94681406 148.14101284 -22.94220784 146.13307786 -24.9375 144.125 C-26.30250133 142.75497611 -27.6677336 141.38518226 -29.03320312 140.015625 C-32.35814211 136.67973457 -35.67992353 133.34072964 -39 130 C-37.62472605 126.08895534 -35.80758307 123.20046347 -33.28125 119.92578125 C-10.54432861 89.25248409 -1.58618603 51.22352778 -0.4375 13.75 C-0.39415828 12.40754308 -0.35053997 11.06509505 -0.30664062 9.72265625 C-0.20172235 6.4818473 -0.09955985 3.24097723 0 0 Z " fill="#9FA5E0" transform="translate(447,251)"/>
<path d="M0 0 C2.93230193 1.32120828 4.98664899 2.74638197 7.234375 5.0390625 C7.80800781 5.61914062 8.38164062 6.19921875 8.97265625 6.796875 C9.85244141 7.70179688 9.85244141 7.70179688 10.75 8.625 C11.35199219 9.23601562 11.95398438 9.84703125 12.57421875 10.4765625 C14.05405305 11.97988624 15.52764676 13.48934856 17 15 C11.77558273 24.16676895 3.7043251 31.38734264 -3.6875 38.8125 C-4.77442139 39.90643066 -4.77442139 39.90643066 -5.88330078 41.02246094 C-7.90297575 43.03611256 -9.94158083 45.02602345 -12 47 C-12.56541504 47.5470459 -13.13083008 48.0940918 -13.71337891 48.65771484 C-15.26953125 50.07421875 -15.26953125 50.07421875 -18 52 C-22.8668657 51.49361392 -25.52741904 47.98691065 -28.8125 44.6875 C-29.42287109 44.10548828 -30.03324219 43.52347656 -30.66210938 42.92382812 C-31.23380859 42.35470703 -31.80550781 41.78558594 -32.39453125 41.19921875 C-32.91893799 40.68190186 -33.44334473 40.16458496 -33.98364258 39.6315918 C-35 38 -35 38 -34.83618164 35.96435547 C-33.40795088 32.60915994 -30.40161328 30.67265373 -27.625 28.4375 C-17.3085111 19.85381256 -8.28333504 10.5740351 0 0 Z " fill="#3F3C60" transform="translate(407,381)"/>
<path d="M0 0 C0 3.63 0 7.26 0 11 C-7.43936202 10.11736383 -7.43936202 10.11736383 -10.42578125 9.4921875 C-19.74360158 7.71063156 -26.52901296 9.102676 -34.89453125 13.4921875 C-44.68193554 18.24431084 -55.71916341 18.70622684 -65.99780273 15.30493164 C-73.75180656 12.49638688 -73.75180656 12.49638688 -75 10 C-75.06950541 8.45976004 -75.08452357 6.91665012 -75.0625 5.375 C-75.05347656 4.55773438 -75.04445313 3.74046875 -75.03515625 2.8984375 C-75.02355469 2.27195312 -75.01195312 1.64546875 -75 1 C-70.62530171 1.38040855 -67.31359413 2.23324372 -63.3125 4.0625 C-56.94201328 6.63170679 -50.62119445 7.88423702 -44.03125 5.19726562 C-41.84062101 4.15712556 -39.66871674 3.08506326 -37.5 2 C-25.38594391 -4.00904902 -12.84234234 -3.61466386 0 0 Z " fill="#9C3E4B" transform="translate(432,31)"/>
</svg>
