<?xml version="1.0" encoding="UTF-8"?>
<svg version="1.1" xmlns="http://www.w3.org/2000/svg" width="512" height="512">
<path d="M0 0 C1.11665039 0.0211084 2.23330078 0.0422168 3.38378906 0.06396484 C31.88266771 0.95179289 61.92260766 8.5633147 86.90625 22.4609375 C87.74389893 22.9259668 88.58154785 23.39099609 89.44458008 23.87011719 C91.00723416 24.75732169 92.55570216 25.67025894 94.0847168 26.61425781 C105.12891704 32.98267366 118.98428704 27.1921155 130.66455078 24.56079102 C132.83237373 24.07488318 135.00200587 23.59776654 137.171875 23.12109375 C138.44772461 22.83419678 139.72357422 22.5472998 141.03808594 22.25170898 C146.39227183 21.33224182 151.09719947 21.02661499 156.18359375 23.09375 C157.38000488 23.57303955 157.38000488 23.57303955 158.60058594 24.06201172 C159.43364258 24.41279785 160.26669922 24.76358398 161.125 25.125 C162.00317383 25.4873877 162.88134766 25.84977539 163.78613281 26.22314453 C196.05255199 39.73668109 224.88671655 60.11967821 246.6875 87.625 C247.4815625 88.59050781 248.275625 89.55601563 249.09375 90.55078125 C261.85315005 106.43946455 271.8119516 125.21328913 279.1875 144.1875 C279.44313721 144.83033936 279.69877441 145.47317871 279.9621582 146.13549805 C282.70051641 153.50681544 281.61085423 159.98719887 279.9375 167.41015625 C279.75993164 168.22947128 279.58236328 169.04878632 279.39941406 169.89292908 C278.83559824 172.49266565 278.2625797 175.09023358 277.6875 177.6875 C277.11278857 180.28840674 276.54035014 182.88969669 275.97558594 185.49278259 C275.62536657 187.10683663 275.26953527 188.71968656 274.90722656 190.33106995 C273.51745666 196.73249657 272.73898406 201.67185427 276.06640625 207.609375 C276.57212158 208.53468018 277.07783691 209.45998535 277.59887695 210.41333008 C278.14374756 211.39068115 278.68861816 212.36803223 279.25 213.375 C291.42318365 236.04900162 300.0669329 261.19595401 302.42675781 286.96484375 C302.60840436 288.81804674 302.83243127 290.66737675 303.08886719 292.51171875 C305.93945368 314.07402432 297.84855237 329.63112219 287.54486084 347.99349976 C283.94829917 354.52545346 283.5870782 359.24700414 284.6875 366.625 C286.92166483 406.58690627 276.49435491 456.85057115 250.25 488.5625 C239.01209735 499.70112789 222.46148196 502.91301839 207.1875 503.125 C206.36314453 503.14353027 205.53878906 503.16206055 204.68945312 503.18115234 C198.91591967 503.12145036 194.47530654 501.92497361 189.6875 498.625 C180.32231508 488.59920037 176.89119673 470.66882653 173.55444336 457.66064453 C172.99778302 455.49136053 172.42865969 453.3256425 171.85742188 451.16015625 C165.4319711 426.63217018 165.4319711 426.63217018 165.6875 419.625 C164.80578125 419.35945313 163.9240625 419.09390625 163.015625 418.8203125 C142.1416123 411.32330794 123.19541969 390.15486677 113.65625 370.57421875 C106.36783469 354.85074774 102.13198632 339.03109536 102.6875 321.625 C102.06746094 321.53863281 101.44742187 321.45226562 100.80859375 321.36328125 C63.19001892 315.39468641 28.96891773 288.86404521 6.8515625 258.7578125 C-2.13086369 245.75437241 -9.68921698 232.11628818 -14.75 217.125 C-14.9970166 216.39579346 -15.2440332 215.66658691 -15.49853516 214.9152832 C-17.02726716 210.15311413 -17.82479758 205.60292811 -18.3125 200.625 C-18.993125 200.65980469 -19.67375 200.69460937 -20.375 200.73046875 C-47.28808347 201.48203092 -73.03560418 189.76488424 -92.5 171.6875 C-102.2074259 162.45140427 -110.71445382 151.91819688 -116.3125 139.625 C-116.3125 138.965 -116.3125 138.305 -116.3125 137.625 C-117.55902344 137.51414063 -118.80554688 137.40328125 -120.08984375 137.2890625 C-125.80101495 136.64966085 -131.29936571 135.36603479 -136.875 134 C-138.49897705 133.60458008 -138.49897705 133.60458008 -140.15576172 133.20117188 C-186.54509417 121.72644634 -186.54509417 121.72644634 -196.3125 112.625 C-202.52214688 102.27558853 -200.5934909 88.82574943 -197.81933594 77.63574219 C-194.21761563 64.52393393 -188.52485159 54.5017006 -176.89526367 47.08300781 C-174.23192857 45.56925693 -171.5410016 44.14286817 -168.8125 42.75 C-167.81347656 42.23679199 -166.81445312 41.72358398 -165.78515625 41.19482422 C-147.81651646 32.17965928 -128.91668516 25.95661889 -109.3125 21.625 C-108.51602051 21.44710938 -107.71954102 21.26921875 -106.89892578 21.0859375 C-91.42001561 17.77536219 -73.96159195 16.65318105 -58.3671875 19.51953125 C-51.3939186 20.28879173 -45.55004 16.61650076 -39.5 13.5625 C-37.11851807 12.40488931 -34.73700778 11.24733697 -32.35546875 10.08984375 C-28.8703818 8.38643839 -25.40051504 6.67100568 -21.96264648 4.87402344 C-14.41289233 1.07629909 -8.42611718 -0.28645136 0 0 Z " fill="#E36415" transform="translate(204.3125,4.375)"/>
<path d="M0 0 C1.11665039 0.0211084 2.23330078 0.0422168 3.38378906 0.06396484 C31.88266771 0.95179289 61.92260766 8.5633147 86.90625 22.4609375 C87.74389893 22.9259668 88.58154785 23.39099609 89.44458008 23.87011719 C91.00723416 24.75732169 92.55570216 25.67025894 94.0847168 26.61425781 C105.18444818 33.01469457 119.15956057 27.14989186 130.89086914 24.48535156 C133.08060108 23.99056664 135.27251291 23.50655406 137.46484375 23.0234375 C138.13152573 22.86829681 138.7982077 22.71315613 139.48509216 22.55331421 C142.85113509 21.81537079 145.41555661 21.38390024 148.6875 22.625 C147.80449219 23.24246094 146.92148437 23.85992188 146.01171875 24.49609375 C135.25380858 32.06686566 125.15999624 40.13563333 115.48828125 49.0703125 C113.34984324 51.02085428 111.18928847 52.92014245 108.99707031 54.80834961 C104.81276004 58.46615175 100.85633534 62.3112952 96.93359375 66.24609375 C96.22904556 66.94968521 95.52449738 67.65327667 94.79859924 68.37818909 C93.32096633 69.85514648 91.84457543 71.33334742 90.36938477 72.81274414 C88.13083519 75.05665085 85.88699527 77.29516704 83.64257812 79.53320312 C82.19759596 80.97884618 80.75292408 82.42479945 79.30859375 83.87109375 C78.64798447 84.5296788 77.98737518 85.18826385 77.30674744 85.86680603 C73.45555979 89.73713116 69.78379007 93.71442368 66.22166443 97.85272217 C63.98104819 100.44109824 61.64590164 102.93242166 59.3125 105.4375 C54.96425338 110.13875185 50.87478781 114.99749334 46.859375 119.98828125 C44.74993651 122.54920028 42.55862352 124.99623455 40.3125 127.4375 C36.27404187 131.86858601 32.58511604 136.50380988 28.91674805 141.23925781 C25.75118147 145.3118651 22.48356584 149.27302543 19.125 153.1875 C14.29404588 158.83955548 9.71815103 164.66147501 5.23193359 170.59033203 C3.37727784 173.03369294 1.51097842 175.46797878 -0.35546875 177.90234375 C-1.79960719 179.78896451 -3.24361727 181.67568353 -4.6875 183.5625 C-5.37803467 184.46291016 -6.06856934 185.36332031 -6.7800293 186.29101562 C-10.10791338 190.65048264 -13.3474044 195.0100948 -16.3125 199.625 C-16.6425 198.965 -16.9725 198.305 -17.3125 197.625 C-16.41625977 195.01123047 -16.41625977 195.01123047 -15.00390625 191.7421875 C-14.50439453 190.57558594 -14.00488281 189.40898437 -13.49023438 188.20703125 C-12.95199008 186.97128134 -12.41357641 185.7356052 -11.875 184.5 C-11.33978125 183.25681737 -10.80526686 182.01333124 -10.27148438 180.76953125 C-8.95874088 177.71828962 -7.63880871 174.67036391 -6.3125 171.625 C-7.158125 171.50310303 -8.00375 171.38120605 -8.875 171.25561523 C-31.09561019 167.96197791 -51.60632052 160.05973573 -68.3125 144.625 C-69.00988281 144.05523437 -69.70726562 143.48546875 -70.42578125 142.8984375 C-78.53015533 136.25757175 -84.63410977 127.91795365 -90.3125 119.1875 C-90.69849365 118.59638428 -91.0844873 118.00526855 -91.48217773 117.39624023 C-93.29522586 114.53510689 -94.78190403 111.99925872 -95.3125 108.625 C-100.07076901 112.89163974 -103.13431537 117.81333702 -106.4375 123.25 C-107.47808647 124.95277787 -108.52222318 126.65339247 -109.5703125 128.3515625 C-110.0255127 129.10002441 -110.48071289 129.84848633 -110.94970703 130.61962891 C-112.25192638 132.53586497 -113.61846333 134.05298876 -115.3125 135.625 C-114.10639357 129.59446785 -112.53205682 123.71323551 -110.8125 117.8125 C-110.59891846 117.07136963 -110.38533691 116.33023926 -110.1652832 115.56665039 C-109.13936391 112.08990196 -108.10545327 108.78757035 -106.3125 105.625 C-107.37984375 105.40585938 -108.4471875 105.18671875 -109.546875 104.9609375 C-159.98071843 94.33906476 -159.98071843 94.33906476 -168.67578125 81.6328125 C-173.70989766 71.91056705 -171.2461346 60.90723264 -169.3125 50.625 C-169.24546875 49.78582031 -169.1784375 48.94664063 -169.109375 48.08203125 C-168.66423695 45.27088772 -168.0929127 43.86874901 -166.3125 41.625 C-141.84471666 25.36576333 -105.89453498 18.4047466 -76.9375 18.5 C-75.76960938 18.49613281 -74.60171875 18.49226563 -73.3984375 18.48828125 C-68.24249535 18.49406145 -63.39735546 18.57508397 -58.32421875 19.51171875 C-51.37426101 20.29429529 -45.5290155 16.6058878 -39.5 13.5625 C-37.11851807 12.40488931 -34.73700778 11.24733697 -32.35546875 10.08984375 C-28.8703818 8.38643839 -25.40051504 6.67100568 -21.96264648 4.87402344 C-14.41289233 1.07629909 -8.42611718 -0.28645136 0 0 Z " fill="#E36415" transform="translate(204.3125,4.375)"/>
<path d="M0 0 C1.3604138 4.0812414 0.26892166 7.31932811 -0.65234375 11.39453125 C-0.83132706 12.21950607 -1.01031036 13.0444809 -1.19471741 13.89445496 C-1.76823137 16.53548871 -2.35186307 19.17412991 -2.9375 21.8125 C-3.51901276 24.44026346 -4.09810327 27.06844272 -4.66957092 29.69841003 C-5.02524463 31.33474797 -5.38666311 32.96985091 -5.75462341 34.60346985 C-7.15611037 41.0420864 -7.96952475 46.00936571 -4.62109375 51.984375 C-4.11537842 52.90968018 -3.60966309 53.83498535 -3.08862305 54.78833008 C-2.54375244 55.76568115 -1.99888184 56.74303223 -1.4375 57.75 C10.73568365 80.42400162 19.3794329 105.57095401 21.73925781 131.33984375 C21.92090436 133.19304674 22.14493127 135.04237675 22.40136719 136.88671875 C25.25195368 158.44902432 17.16105237 174.00612219 6.85736084 192.36849976 C3.26079917 198.90045346 2.8995782 203.62200414 4 211 C5.82178992 243.58586696 -1.22868148 274.14362977 -14.13476562 303.95458984 C-14.8972576 305.75711742 -15.58737325 307.58989611 -16.265625 309.42578125 C-17.30397935 312.0106986 -18.10632417 313.9606568 -20 316 C-23.39226913 317.13266322 -26.46016054 317.0479076 -30 317 C-30.89847656 317.15855469 -31.79695312 317.31710937 -32.72265625 317.48046875 C-36.99787035 318.15818445 -41.17801543 318.22311363 -45.5 318.25 C-46.74330078 318.2809375 -46.74330078 318.2809375 -48.01171875 318.3125 C-53.09002985 318.34479451 -56.73685155 318.04168457 -61 315 C-66.45594273 309.4480834 -68.79267771 302.99908798 -71.0625 295.6875 C-71.39902588 294.63804199 -71.73555176 293.58858398 -72.08227539 292.50732422 C-80.3992224 266.21581126 -80.3992224 266.21581126 -81 254 C-82.83349333 254.56197826 -84.66678014 255.12463031 -86.5 255.6875 C-87.67304688 256.04585938 -88.84609375 256.40421875 -90.0546875 256.7734375 C-92.81979931 257.62499654 -95.57186552 258.51021081 -98.3203125 259.4140625 C-99.03638672 259.64649658 -99.75246094 259.87893066 -100.49023438 260.1184082 C-101.8975175 260.57596835 -103.30255597 261.04049918 -104.70507812 261.51245117 C-109.66326497 263.11224501 -109.66326497 263.11224501 -113 262 C-112.36497559 261.5968457 -111.72995117 261.19369141 -111.07568359 260.77832031 C-108.17501506 258.93623973 -105.27500249 257.09312895 -102.375 255.25 C-101.37597656 254.61578125 -100.37695312 253.9815625 -99.34765625 253.328125 C-94.53174976 250.26635663 -89.72849319 247.195364 -85 244 C-88.08784275 241.62024412 -91.29035988 239.49252343 -94.5625 237.375 C-117.69020399 222.0035382 -134.35603799 201.3011114 -142.5625 174.625 C-142.80194336 173.85406006 -143.04138672 173.08312012 -143.28808594 172.28881836 C-145.17593366 165.60727659 -145.63282903 158.9135935 -146 152 C-146.80743652 152.36875244 -147.61487305 152.73750488 -148.44677734 153.11743164 C-151.4369952 154.4785602 -154.43021626 155.83258933 -157.42578125 157.18188477 C-158.72296148 157.76792298 -160.01887066 158.35678295 -161.31347656 158.94848633 C-163.17187804 159.79728915 -165.03457698 160.63592207 -166.8984375 161.47265625 C-168.01911621 161.98062744 -169.13979492 162.48859863 -170.29443359 163.01196289 C-171.18727051 163.33801514 -172.08010742 163.66406738 -173 164 C-173.66 163.67 -174.32 163.34 -175 163 C-166.37479969 156.24801009 -157.74072282 149.51889139 -148.9375 143 C-141.02303811 137.12077022 -133.43953218 130.86811904 -125.87011719 124.55419922 C-123.3673004 122.47418203 -120.84023797 120.42461745 -118.3125 118.375 C-112.38866285 113.53391858 -106.59725854 108.54259324 -100.80273438 103.54833984 C-99.02514087 102.02159309 -97.24047985 100.50358292 -95.453125 98.98828125 C-88.04921109 92.70188116 -80.85049978 86.24441884 -73.75512695 79.61157227 C-72.5008712 78.45990413 -71.23203549 77.32403363 -69.95385742 76.19897461 C-62.32048134 69.46354879 -55.14376631 62.29555474 -47.95825195 55.08862305 C-45.80988134 52.93487478 -43.65619306 50.78654774 -41.50195312 48.63867188 C-40.11165832 47.24771646 -38.72167364 45.85645097 -37.33203125 44.46484375 C-36.38333916 43.519188 -36.38333916 43.519188 -35.41548157 42.5544281 C-31.08061987 38.19708719 -27.00325709 33.66247607 -23 29 C-22.31836288 28.2176725 -22.31836288 28.2176725 -21.62295532 27.41954041 C-13.95256201 18.61357492 -6.91726823 9.40410462 0 0 Z " fill="#E36415" transform="translate(485,160)"/>
<path d="M0 0 C-0.20496094 0.76183594 -0.40992188 1.52367187 -0.62109375 2.30859375 C-2.24766296 8.54247861 -3.62461417 14.56323712 -4 21 C-4.06445312 21.88558594 -4.12890625 22.77117187 -4.1953125 23.68359375 C-4.46604263 30.19014112 -3.87309489 35.60306449 0 41 C11.28163263 51.87691039 30.16800433 54.78272513 44.7421875 58.38671875 C49.9317239 59.68371006 54.95427865 61.22703422 60 63 C59.82082031 63.59369385 59.64164062 64.1873877 59.45703125 64.79907227 C58.6335043 67.53137248 57.81678728 70.26567696 57 73 C56.79117188 73.69625488 56.58234375 74.39250977 56.3671875 75.10986328 C55.67946173 77.40574091 54.99568382 79.70276714 54.3125 82 C54.08602783 82.754021 53.85955566 83.50804199 53.6262207 84.28491211 C52.42868025 88.07672044 52.42868025 88.07672044 52 92 C52.30180176 91.49662109 52.60360352 90.99324219 52.91455078 90.47460938 C54.31355954 88.14701723 55.71923541 85.82351765 57.125 83.5 C57.599375 82.70851563 58.07375 81.91703125 58.5625 81.1015625 C65.24205886 70.08931681 65.24205886 70.08931681 69 66 C69.66 66 70.32 66 71 66 C71.32871094 66.65484375 71.65742187 67.3096875 71.99609375 67.984375 C75.96227098 75.59427602 80.6351316 82.31191742 86 89 C86.66515625 89.84433594 87.3303125 90.68867188 88.015625 91.55859375 C106.44701829 113.54260292 132.85151504 123.10053043 160 129 C159.385789 132.61450437 158.39633734 135.72390161 156.93359375 139.08203125 C156.53076172 140.01337891 156.12792969 140.94472656 155.71289062 141.90429688 C155.29201172 142.86400391 154.87113281 143.82371094 154.4375 144.8125 C154.01275391 145.79154297 153.58800781 146.77058594 153.15039062 147.77929688 C152.10460494 150.18812907 151.05435216 152.59490803 150 155 C150.55179932 154.26209229 150.55179932 154.26209229 151.11474609 153.50927734 C154.59402071 148.86249064 158.07979864 144.22174414 161.625 139.625 C162.0890625 139.01011719 162.553125 138.39523438 163.03125 137.76171875 C165.46455553 134.62041755 167.37925586 132.60312894 171 131 C171.26103516 131.62342285 171.52207031 132.2468457 171.79101562 132.88916016 C193.740174 185.0424362 231.09034753 227.76024513 284 250 C286.70528655 251.02264884 289.42973227 251.94267667 292.1875 252.8125 C292.85330078 253.02841797 293.51910156 253.24433594 294.20507812 253.46679688 C295.80152926 253.98363357 297.40048308 254.4927308 299 255 C294.67354275 259.60728206 289.8278146 263.35696842 284.8125 267.1875 C283.19307985 268.42977745 281.57454756 269.6732134 279.95703125 270.91796875 C279.24522705 271.46219482 278.53342285 272.0064209 277.80004883 272.56713867 C275.90231989 274.02244514 275.90231989 274.02244514 274 276 C274.74685059 275.66677734 275.49370117 275.33355469 276.26318359 274.99023438 C279.63210378 273.48967189 283.00350566 271.99476928 286.375 270.5 C287.550625 269.97535156 288.72625 269.45070313 289.9375 268.91015625 C291.61972656 268.16572266 291.61972656 268.16572266 293.3359375 267.40625 C294.37282715 266.94541016 295.4097168 266.48457031 296.47802734 266.00976562 C299 265 299 265 301 265 C301.14695312 266.01835937 301.29390625 267.03671875 301.4453125 268.0859375 C304.79087395 289.78799813 312.19967904 310.41442631 327 327 C327.66257812 327.804375 328.32515625 328.60875 329.0078125 329.4375 C338.4785809 340.62069516 350.41225701 348.70245465 363 356 C360.16752998 359.01744765 357.29801737 361.25473328 353.796875 363.453125 C352.8171875 364.071875 351.8375 364.690625 350.828125 365.328125 C349.81234375 365.96234375 348.7965625 366.5965625 347.75 367.25 C346.71875 367.8996875 345.6875 368.549375 344.625 369.21875 C342.08624889 370.81722292 339.5445443 372.41077138 337 374 C340.05394765 374 341.85673713 373.47448953 344.7109375 372.46875 C345.62617188 372.15292969 346.54140625 371.83710938 347.484375 371.51171875 C349.40449997 370.83967501 351.32378014 370.16521246 353.2421875 369.48828125 C354.16 369.17246094 355.0778125 368.85664063 356.0234375 368.53125 C357.27519775 368.09135742 357.27519775 368.09135742 358.55224609 367.64257812 C361.13406425 366.96480579 363.34269762 366.88382082 366 367 C366.09909668 367.53963379 366.19819336 368.07926758 366.30029297 368.63525391 C368.69879877 381.34335921 371.92011394 393.65817833 375.9375 405.9375 C376.1421991 406.5801178 376.34689819 407.2227356 376.55780029 407.88482666 C380.4588829 420.33819351 380.4588829 420.33819351 389.30078125 429.484375 C393.27850618 430.24422983 397.14602994 430.29422949 401.1875 430.25 C402.03521973 430.24613281 402.88293945 430.24226563 403.75634766 430.23828125 C408.98721913 430.16600669 413.91366051 429.78677654 418.9921875 428.4375 C421.36691948 427.92004867 423.57702415 427.9324606 426 428 C424.77134403 436.61614442 418.81380138 444.1827709 412.13671875 449.51171875 C400.61010539 457.54031051 387.33774094 460.31917317 373.5 460.5 C372.67580566 460.51844971 371.85161133 460.53689941 371.00244141 460.5559082 C365.22872122 460.4968016 360.78789799 459.30003664 356 456 C346.63481508 445.97420037 343.20369673 428.04382653 339.86694336 415.03564453 C339.31028302 412.86636053 338.74115969 410.7006425 338.16992188 408.53515625 C331.7444711 384.00717018 331.7444711 384.00717018 332 377 C331.11828125 376.73445313 330.2365625 376.46890625 329.328125 376.1953125 C308.4541123 368.69830794 289.50791969 347.52986677 279.96875 327.94921875 C272.68033469 312.22574774 268.44448632 296.40609536 269 279 C268.37996094 278.91363281 267.75992187 278.82726562 267.12109375 278.73828125 C229.50251892 272.76968641 195.28141773 246.23904521 173.1640625 216.1328125 C164.18163631 203.12937241 156.62328302 189.49128818 151.5625 174.5 C151.3154834 173.77079346 151.0684668 173.04158691 150.81396484 172.2902832 C149.28523284 167.52811413 148.48770242 162.97792811 148 158 C147.319375 158.03480469 146.63875 158.06960937 145.9375 158.10546875 C119.02441653 158.85703092 93.27689582 147.13988424 73.8125 129.0625 C64.1050741 119.82640427 55.59804618 109.29319688 50 97 C50 96.34 50 95.68 50 95 C48.75347656 94.88914062 47.50695312 94.77828125 46.22265625 94.6640625 C40.51148505 94.02466085 35.01313429 92.74103479 29.4375 91.375 C27.81352295 90.97958008 27.81352295 90.97958008 26.15673828 90.57617188 C-20.23259417 79.10144634 -20.23259417 79.10144634 -30 70 C-36.20964688 59.65058853 -34.2809909 46.20074943 -31.50683594 35.01074219 C-27.84716092 21.68795389 -22.07048539 11.54784763 -10.11328125 4.234375 C-2.54483061 0 -2.54483061 0 0 0 Z " fill="#B24E10" transform="translate(38,47)"/>
<path d="M0 0 C7.03724459 3.67885848 13.67859786 7.86141241 20.125 12.5 C21.09824219 13.19867188 22.07148438 13.89734375 23.07421875 14.6171875 C42.01954228 28.53518988 58.61922056 44.18032166 72.125 63.5 C72.5669873 64.12438965 73.00897461 64.7487793 73.46435547 65.39208984 C79.21062798 73.69625016 81.98455621 81.27876588 80.125 91.5 C76.01317758 101.49835239 66.61992426 108.75253787 57.125 113.5 C54.40234375 113.80859375 54.40234375 113.80859375 51.0625 113.9375 C49.97839844 113.99808594 48.89429688 114.05867188 47.77734375 114.12109375 C39.71657303 112.75033167 33.51920629 106.33811245 27.94042969 100.68774414 C27.28390411 100.03486923 26.62737854 99.38199432 25.95095825 98.70933533 C23.80883288 96.5752363 21.67764643 94.43058677 19.546875 92.28515625 C18.04765099 90.78541278 16.54790656 89.28618937 15.04766846 87.78746033 C11.9163521 84.6560546 8.79023491 81.51957939 5.66796875 78.37915039 C1.67644356 74.3649102 -2.32609135 70.3618684 -6.3323555 66.36234379 C-9.42633627 63.27171223 -12.51529272 60.17609896 -15.60268402 57.07888603 C-17.07647853 55.6012579 -18.5516051 54.12495707 -20.02811432 52.65004158 C-22.09306049 50.5854684 -24.15135779 48.51448384 -26.20800781 46.44165039 C-27.11360947 45.53976486 -27.11360947 45.53976486 -28.0375061 44.61965942 C-34.60965241 37.96525166 -38.89882285 32.40228849 -39.3125 22.8125 C-39.2476 16.14402503 -37.1823919 12.44446753 -32.875 7.5 C-32.32199219 6.8503125 -31.76898438 6.200625 -31.19921875 5.53125 C-21.86313124 -4.59894151 -12.14011905 -6.06291828 0 0 Z " fill="#EE7F38" transform="translate(373.875,59.5)"/>
<path d="M0 0 C1.75183594 -0.01836914 1.75183594 -0.01836914 3.5390625 -0.03710938 C10.48226137 -0.04878516 16.88532391 0.48765314 23.625 2.1875 C22.861875 3.074375 22.09875 3.96125 21.3125 4.875 C20.75949219 5.52597656 20.20648438 6.17695313 19.63671875 6.84765625 C18.20042923 8.51821435 16.74211917 10.16994285 15.26953125 11.80859375 C-2.26265423 31.551388 -15.86112226 55.25130936 -25.52270508 79.75195312 C-26.02386841 80.9981543 -26.02386841 80.9981543 -26.53515625 82.26953125 C-26.82011963 83.00405518 -27.10508301 83.7385791 -27.39868164 84.49536133 C-28.375 86.1875 -28.375 86.1875 -31.375 87.1875 C-33.25 86.93725586 -33.25 86.93725586 -35.375 86.40234375 C-36.17019043 86.20455322 -36.96538086 86.0067627 -37.78466797 85.80297852 C-38.63947754 85.57924561 -39.49428711 85.3555127 -40.375 85.125 C-41.26203613 84.89675537 -42.14907227 84.66851074 -43.06298828 84.43334961 C-85.87352479 73.21709518 -85.87352479 73.21709518 -92.453125 62.41796875 C-96.67219842 53.00176397 -94.2028549 41.90724192 -92.375 32.1875 C-92.30796875 31.34832031 -92.2409375 30.50914063 -92.171875 29.64453125 C-91.72673695 26.83338772 -91.1554127 25.43124901 -89.375 23.1875 C-64.8923143 6.91836047 -28.97172879 0.01588362 0 0 Z " fill="#E26415" transform="translate(127.375,22.8125)"/>
<path d="M0 0 C8.80859649 13.21289474 3.21859732 40.42377873 0.32421875 55.08984375 C-3.23782501 71.58038147 -8.43527345 87.47985006 -15.13476562 102.95458984 C-15.8972576 104.75711742 -16.58737325 106.58989611 -17.265625 108.42578125 C-18.30397935 111.0106986 -19.10632417 112.9606568 -21 115 C-24.39226913 116.13266322 -27.46016054 116.0479076 -31 116 C-31.89847656 116.15855469 -32.79695313 116.31710937 -33.72265625 116.48046875 C-37.99787035 117.15818445 -42.17801543 117.22311363 -46.5 117.25 C-47.32886719 117.270625 -48.15773438 117.29125 -49.01171875 117.3125 C-54.09002985 117.34479451 -57.73685155 117.04168457 -62 114 C-67.45594273 108.4480834 -69.79267771 101.99908798 -72.0625 94.6875 C-72.39902588 93.63804199 -72.73555176 92.58858398 -73.08227539 91.50732422 C-77.10253389 78.79849267 -80.92556218 66.32302902 -82 53 C-82.66 52.67 -83.32 52.34 -84 52 C-83.08226807 51.63986816 -83.08226807 51.63986816 -82.14599609 51.27246094 C-51.83883797 39.27599507 -22.92466012 23.59476556 0 0 Z " fill="#E26415" transform="translate(486,361)"/>
<path d="M0 0 C-0.88300781 0.61746094 -1.76601563 1.23492188 -2.67578125 1.87109375 C-13.43369142 9.44186566 -23.52750376 17.51063333 -33.19921875 26.4453125 C-35.33765676 28.39585428 -37.49821153 30.29514245 -39.69042969 32.18334961 C-43.87473996 35.84115175 -47.83116466 39.6862952 -51.75390625 43.62109375 C-52.45845444 44.32468521 -53.16300262 45.02827667 -53.88890076 45.75318909 C-55.36653367 47.23014648 -56.84292457 48.70834742 -58.31811523 50.18774414 C-60.55666481 52.43165085 -62.80050473 54.67016704 -65.04492188 56.90820312 C-66.48990404 58.35384618 -67.93457592 59.79979945 -69.37890625 61.24609375 C-70.03951553 61.9046788 -70.70012482 62.56326385 -71.38075256 63.24180603 C-75.23194021 67.11213116 -78.90370993 71.08942368 -82.46583557 75.22772217 C-84.70645181 77.81609824 -87.04159836 80.30742166 -89.375 82.8125 C-93.72324662 87.51375185 -97.81271219 92.37249334 -101.828125 97.36328125 C-103.93756349 99.92420028 -106.12887648 102.37123455 -108.375 104.8125 C-112.41345813 109.24358601 -116.10238396 113.87880988 -119.77075195 118.61425781 C-122.93631853 122.6868651 -126.20393416 126.64802543 -129.5625 130.5625 C-134.39345412 136.21455548 -138.96934897 142.03647501 -143.45556641 147.96533203 C-145.31022216 150.40869294 -147.17652158 152.84297878 -149.04296875 155.27734375 C-150.48710719 157.16396451 -151.93111727 159.05068353 -153.375 160.9375 C-154.06553467 161.83791016 -154.75606934 162.73832031 -155.4675293 163.66601562 C-158.79541338 168.02548264 -162.0349044 172.3850948 -165 177 C-166 175 -166 175 -165.32250977 172.91552734 C-164.94924561 172.0642627 -164.57598145 171.21299805 -164.19140625 170.3359375 C-163.77850342 169.3871875 -163.36560059 168.4384375 -162.94018555 167.4609375 C-162.48554932 166.44257813 -162.03091309 165.42421875 -161.5625 164.375 C-160.86797729 162.80492187 -160.86797729 162.80492187 -160.15942383 161.203125 C-140.45176391 116.98735192 -113.58874782 76.72122442 -81 41 C-80.091915 39.98745685 -79.18438828 38.97441282 -78.27734375 37.9609375 C-73.80220546 32.98426843 -69.31331552 28.16899437 -64.1796875 23.85546875 C-61.28371832 21.39026201 -58.48782033 18.82280218 -55.6875 16.25 C-54.91321655 15.54121704 -54.91321655 15.54121704 -54.12329102 14.81811523 C-51.26751097 12.21307087 -51.26751097 12.21307087 -48.59922791 9.42059326 C-46.66506389 7.70247643 -45.29641759 7.34591509 -42.77563477 6.81738281 C-41.92787979 6.63419495 -41.08012482 6.45100708 -40.2066803 6.26226807 C-39.29413986 6.07775085 -38.38159943 5.89323364 -37.44140625 5.703125 C-36.50070786 5.50523376 -35.56000946 5.30734253 -34.59080505 5.10345459 C-32.60228646 4.68798231 -30.61258314 4.27814619 -28.62182617 3.87353516 C-25.57459433 3.252465 -22.53243683 2.61004757 -19.49023438 1.96484375 C-17.55755764 1.56382021 -15.62462267 1.16403875 -13.69140625 0.765625 C-12.78089005 0.57301086 -11.87037384 0.38039673 -10.93226624 0.1819458 C-10.0813591 0.01136658 -9.23045197 -0.15921265 -8.35375977 -0.33496094 C-7.60780045 -0.48801697 -6.86184113 -0.641073 -6.09327698 -0.79876709 C-3.81385821 -1.01789436 -2.17236898 -0.68087602 0 0 Z " fill="#FEC85B" transform="translate(353,27)"/>
<path d="M0 0 C1.3472294 4.04168821 0.34742599 7.27143542 -0.51171875 11.32421875 C-0.68121536 12.14445023 -0.85071198 12.9646817 -1.02534485 13.80976868 C-1.38719479 15.54808238 -1.75312517 17.28555091 -2.12280273 19.0222168 C-2.68110332 21.65730867 -3.21925039 24.29596404 -3.75585938 26.93554688 C-4.11075341 28.62786168 -4.46683649 30.31992766 -4.82421875 32.01171875 C-4.9817009 32.79222092 -5.13918304 33.57272308 -5.30143738 34.37687683 C-6.78531098 41.20524267 -9.18685907 47.61907044 -14.13671875 52.7109375 C-14.7095459 53.31099609 -15.28237305 53.91105469 -15.87255859 54.52929688 C-16.77095459 55.44291992 -16.77095459 55.44291992 -17.6875 56.375 C-18.9448305 57.68410868 -20.20134076 58.99400565 -21.45703125 60.3046875 C-22.06498535 60.9347168 -22.67293945 61.56474609 -23.29931641 62.21386719 C-25.55738215 64.58538728 -27.71726285 67.03724241 -29.875 69.5 C-32.97084576 72.95872878 -36.1782389 76.05173868 -39.7265625 79.0390625 C-42.0383481 81.03307688 -44.26027944 83.10891646 -46.48071289 85.20361328 C-53.08279785 91.41261196 -59.95243896 97.11926875 -67.16552734 102.60253906 C-69.03146121 104.02396646 -70.8849973 105.46056962 -72.73828125 106.8984375 C-83.1038364 114.87507666 -93.93193848 122.0393095 -105 129 C-105.63695801 129.40283203 -106.27391602 129.80566406 -106.93017578 130.22070312 C-124.21671173 141.09008586 -142.37132918 150.59751444 -161 158.9375 C-162.16950195 159.46384033 -163.33900391 159.99018066 -164.54394531 160.5324707 C-166.16187988 161.24149536 -166.16187988 161.24149536 -167.8125 161.96484375 C-168.76769531 162.3837085 -169.72289062 162.80257324 -170.70703125 163.23413086 C-171.46371094 163.48686768 -172.22039062 163.73960449 -173 164 C-173.66 163.67 -174.32 163.34 -175 163 C-166.37479969 156.24801009 -157.74072282 149.51889139 -148.9375 143 C-141.02303811 137.12077022 -133.43953218 130.86811904 -125.87011719 124.55419922 C-123.3673004 122.47418203 -120.84023797 120.42461745 -118.3125 118.375 C-112.38866285 113.53391858 -106.59725854 108.54259324 -100.80273438 103.54833984 C-99.02514087 102.02159309 -97.24047985 100.50358292 -95.453125 98.98828125 C-88.04921109 92.70188116 -80.85049978 86.24441884 -73.75512695 79.61157227 C-72.5008712 78.45990413 -71.23203549 77.32403363 -69.95385742 76.19897461 C-62.32048134 69.46354879 -55.14376631 62.29555474 -47.95825195 55.08862305 C-45.80988134 52.93487478 -43.65619306 50.78654774 -41.50195312 48.63867188 C-40.11165832 47.24771646 -38.72167364 45.85645097 -37.33203125 44.46484375 C-36.38333916 43.519188 -36.38333916 43.519188 -35.41548157 42.5544281 C-31.08061987 38.19708719 -27.00325709 33.66247607 -23 29 C-22.31836288 28.2176725 -22.31836288 28.2176725 -21.62295532 27.41954041 C-13.95256201 18.61357492 -6.91726823 9.40410462 0 0 Z " fill="#FEC85B" transform="translate(485,160)"/>
<path d="M0 0 C0.495 0.99 0.495 0.99 1 2 C0.55011719 2.37769531 0.10023438 2.75539063 -0.36328125 3.14453125 C-9.25677039 10.7547915 -17.45201626 19.05951611 -25 28 C-25.83144531 28.96550781 -26.66289062 29.93101563 -27.51953125 30.92578125 C-33.42477116 37.80368594 -39.08911847 44.83466524 -44.546875 52.07421875 C-46.1819931 54.24118978 -47.8257027 56.40153562 -49.46875 58.5625 C-62.05289376 75.16710537 -73.87763571 92.23504959 -85.4375 109.5625 C-85.86251801 110.19943787 -86.28753601 110.83637573 -86.72543335 111.49261475 C-91.91016585 119.27052995 -97.02031533 127.08845605 -102 135 C-103.12868795 131.61393614 -102.86758102 130.7380674 -101.8828125 127.4140625 C-101.61025635 126.49375244 -101.3377002 125.57344238 -101.05688477 124.62524414 C-100.59560181 123.14012329 -100.59560181 123.14012329 -100.125 121.625 C-99.80909912 120.60075928 -99.49319824 119.57651855 -99.16772461 118.52124023 C-94.03772029 102.36303181 -86.92221889 86.96673531 -79 72 C-78.66033203 71.35256836 -78.32066406 70.70513672 -77.97070312 70.03808594 C-69.58703921 54.18406228 -59.34233185 39.78648895 -47.29150391 26.50830078 C-45.79429739 24.81937062 -45.79429739 24.81937062 -43.99609375 22.01171875 C-39.8826601 17.05824621 -33.25185863 15.02524278 -27.5 12.5 C-26.28320947 11.95325545 -25.06705777 11.40508684 -23.8515625 10.85546875 C-21.44272831 9.77019829 -19.03128412 8.69070118 -16.6171875 7.6171875 C-11.05407559 5.13000788 -5.52678376 2.56683262 0 0 Z " fill="#FEC85B" transform="translate(192,5)"/>
<path d="M0 0 C0.99 0.495 0.99 0.495 2 1 C1.45996338 2.10512939 0.91992676 3.21025879 0.36352539 4.34887695 C-1.63803151 8.44610431 -3.63713578 12.54452423 -5.63549805 16.64331055 C-6.5010389 18.4177261 -7.36724614 20.19181677 -8.23413086 21.96557617 C-9.47945339 24.51396086 -10.72238128 27.06350116 -11.96484375 29.61328125 C-12.35341049 30.40712723 -12.74197723 31.20097321 -13.14231873 32.01887512 C-13.50261673 32.75941635 -13.86291473 33.49995758 -14.23413086 34.26293945 C-14.55167831 34.91357864 -14.86922577 35.56421783 -15.19639587 36.23457336 C-16.11611723 38.17299222 -16.11611723 38.17299222 -17 41 C-18.390625 42.4375 -18.390625 42.4375 -20.25 44 C-22.75650871 46.11004864 -25.24560476 48.22057953 -27.68359375 50.41015625 C-54.20164536 74.03258407 -86.99342569 89.37265729 -120.5 100.25 C-121.41974609 100.55010986 -122.33949219 100.85021973 -123.28710938 101.15942383 C-124.13080078 101.42134521 -124.97449219 101.6832666 -125.84375 101.953125 C-126.57787109 102.18161133 -127.31199219 102.41009766 -128.06835938 102.64550781 C-130 103 -130 103 -133 102 C-132.4330542 101.64397705 -131.8661084 101.2879541 -131.28198242 100.92114258 C-117.98820805 92.55752741 -104.88088103 83.98646458 -92 75 C-91.28537598 74.50290527 -90.57075195 74.00581055 -89.83447266 73.49365234 C-69.45557158 59.29811304 -49.49683101 44.58807315 -30.64746094 28.40478516 C-28.9759842 26.9795218 -27.29063449 25.57231697 -25.6015625 24.16796875 C-16.55563877 16.60082811 -8.23234553 8.43988365 0 0 Z " fill="#FEC85B" transform="translate(505,320)"/>
</svg>
