<?xml version="1.0" encoding="UTF-8"?>
<svg version="1.1" xmlns="http://www.w3.org/2000/svg" width="512" height="512">
<path d="M0 0 C2.54037779 3.24660281 3.39498891 6.47589156 4.203125 10.43359375 C4.44289063 11.48836914 4.44289063 11.48836914 4.6875 12.56445312 C5.13116024 14.5368926 5.54311444 16.51638588 5.953125 18.49609375 C6.14777344 19.38425781 6.34242188 20.27242187 6.54296875 21.1875 C7.47594827 26.43884186 7.84330035 31.50379654 5.640625 36.43359375 C-0.84679893 41.41231444 -10.75753373 42.14272733 -18.67138672 43.625 C-19.66957932 43.81569061 -20.66777191 44.00638123 -21.69621277 44.20285034 C-23.84121499 44.61222294 -25.98657487 45.01972525 -28.13225937 45.42550659 C-31.52955524 46.06862544 -34.92558045 46.71809909 -38.32131958 47.36938477 C-47.9682997 49.21881047 -57.61691932 51.05951435 -67.26757812 52.88964844 C-73.1886893 54.01297816 -79.10791644 55.14581203 -85.02606583 56.28463745 C-87.27642601 56.71568434 -89.52749251 57.14306071 -91.77926254 57.56668091 C-94.92086791 58.15792394 -98.05994413 58.76118364 -101.19873047 59.3671875 C-102.12659866 59.53870331 -103.05446686 59.71021912 -104.01045227 59.88693237 C-108.5451315 60.77559862 -112.31048061 61.60580285 -116.046875 64.49609375 C-118.36809475 67.97792337 -118.57507842 70.15003153 -119.08203125 74.28125 C-119.16561386 74.93814316 -119.24919647 75.59503632 -119.33531189 76.27183533 C-119.60082285 78.36656353 -119.85573504 80.46239775 -120.109375 82.55859375 C-120.36806412 84.65813097 -120.62902982 86.75732879 -120.89414978 88.85606384 C-121.13368845 90.75767299 -121.36596718 92.66019241 -121.59790039 94.56274414 C-122.046875 97.49609375 -122.046875 97.49609375 -123.046875 99.49609375 C-122.2202665 99.49194568 -122.2202665 99.49194568 -121.37695885 99.48771381 C-107.95580384 99.42140322 -94.53467761 99.37198015 -81.11339378 99.34065723 C-74.62289705 99.32500042 -68.13251854 99.3037615 -61.64208984 99.26977539 C-55.37864647 99.23718305 -49.11531683 99.21924085 -42.8517952 99.21146202 C-40.46198359 99.20591834 -38.07217821 99.19509296 -35.68241501 99.17890358 C-32.33550303 99.15713147 -28.98906123 99.1541268 -25.64208984 99.15551758 C-24.65378174 99.14473175 -23.66547363 99.13394592 -22.6472168 99.12283325 C-16.45300737 99.15069097 -12.07507987 99.91917903 -7.19897461 104.06860352 C-5.32090689 108.02571886 -5.59957523 112.01205345 -5.61328125 116.3359375 C-5.6080394 117.29504532 -5.60279755 118.25415314 -5.59739685 119.24232483 C-5.5909791 121.26888054 -5.59231044 123.29547352 -5.60083008 125.32202148 C-5.60933529 128.41913364 -5.58058267 131.51439838 -5.54882812 134.61132812 C-5.54721586 136.5820307 -5.54779413 138.55273653 -5.55078125 140.5234375 C-5.53954727 141.44752914 -5.52831329 142.37162079 -5.51673889 143.32371521 C-5.56216713 147.52527905 -5.65696328 149.86646042 -7.90966797 153.50415039 C-11.11428466 156.49095272 -14.70840935 158.47776344 -18.48828125 160.65234375 C-22.29160303 163.39305807 -23.77184129 166.09213868 -24.67288208 170.69165039 C-24.79259369 171.91746826 -24.9123053 173.14328613 -25.03564453 174.40625 C-25.14218007 175.44442368 -25.14218007 175.44442368 -25.25086784 176.50357056 C-25.48896484 178.85422712 -25.70913796 181.20623036 -25.9296875 183.55859375 C-26.10204338 185.29738783 -26.27550334 187.03607275 -26.44995117 188.7746582 C-26.93526763 193.6440831 -27.404888 198.51491843 -27.87210846 203.3861084 C-28.38000517 208.65537999 -28.90144541 213.92331198 -29.42138672 219.19140625 C-30.2574555 227.677646 -31.08767345 236.16443523 -31.91324043 244.65170288 C-33.78493066 263.89060673 -35.69420105 283.12570916 -37.60731232 302.36053276 C-38.87864319 315.14472021 -40.14502447 327.92939831 -41.41074944 340.71414185 C-41.6064943 342.69126389 -41.80223977 344.66838588 -41.99798584 346.64550781 C-42.09477965 347.62323843 -42.19157346 348.60096905 -42.29130042 349.60832787 C-42.97635729 356.52647503 -43.66344875 363.44441849 -44.35113525 370.36230469 C-45.2007167 378.91022978 -46.04611204 387.45855825 -46.88663888 396.00737858 C-47.32271695 400.44166792 -47.76055343 404.87576527 -48.20306396 409.30941772 C-48.61362381 413.42351119 -49.01910693 417.53807375 -49.42072463 421.65304947 C-49.56732635 423.14619254 -49.71572419 424.63916064 -49.86614633 426.13192368 C-50.68502592 434.26972975 -51.26387185 442.30975565 -51.046875 450.49609375 C-48.11215938 447.65030891 -45.37928532 444.7391761 -42.734375 441.62109375 C-26.44927168 423.11371621 -0.99947174 417.14208262 22.8359375 415.17578125 C31.22880453 414.89414142 31.22880453 414.89414142 34.2421875 417.3984375 C38.30204139 422.3759296 36.8369933 428.14269427 36.23046875 434.18798828 C33.48144289 457.06588485 27.29416337 481.22855364 8.953125 496.49609375 C-5.42509817 507.36753766 -20.08954869 512.170117 -38.046875 510.49609375 C-41.40699672 509.58597092 -44.10387394 508.32048807 -47.046875 506.49609375 C-48.37551384 505.8201196 -49.7076944 505.15093537 -51.046875 504.49609375 C-51.913125 505.11484375 -52.779375 505.73359375 -53.671875 506.37109375 C-59.73018489 510.18558516 -64.86263105 510.79105044 -71.82537842 510.77024841 C-72.69732951 510.77548509 -73.56928061 510.78072177 -74.46765447 510.78611714 C-77.3831054 510.80109286 -80.29838046 510.80182176 -83.21386719 510.80249023 C-85.3068776 510.81011337 -87.39988521 510.81854113 -89.4928894 510.82771301 C-95.17484793 510.84965017 -100.85675265 510.85845593 -106.53874874 510.86353946 C-110.09040654 510.86718407 -113.64205027 510.8734247 -117.1937027 510.88054085 C-129.58942788 510.90503301 -141.98511123 510.91808666 -154.38085938 510.92163086 C-165.9268261 510.92526552 -177.47252689 510.95515672 -189.01841235 510.99703544 C-198.93793737 511.03175098 -208.85737431 511.04717952 -218.77695966 511.04787689 C-224.69843054 511.04866929 -230.61963052 511.05739137 -236.54103851 511.08587456 C-242.11272938 511.11207639 -247.68392514 511.11424823 -253.25564957 511.09821892 C-255.29618791 511.09640612 -257.33675485 511.1030798 -259.3772316 511.11903763 C-279.87688522 511.26953515 -279.87688522 511.26953515 -287.046875 505.49609375 C-294.79192898 497.43312419 -295.43333797 488.52187252 -296.45753479 477.79421997 C-296.5851282 476.51235365 -296.7127216 475.23048733 -296.84418148 473.90977657 C-297.19700198 470.36342838 -297.54175921 466.81633612 -297.88517988 463.26906705 C-298.25742195 459.43893377 -298.63718017 455.60954492 -299.01602173 451.78005981 C-299.67118719 445.14696678 -300.32162097 438.51342352 -300.96884346 431.87955093 C-301.90558827 422.27832535 -302.84962598 412.67782776 -303.79544746 403.07749258 C-305.3311433 387.48786308 -306.86113208 371.89767904 -308.38745117 356.30712891 C-309.86778693 341.18641661 -311.35050903 326.06594172 -312.83666992 310.94580078 C-312.92817593 310.01481186 -313.01968195 309.08382294 -313.11396087 308.12462224 C-313.66422765 302.52640775 -314.21459633 296.92820328 -314.76500948 291.33000317 C-315.56738274 283.16913814 -316.36966763 275.00826443 -317.17185974 266.84738159 C-317.25821926 265.96886177 -317.34457877 265.09034195 -317.43355524 264.18520032 C-318.62836713 252.03003013 -319.821253 239.87467233 -321.01255085 227.71915725 C-321.48940903 222.85398702 -321.96654386 217.98884391 -322.44366354 213.12369932 C-322.88581481 208.61466722 -323.32745859 204.1055858 -323.76870069 199.59646464 C-323.97267858 197.51289952 -324.17691997 195.42936043 -324.38127941 193.34583271 C-324.62655356 190.84511555 -324.87141318 188.34435768 -325.11575133 185.84354889 C-325.42176187 182.72727565 -325.73342321 179.61162577 -326.046875 176.49609375 C-326.13290352 175.6051935 -326.21893203 174.71429325 -326.30756748 173.79639602 C-326.90882832 167.65687134 -326.90882832 167.65687134 -330.046875 162.49609375 C-333.24005138 160.33539161 -336.54668703 158.52407048 -339.91796875 156.65625 C-343.51448725 154.17326032 -344.98632407 152.34809484 -347.046875 148.49609375 C-347.60438946 145.44609193 -347.60848831 142.46543226 -347.578125 139.37109375 C-347.58386536 138.07341064 -347.58386536 138.07341064 -347.58972168 136.74951172 C-347.59243365 134.92739696 -347.58512266 133.10524279 -347.56835938 131.28320312 C-347.54693841 128.50432006 -347.56818422 125.72802202 -347.59375 122.94921875 C-347.5911066 121.17317141 -347.58598135 119.39712568 -347.578125 117.62109375 C-347.58622192 116.79593262 -347.59431885 115.97077148 -347.60266113 115.12060547 C-347.51678117 109.80098662 -346.66559505 106.65126501 -343.046875 102.49609375 C-338.95258873 99.43427452 -335.93704987 99.12432397 -330.87785339 99.1353302 C-329.81176337 99.13148529 -329.81176337 99.13148529 -328.72413617 99.1275627 C-326.34865435 99.12263123 -323.97381169 99.13910663 -321.59838867 99.15551758 C-319.89323949 99.15636399 -318.18808922 99.15588843 -316.48294067 99.15419006 C-311.85725537 99.15332924 -307.2318034 99.17096917 -302.60617232 99.19191194 C-297.77085156 99.21066413 -292.93552547 99.21242803 -288.10017395 99.21598816 C-278.94526132 99.2253129 -269.79045616 99.24993252 -260.63559085 99.28003663 C-250.21247191 99.31356725 -239.78934785 99.33006329 -229.36618841 99.34512293 C-207.92635729 99.37648167 -186.48662292 99.42925055 -165.046875 99.49609375 C-164.98272305 98.63118285 -164.91857111 97.76627195 -164.85247517 96.87515163 C-164.76591254 95.72577649 -164.67934992 94.57640135 -164.59016418 93.39219666 C-164.50538724 92.25916076 -164.42061029 91.12612486 -164.33326435 89.95875454 C-163.58139941 80.86814684 -162.34589011 71.82136032 -161.20043945 62.77368164 C-160.88826399 60.285272 -160.58298713 57.79598773 -160.28442383 55.3059082 C-159.84953094 51.68100825 -159.39391255 48.05924821 -158.93359375 44.4375 C-158.80425949 43.32806534 -158.67492523 42.21863068 -158.54167175 41.07557678 C-158.33674858 39.51751564 -158.33674858 39.51751564 -158.12768555 37.92797852 C-158.01522995 37.02120865 -157.90277435 36.11443878 -157.78691101 35.18019104 C-156.80259903 31.61010921 -155.42894062 29.33507116 -153.046875 26.49609375 C-150.14350891 25.23345947 -150.14350891 25.23345947 -146.55200195 24.47363281 C-145.52369876 24.24704168 -145.52369876 24.24704168 -144.47462177 24.01587296 C-142.00374157 23.48171702 -139.5263569 22.9887377 -137.046875 22.49609375 C-135.00882423 22.07494249 -132.97094174 21.65297633 -130.93319702 21.23034668 C-124.27916133 19.86469185 -117.61570054 18.54925251 -110.94954085 17.24421978 C-108.94578465 16.85173556 -106.9422479 16.45814942 -104.93877602 16.06421661 C-97.92432845 14.68514938 -90.90898291 13.31075364 -83.89282227 11.94042969 C-77.38917347 10.67006067 -70.88774535 9.38874051 -64.38721484 8.10251975 C-58.76697396 6.99102641 -53.14518951 5.88758602 -47.52217656 4.79020333 C-44.18044747 4.13787586 -40.83942277 3.48237547 -37.49995995 2.81853485 C-33.7794083 2.08109165 -30.05650784 1.35686612 -26.33276367 0.63574219 C-25.24730759 0.41760864 -24.1618515 0.1994751 -23.04350281 -0.02526855 C-6.46634977 -3.19172392 -6.46634977 -3.19172392 0 0 Z " fill="#FEBD86" transform="translate(411.046875,1.50390625)"/>
<path d="M0 0 C0.90143234 -0.00571014 1.80286469 -0.01142029 2.73161316 -0.01730347 C3.72847137 -0.01842133 4.72532959 -0.01953918 5.75239563 -0.02069092 C6.79628952 -0.02565582 7.84018341 -0.03062073 8.91571045 -0.03573608 C12.38772733 -0.05040461 15.85969849 -0.05716847 19.33174133 -0.06268311 C21.73732505 -0.06843193 24.14290875 -0.07418969 26.54849243 -0.07995605 C31.60181391 -0.09048023 36.65511941 -0.09631321 41.70845032 -0.09979248 C48.18395659 -0.10527168 54.65925199 -0.12928167 61.13469219 -0.15776443 C66.10781468 -0.17639144 71.08088648 -0.18159652 76.05404091 -0.18312836 C78.44105491 -0.18615667 80.82806798 -0.19419117 83.21504784 -0.20731354 C86.55708677 -0.22437038 89.89861206 -0.22249407 93.24067688 -0.21600342 C94.22741394 -0.2252182 95.214151 -0.23443298 96.23078918 -0.243927 C102.41708333 -0.20629594 106.79842151 0.56914681 111.66792297 4.71295166 C113.54599069 8.67006701 113.26732235 12.65640159 113.25361633 16.98028564 C113.25885818 17.93939346 113.26410004 18.89850128 113.26950073 19.88667297 C113.27591848 21.91322869 113.27458714 23.93982166 113.2660675 25.96636963 C113.25756229 29.06348178 113.28631491 32.15874652 113.31806946 35.25567627 C113.31968173 37.22637884 113.31910345 39.19708468 113.31611633 41.16778564 C113.32735031 42.09187729 113.33858429 43.01596893 113.35015869 43.96806335 C113.30470688 48.17180684 113.20976008 50.51137221 110.95503235 54.1506958 C107.78132174 57.1084707 104.22782879 59.06044248 100.47627258 61.19903564 C97.60947001 63.00395848 97.60947001 63.00395848 96.14326477 66.22515869 C93.82002258 69.14044189 93.82002258 69.14044189 90.24482727 69.82159424 C88.82682912 69.82064977 87.40859733 69.78705451 85.99189758 69.72637939 C85.24289185 69.71788971 84.49388611 69.70940002 83.72218323 69.70065308 C81.33664789 69.6671412 78.95453046 69.59188076 76.57002258 69.51544189 C74.95027985 69.48533876 73.33048396 69.45796354 71.71064758 69.43341064 C67.74590752 69.37247714 63.78344702 69.25875737 59.82002258 69.14044189 C59.75734271 69.9822562 59.75734271 69.9822562 59.69339657 70.84107685 C58.16585311 91.11976278 56.21389263 111.35167327 54.23017883 131.58966064 C54.05750918 133.35312202 53.8848401 135.11658345 53.71217155 136.88004494 C52.99441959 144.2063096 52.27535776 151.53244369 51.55277348 158.85823345 C50.52486503 169.28009914 49.50516798 179.70269681 48.49641901 190.12643498 C47.78109921 197.51123884 47.05668538 204.89511636 46.32547468 212.27836353 C45.89082224 216.66957793 45.46012543 221.06109458 45.039217 225.45364952 C44.64492843 229.56634042 44.23938627 233.67776655 43.82518196 237.78849792 C43.67552131 239.29333045 43.52991968 240.79857317 43.3887291 242.30422401 C43.19509794 244.36240813 42.98674707 246.41859847 42.77474976 248.47496033 C42.66212327 249.62422847 42.54949678 250.77349661 42.43345737 251.95759106 C41.4101539 257.26707526 39.32157163 261.17426666 35.17158508 264.62091064 C34.4655011 265.20791748 33.75941711 265.79492432 33.03193665 266.39971924 C29.48994119 269.18718365 25.87317305 271.84838981 22.19502258 274.45294189 C15.45984972 279.21614148 15.45984972 279.21614148 8.89033508 284.20294189 C-1.51875635 292.30510831 -1.51875635 292.30510831 -8.89872742 291.98028564 C-15.44432151 289.5705207 -19.07678715 283.87121376 -22.80497742 278.32794189 C-23.84568266 276.81336325 -24.88871723 275.30038295 -25.93388367 273.78887939 C-26.46513855 273.02027588 -26.99639343 272.25167236 -27.54374695 271.45977783 C-30.65755124 267.04599974 -33.95216345 262.7653587 -37.2585907 258.49468994 C-40.79377033 253.86649913 -43.78297564 249.56656383 -44.74247742 243.70294189 C-43.98206848 238.88701865 -41.70213869 236.38837163 -38.17997742 233.14044189 C-36.69497742 232.15044189 -36.69497742 232.15044189 -35.17997742 231.14044189 C-34.46530746 228.79342212 -34.46530746 228.79342212 -34.17216492 225.91387939 C-34.01586609 224.73922119 -33.85956726 223.56456299 -33.6985321 222.35430908 C-33.57568848 221.35506409 -33.57568848 221.35506409 -33.45036316 220.33563232 C-33.15589118 217.9448921 -32.84325244 215.55692957 -32.52861023 213.16876221 C-31.90373452 208.396534 -31.2962913 203.62224627 -30.69386292 198.84713745 C-30.29714745 195.70339387 -29.89816745 192.55994481 -29.49858093 189.41656494 C-28.84119152 184.24394632 -28.18511834 179.07116205 -27.52952576 173.89831543 C-25.34366962 156.65230363 -23.09480904 139.41841324 -20.67997742 122.20294189 C-17.76420584 101.41010837 -15.19652773 80.57919195 -12.68144226 59.73443604 C-12.59851929 59.04721466 -12.51559631 58.35999329 -12.43016052 57.65194702 C-12.26424695 56.276532 -12.0984337 54.90110488 -11.932724 53.52566528 C-10.66562947 43.01618801 -9.34913977 32.51373068 -7.99247742 22.01544189 C-7.82554382 20.72307617 -7.65861023 19.43071045 -7.48661804 18.09918213 C-7.05537614 14.77901878 -6.6181108 11.45970086 -6.17997742 8.14044189 C-6.081203 7.3557251 -5.98242859 6.5710083 -5.88066101 5.76251221 C-5.2259728 0.74620215 -5.06356981 0.01912167 0 0 Z " fill="#FEBC85" transform="translate(292.1799774169922,100.85955810546875)"/>
<path d="M0 0 C2.54037779 3.24660281 3.39498891 6.47589156 4.203125 10.43359375 C4.44289063 11.48836914 4.44289063 11.48836914 4.6875 12.56445312 C5.13116024 14.5368926 5.54311444 16.51638588 5.953125 18.49609375 C6.14777344 19.38425781 6.34242188 20.27242187 6.54296875 21.1875 C7.47594827 26.43884186 7.84330035 31.50379654 5.640625 36.43359375 C-0.84679893 41.41231444 -10.75753373 42.14272733 -18.67138672 43.625 C-20.16867561 43.91103592 -20.16867561 43.91103592 -21.69621277 44.20285034 C-23.84121499 44.61222294 -25.98657487 45.01972525 -28.13225937 45.42550659 C-31.52955524 46.06862544 -34.92558045 46.71809909 -38.32131958 47.36938477 C-47.9682997 49.21881047 -57.61691932 51.05951435 -67.26757812 52.88964844 C-73.1886893 54.01297816 -79.10791644 55.14581203 -85.02606583 56.28463745 C-87.27642601 56.71568434 -89.52749251 57.14306071 -91.77926254 57.56668091 C-94.92086791 58.15792394 -98.05994413 58.76118364 -101.19873047 59.3671875 C-102.12659866 59.53870331 -103.05446686 59.71021912 -104.01045227 59.88693237 C-108.5451315 60.77559862 -112.31048061 61.60580285 -116.046875 64.49609375 C-118.32754665 67.91710123 -118.55014688 69.94883843 -119.046875 74 C-119.211875 75.29873047 -119.376875 76.59746094 -119.546875 77.93554688 C-119.71406851 79.30983184 -119.88073189 80.6841814 -120.046875 82.05859375 C-120.99304728 89.74347153 -121.94888189 97.36717701 -123.55566406 104.94458008 C-124.61361169 110.43991342 -125.22734168 116.0079681 -125.921875 121.55859375 C-126.09631028 122.93231792 -126.27095734 124.30601522 -126.44580078 125.6796875 C-127.72619604 135.77825355 -128.94703303 145.88395389 -130.16156006 155.9906311 C-133.40742787 182.97449317 -136.81138043 209.94338603 -140.58032227 236.859375 C-141.94494544 246.6470171 -143.2252871 256.44442991 -144.484375 266.24609375 C-144.58869843 267.05439636 -144.69302185 267.86269897 -144.80050659 268.69549561 C-146.05578016 278.43188602 -147.25086258 288.17290122 -148.37109375 297.92578125 C-148.69897699 300.74342556 -149.02755844 303.56098779 -149.35623169 306.37854004 C-149.66615949 309.07143298 -149.96298563 311.76556569 -150.25952148 314.45996094 C-150.45103879 316.11009828 -150.6431465 317.76016724 -150.8359375 319.41015625 C-150.91394089 320.15731903 -150.99194427 320.90448181 -151.0723114 321.67428589 C-151.68372447 326.74495394 -152.89992925 330.42925791 -156.6171875 334.0078125 C-157.13023437 334.39582031 -157.64328125 334.78382813 -158.171875 335.18359375 C-161.51176921 337.87003039 -161.9119969 338.39458926 -162.421875 342.55859375 C-162.04991048 346.46422123 -161.55493508 347.586519 -159.546875 350.74609375 C-154.15089154 359.83038238 -157.5646519 371.96816176 -159.01831055 381.94995117 C-159.36099016 384.31976346 -159.68400621 386.69173302 -160.00585938 389.06445312 C-160.22278157 390.59001154 -160.44084041 392.11540886 -160.66015625 393.640625 C-160.75404129 394.34073196 -160.84792633 395.04083893 -160.94465637 395.76216125 C-161.60613179 400.16484961 -162.73169576 403.68665821 -165.046875 407.49609375 C-169.77205433 410.6462133 -174.51569282 409.76201597 -180.046875 409.49609375 C-180.975 409.48578125 -181.903125 409.47546875 -182.859375 409.46484375 C-189.65540502 408.91167852 -194.63793001 405.89865697 -199.34231567 401.11231995 C-202.03084451 397.82090136 -203.41887413 395.48998377 -203.21704102 391.17016602 C-203.02549311 389.56783078 -202.80158361 387.96913518 -202.55078125 386.375 C-202.38248306 385.07123665 -202.38248306 385.07123665 -202.21078491 383.74113464 C-201.84957171 380.98840638 -201.44856455 378.2431713 -201.046875 375.49609375 C-200.81580625 373.75792059 -200.58797003 372.01931435 -200.36352539 370.28027344 C-199.78851105 365.87113015 -199.18024806 361.46737017 -198.55993652 357.06439209 C-196.3008742 341.02178071 -194.17654228 324.97097751 -192.34033203 308.87426758 C-190.46312261 292.74483658 -190.46312261 292.74483658 -188.046875 285.49609375 C-187.89292069 284.00045682 -187.78337402 282.50004345 -187.70068359 280.9987793 C-186.42505364 260.57966461 -183.73402515 240.38703311 -181.04351807 220.11499023 C-180.42786039 215.46596086 -179.81963997 210.81595986 -179.2109375 206.16601562 C-178.38126409 199.83271305 -177.54934091 193.49971511 -176.71407509 187.16714764 C-175.08797255 174.83777133 -173.49220225 162.50464448 -171.90722656 150.16992188 C-171.143811 144.23280547 -170.36746872 138.29743043 -169.58874512 132.36230469 C-167.77025645 118.49599577 -166.09303452 104.61444817 -164.43981934 90.72756958 C-163.66983996 84.27298246 -162.89179988 77.81936207 -162.11303711 71.36582947 C-161.55246936 66.71684036 -160.9948113 62.0676201 -160.45214844 57.41650391 C-159.95908488 53.19083722 -159.44243702 48.96845978 -158.921875 44.74609375 C-158.72078125 42.96513306 -158.72078125 42.96513306 -158.515625 41.14819336 C-158.37898438 40.07190674 -158.24234375 38.99562012 -158.1015625 37.88671875 C-157.93889893 36.52595215 -157.93889893 36.52595215 -157.77294922 35.13769531 C-156.8011539 31.6021118 -155.33458823 29.36602402 -153.046875 26.49609375 C-150.14350891 25.23345947 -150.14350891 25.23345947 -146.55200195 24.47363281 C-145.52369876 24.24704168 -145.52369876 24.24704168 -144.47462177 24.01587296 C-142.00374157 23.48171702 -139.5263569 22.9887377 -137.046875 22.49609375 C-135.00882423 22.07494249 -132.97094174 21.65297633 -130.93319702 21.23034668 C-124.27916133 19.86469185 -117.61570054 18.54925251 -110.94954085 17.24421978 C-108.94578465 16.85173556 -106.9422479 16.45814942 -104.93877602 16.06421661 C-97.92432845 14.68514938 -90.90898291 13.31075364 -83.89282227 11.94042969 C-77.38917347 10.67006067 -70.88774535 9.38874051 -64.38721484 8.10251975 C-58.76697396 6.99102641 -53.14518951 5.88758602 -47.52217656 4.79020333 C-44.18044747 4.13787586 -40.83942277 3.48237547 -37.49995995 2.81853485 C-33.7794083 2.08109165 -30.05650784 1.35686612 -26.33276367 0.63574219 C-25.24730759 0.41760864 -24.1618515 0.1994751 -23.04350281 -0.02526855 C-6.46634977 -3.19172392 -6.46634977 -3.19172392 0 0 Z " fill="#EA9B58" transform="translate(411.046875,1.50390625)"/>
<path d="M0 0 C1.63714966 0.33668701 1.63714966 0.33668701 3.30737305 0.68017578 C22.98999512 4.88025133 40.81132283 10.85004817 54 26.875 C54.34804688 27.79023438 54.69609375 28.70546875 55.0546875 29.6484375 C55.36664063 30.38320313 55.67859375 31.11796875 56 31.875 C58.04105639 32.76193303 58.04105639 32.76193303 60 32.875 C60.4846875 32.2459375 60.969375 31.616875 61.46875 30.96875 C63.60768007 28.23750083 65.78970622 25.54880426 68 22.875 C68.58910156 22.16085937 69.17820312 21.44671875 69.78515625 20.7109375 C84.76856314 4.17979407 111.61727115 -0.70421187 132.87109375 -2.44140625 C141.27000335 -2.73166957 141.27000335 -2.73166957 144.2890625 -0.22265625 C148.34891639 4.75483585 146.8838683 10.52160052 146.27734375 16.56689453 C143.52831789 39.4447911 137.34103837 63.60745989 119 78.875 C104.62177683 89.74644391 89.95732631 94.54902325 72 92.875 C68.63987828 91.96487717 65.94300106 90.69939432 63 88.875 C61.67136116 88.19902585 60.3391806 87.52984162 59 86.875 C58.13375 87.49375 57.2675 88.1125 56.375 88.75 C47.58586313 94.28390099 36.66537616 94.18455038 26.6796875 92.22265625 C23.66904546 91.28735012 20.87031385 90.17827764 18 88.875 C16.94296875 88.400625 15.8859375 87.92625 14.796875 87.4375 C-2.04873682 79.13444962 -13.61936551 65.5591368 -19.70019531 47.83398438 C-29.81844947 16.24881904 -29.81844947 16.24881904 -27 2.875 C-21.58017608 -6.15803986 -8.62998415 -1.79124254 0 0 Z " fill="#9AE69D" transform="translate(301,419.125)"/>
<path d="M0 0 C1.06609002 -0.00384491 1.06609002 -0.00384491 2.15371722 -0.0077675 C4.52919904 -0.01269897 6.9040417 0.00377643 9.27946472 0.02018738 C10.9846139 0.02103379 12.68976418 0.02055823 14.39491272 0.01885986 C19.02059802 0.01799904 23.64605 0.03563897 28.27168107 0.05658174 C33.10700183 0.07533393 37.94232793 0.07709783 42.77767944 0.08065796 C51.93259207 0.0899827 61.08739724 0.11460232 70.24226254 0.14470643 C80.66538148 0.17823705 91.08850554 0.19473309 101.51166499 0.20979273 C122.9514961 0.24115147 144.39123048 0.29392035 165.83097839 0.36076355 C165.67907349 2.40505156 165.5256082 4.44922364 165.37150574 6.49334717 C165.28621613 7.631708 165.20092651 8.77006884 165.11305237 9.94292545 C164.69360385 15.02530549 164.08694901 20.07832558 163.45597839 25.1381073 C163.32658875 26.19308914 163.1971991 27.24807098 163.06388855 28.33502197 C162.79297492 30.539167 162.52066588 32.74314094 162.24699402 34.94694519 C161.8289871 38.31430491 161.41557234 41.68220514 161.00285339 45.05021667 C160.7374946 47.20454636 160.47187878 49.3588444 160.20597839 51.5131073 C160.08303406 52.51317307 159.96008972 53.51323883 159.8334198 54.54360962 C159.71659851 55.48221329 159.59977722 56.42081696 159.47941589 57.38786316 C159.32738708 58.61478127 159.32738708 58.61478127 159.17228699 59.8664856 C158.78337052 62.70868118 158.30706485 65.53199599 157.83097839 68.36076355 C137.80375075 68.47747071 117.77659193 68.56568975 97.74909496 68.61982441 C88.4503462 68.64562616 79.1518085 68.68081414 69.85319519 68.73796082 C61.75023506 68.78773568 53.64742774 68.82004022 45.54431897 68.83120602 C41.25213383 68.83773489 36.96038593 68.85311987 32.66834068 68.88941383 C28.63077171 68.92328022 24.59382125 68.93383573 20.55612373 68.92630196 C19.07218442 68.92768073 17.58822502 68.93766951 16.10440826 68.95679092 C14.08248247 68.98157485 12.0602269 68.97272784 10.03817749 68.96203613 C8.90529391 68.9666451 7.77241034 68.97125406 6.60519695 68.97600269 C3.83097839 68.36076355 3.83097839 68.36076355 2.13028431 65.949893 C1.48712788 64.66827392 1.48712788 64.66827392 0.83097839 63.36076355 C-2.36219799 61.20006141 -5.66883364 59.38874028 -9.04011536 57.5209198 C-12.63663386 55.03793012 -14.10847067 53.21276464 -16.16902161 49.36076355 C-16.72653606 46.31076173 -16.73063492 43.33010206 -16.70027161 40.23576355 C-16.70601196 38.93808044 -16.70601196 38.93808044 -16.71186829 37.61418152 C-16.71458026 35.79206676 -16.70726926 33.96991259 -16.69050598 32.14787292 C-16.66908502 29.36898986 -16.69033083 26.59269182 -16.71589661 23.81388855 C-16.7132532 22.03784121 -16.70812796 20.26179548 -16.70027161 18.48576355 C-16.70836853 17.66060242 -16.71646545 16.83544128 -16.72480774 15.98527527 C-16.63892778 10.66565642 -15.78774166 7.51593481 -12.16902161 3.36076355 C-8.07473534 0.29894432 -5.05919648 -0.01100623 0 0 Z " fill="#FEF2DD" transform="translate(80.16902160644531,100.63923645019531)"/>
<path d="M0 0 C11.22 0 22.44 0 34 0 C33.27700623 14.43891761 31.93121789 28.78020121 30.49975586 43.16430664 C30.24316679 45.76773803 29.98687312 48.37119854 29.73085022 50.97468567 C29.18247317 56.54638567 28.63168072 62.11784246 28.07917595 67.6891346 C27.2803822 75.74396755 26.48534261 83.79916769 25.69117493 91.85445791 C24.40212173 104.92837769 23.11009574 118.00200186 21.81616211 131.07543945 C20.56035162 143.76376039 19.30596494 156.45222078 18.0534668 169.14086914 C17.97606764 169.92496967 17.89866847 170.70907021 17.81892388 171.51693136 C17.4305856 175.45112311 17.04227503 179.3853176 16.65397823 183.31951344 C13.4402811 215.88010074 10.22174338 248.44020784 7 281 C6.34 281 5.68 281 5 281 C3.7734375 279.53125 3.7734375 279.53125 2.375 277.5 C-5.27898692 267.14889387 -13.45822463 262.26663536 -25 257 C-25.18383006 249.24571377 -24.45366479 241.70530164 -23.625 234 C-23.34009403 231.28162197 -23.05969637 228.56279681 -22.78125 225.84375 C-22.71181183 225.16679077 -22.64237366 224.48983154 -22.5708313 223.7923584 C-22.08839824 219.0280337 -21.68777297 214.2629778 -21.34315491 209.48696899 C-20.52327974 198.26126822 -19.38189694 187.09406906 -18.13260841 175.90961838 C-14.96424043 147.45957321 -12.18708289 118.97113286 -9.40836406 90.48098063 C-8.67344118 82.94674919 -7.93536778 75.41282679 -7.19726562 67.87890625 C-6.32490969 58.97414083 -5.45345683 50.06928842 -4.58399487 41.16423988 C-4.15690066 36.79476802 -3.72784372 32.42548969 -3.29883194 28.05620575 C-3.00546455 25.05588689 -2.71574858 22.0552329 -2.42660522 19.05450439 C-2.25022427 17.24417334 -2.07376625 15.43384979 -1.8972168 13.62353516 C-1.82033788 12.81503302 -1.74345896 12.00653088 -1.66425037 11.17352867 C-1.29074255 7.37179254 -0.75125977 3.75629884 0 0 Z " fill="#F5A96C" transform="translate(352,170)"/>
<path d="M0 0 C0.90143234 -0.00571014 1.80286469 -0.01142029 2.73161316 -0.01730347 C3.72847137 -0.01842133 4.72532959 -0.01953918 5.75239563 -0.02069092 C6.79628952 -0.02565582 7.84018341 -0.03062073 8.91571045 -0.03573608 C12.38772733 -0.05040461 15.85969849 -0.05716847 19.33174133 -0.06268311 C21.73732505 -0.06843193 24.14290875 -0.07418969 26.54849243 -0.07995605 C31.60181391 -0.09048023 36.65511941 -0.09631321 41.70845032 -0.09979248 C48.18395659 -0.10527168 54.65925199 -0.12928167 61.13469219 -0.15776443 C66.10781468 -0.17639144 71.08088648 -0.18159652 76.05404091 -0.18312836 C78.44105491 -0.18615667 80.82806798 -0.19419117 83.21504784 -0.20731354 C86.55708677 -0.22437038 89.89861206 -0.22249407 93.24067688 -0.21600342 C94.22741394 -0.2252182 95.214151 -0.23443298 96.23078918 -0.243927 C102.41708333 -0.20629594 106.79842151 0.56914681 111.66792297 4.71295166 C113.54599069 8.67006701 113.26732235 12.65640159 113.25361633 16.98028564 C113.25885818 17.93939346 113.26410004 18.89850128 113.26950073 19.88667297 C113.27591848 21.91322869 113.27458714 23.93982166 113.2660675 25.96636963 C113.25756229 29.06348178 113.28631491 32.15874652 113.31806946 35.25567627 C113.31968173 37.22637884 113.31910345 39.19708468 113.31611633 41.16778564 C113.32735031 42.09187729 113.33858429 43.01596893 113.35015869 43.96806335 C113.30470688 48.17180684 113.20976008 50.51137221 110.95503235 54.1506958 C107.78132174 57.1084707 104.22782879 59.06044248 100.47627258 61.19903564 C97.60101918 62.98682711 97.60101918 62.98682711 96.29627991 66.21920776 C93.82002258 69.14044189 93.82002258 69.14044189 91.75200653 69.686306 C88.99924542 69.88167235 86.30288482 69.88195146 83.5436554 69.82159424 C81.97733116 69.82290848 81.97733116 69.82290848 80.37936401 69.82424927 C76.92653192 69.8200678 73.47564043 69.77338585 70.02314758 69.72637939 C67.62990887 69.71518934 65.23665641 69.70664826 62.84339905 69.70065308 C56.54328996 69.67774027 50.24401038 69.61879408 43.94422913 69.5524292 C37.51622236 69.4910606 31.08808159 69.46364954 24.65986633 69.43341064 C12.0462311 69.36905477 -0.56682905 69.26779693 -13.17997742 69.14044189 C-12.8694787 65.64864312 -12.55620926 62.15709803 -12.24247742 58.66558838 C-12.1554657 57.68669395 -12.06845398 56.70779953 -11.97880554 55.69924164 C-11.24021645 47.50370232 -10.27713305 39.35875114 -9.17997742 31.20294189 C-9.01497742 29.94932861 -8.84997742 28.69571533 -8.67997742 27.40411377 C-8.35116028 24.91101197 -8.01921797 22.41832 -7.68388367 19.92608643 C-7.32777939 17.25081852 -6.98096019 14.57551607 -6.64482117 11.89776611 C-6.51237 10.85947914 -6.51237 10.85947914 -6.37724304 9.80021667 C-6.13050055 7.86374324 -5.88755489 5.92678714 -5.64482117 3.98980713 C-4.94192037 -0.3187828 -4.04978713 0.0152933 0 0 Z " fill="#FEF2DD" transform="translate(292.1799774169922,100.85955810546875)"/>
<path d="M0 0 C1.63714966 0.33668701 1.63714966 0.33668701 3.30737305 0.68017578 C22.98999512 4.88025133 40.81132283 10.85004817 54 26.875 C54.67070804 28.54004443 55.33838381 30.20632201 56 31.875 C57.485 32.37 57.485 32.37 59 32.875 C58.66476071 37.68009651 57.43891035 41.1752276 55.4375 45.5625 C51.693385 54.99374012 50.92490238 66.51678274 54.09765625 76.23828125 C55.36119045 78.83655836 55.36119045 78.83655836 56.80859375 81 C58.05527226 82.96198586 58.55952645 84.60681438 59 86.875 C49.8714459 93.39539578 40.84711752 93.86919197 30 92.875 C25.71982057 92.03407063 21.96564271 90.67561615 18 88.875 C16.94296875 88.400625 15.8859375 87.92625 14.796875 87.4375 C-2.04873682 79.13444962 -13.61936551 65.5591368 -19.70019531 47.83398438 C-29.81844947 16.24881904 -29.81844947 16.24881904 -27 2.875 C-21.58017608 -6.15803986 -8.62998415 -1.79124254 0 0 Z " fill="#3EC2A3" transform="translate(301,419.125)"/>
<path d="M0 0 C22.43529626 -0.21027818 44.87042997 -0.36896713 67.30651188 -0.46630955 C77.72412629 -0.51270971 88.14112829 -0.57596389 98.55834961 -0.67895508 C107.63846366 -0.76868396 116.71813421 -0.82672937 125.79867929 -0.84679645 C130.60667636 -0.85852645 135.41340472 -0.88607305 140.22099495 -0.95157051 C144.74806702 -1.01274551 149.27335036 -1.03148848 153.80079651 -1.01796913 C155.46050178 -1.02044151 157.12026795 -1.03829863 158.7796154 -1.07284927 C171.32454922 -1.32120504 171.32454922 -1.32120504 175.4663372 1.9448719 C177.24546837 4.21768744 178.60800919 6.47837984 180 9 C188.99134668 19.68340734 202.55671246 26.71386305 216 30 C216 30.33 216 30.66 216 31 C190.4871547 31.11687867 164.97434961 31.20501054 139.46129036 31.25906086 C127.61472745 31.28482609 115.76833104 31.31994472 103.921875 31.37719727 C93.59470789 31.42708341 83.26766138 31.45930323 72.94037712 31.47044247 C67.47373197 31.47695234 62.0074318 31.49221775 56.54089737 31.52865028 C51.39119067 31.56269187 46.24196971 31.57303639 41.09216118 31.56553841 C39.20641753 31.5669093 37.32065695 31.5767929 35.43501091 31.59602737 C16.37869055 31.78080856 16.37869055 31.78080856 9 26 C3.02844417 19.83773665 1.19146182 13.7374529 0.45703125 5.26953125 C0.37042236 4.28186768 0.28381348 3.2942041 0.19458008 2.27661133 C0.13036865 1.52532959 0.06615723 0.77404785 0 0 Z " fill="#F5A96C" transform="translate(115,481)"/>
<path d="M0 0 C0.80824219 -0.06316406 1.61648437 -0.12632812 2.44921875 -0.19140625 C7.13574238 1.04256245 9.86942245 4.25490087 13.3125 7.5625 C14.42587324 8.60753494 15.53994237 9.65182877 16.65454102 10.69555664 C19.88851628 13.7388707 23.07723705 16.82565368 26.2512207 19.93139648 C27.58752785 21.23081522 28.93269059 22.52118657 30.28637695 23.80249023 C32.26385641 25.67625657 34.20998273 27.57821367 36.15234375 29.48828125 C36.75642563 30.04904861 37.36050751 30.60981598 37.9828949 31.18757629 C41.98153406 35.20458231 43.27255408 38.53096131 43.4788208 44.21456909 C42.99330825 51.06849193 38.05875887 55.25815975 33.44921875 59.82421875 C32.77961624 60.49669144 32.11001373 61.16916412 31.42012024 61.86201477 C30.0074797 63.27668974 28.59107174 64.68761157 27.17114258 66.0949707 C25.0070265 68.24302565 22.85937586 70.40660876 20.71289062 72.57226562 C19.33429416 73.94887955 17.95476731 75.32456251 16.57421875 76.69921875 C15.93651047 77.34299973 15.29880219 77.9867807 14.64176941 78.65007019 C10.36027391 82.86524723 6.45139785 86.10474406 0.3125 87 C-6.54465063 85.99999887 -11.31660122 80.21620522 -15.984375 75.49609375 C-16.65921936 74.82079117 -17.33406372 74.14548859 -18.02935791 73.44972229 C-19.44691847 72.02915434 -20.8620617 70.60617049 -22.27490234 69.1809082 C-24.4392313 66.99825404 -26.61152469 64.82377691 -28.78515625 62.65039062 C-30.16453643 61.26609709 -31.54345881 59.88134719 -32.921875 58.49609375 C-33.57081726 57.84603867 -34.21975952 57.19598358 -34.8883667 56.52622986 C-35.4894928 55.91872391 -36.0906189 55.31121796 -36.70996094 54.68530273 C-37.23813416 54.15331772 -37.76630737 53.6213327 -38.31048584 53.07322693 C-41.97411502 49.05384686 -42.45896345 45.91715475 -42.27587891 40.64648438 C-41.57707554 36.98371089 -40.51011006 35.67562349 -37.94921875 33.00390625 C-37.13267822 32.1435376 -36.3161377 31.28316895 -35.47485352 30.39672852 C-34.55502686 29.46143311 -33.6352002 28.5261377 -32.6875 27.5625 C-32.19530975 27.05758026 -31.70311951 26.55266052 -31.1960144 26.03244019 C-27.98704166 22.74126253 -24.74870667 19.48091341 -21.4921875 16.23681641 C-19.79047025 14.54054069 -18.09427015 12.8388755 -16.3984375 11.13671875 C-15.31021696 10.04915775 -14.22168694 8.96190631 -13.1328125 7.875 C-12.3781218 7.11727295 -12.3781218 7.11727295 -11.60818481 6.34423828 C-7.90970792 2.67050063 -5.31380874 0.2585998 0 0 Z " fill="#FEE4C2" transform="translate(180.6875,240.4375)"/>
<path d="M0 0 C5.76884042 2.9909583 8.86607414 7.39045699 12.5625 12.625 C13.16022217 13.45443115 13.75794434 14.2838623 14.3737793 15.13842773 C15.62379786 16.87461019 16.86959076 18.61384216 18.11132812 20.35595703 C19.98240757 22.9753715 21.87074786 25.58135521 23.765625 28.18359375 C28.43920979 34.6100097 28.43920979 34.6100097 30.55078125 37.53515625 C31.22620972 38.46920288 31.22620972 38.46920288 31.9152832 39.42211914 C33.7387999 42.07469362 34.25631803 43.99759933 34.4375 47.1875 C34.49808594 47.92355469 34.55867188 48.65960938 34.62109375 49.41796875 C32.83714887 56.83424273 25.04903886 61.51820457 19.1875 65.6875 C18.35871338 66.28256348 17.52992676 66.87762695 16.67602539 67.49072266 C14.96243037 68.72005145 13.24684399 69.94660908 11.52929688 71.17041016 C9.09506584 72.93123326 6.70838038 74.74134094 4.328125 76.57421875 C2.8647672 77.6747237 1.40123369 78.77499506 -0.0625 79.875 C-0.71516846 80.39280029 -1.36783691 80.91060059 -2.0402832 81.4440918 C-6.50006643 84.72849817 -10.11001315 85.81091655 -15.67602539 85.48168945 C-22.45480486 84.07665406 -26.02076219 77.54647276 -29.625 72.1875 C-30.66570524 70.67292136 -31.70873982 69.15994105 -32.75390625 67.6484375 C-33.55078857 66.49553223 -33.55078857 66.49553223 -34.36376953 65.31933594 C-37.47757382 60.90555785 -40.77218603 56.6249168 -44.07861328 52.35424805 C-47.61379291 47.72605724 -50.60299823 43.42612194 -51.5625 37.5625 C-50.56067611 31.21761534 -45.78511732 27.44266792 -40.8203125 23.67578125 C-39.26126058 22.54628606 -37.6958832 21.42548168 -36.125 20.3125 C-34.44086563 19.09710294 -32.75728194 17.88094249 -31.07421875 16.6640625 C-30.23036621 16.05723633 -29.38651367 15.45041016 -28.51708984 14.82519531 C-23.92855455 11.4979509 -19.41769196 8.06741534 -14.90087891 4.64379883 C-9.94547073 0.90561041 -6.3576897 -1.1948072 0 0 Z " fill="#FFE4C1" transform="translate(299,307)"/>
<path d="M0 0 C5.2350274 3.03229039 9.26891098 6.97734338 13.515625 11.25 C14.21266541 11.94512695 14.90970581 12.64025391 15.62786865 13.35644531 C17.09258733 14.81980872 18.55480633 16.28567796 20.01464844 17.75390625 C22.24974344 19.9997422 24.49534779 22.23467085 26.7421875 24.46875 C28.16730865 25.89519223 29.59180956 27.32225446 31.015625 28.75 C31.68644104 29.41676758 32.35725708 30.08353516 33.04840088 30.77050781 C33.66954773 31.39795898 34.29069458 32.02541016 34.93066406 32.671875 C35.47660217 33.2194043 36.02254028 33.76693359 36.58502197 34.33105469 C39.24837176 37.47243573 40.365724 40.13798669 40.0625 44.25 C38.45538997 54.16894814 26.97809362 62.17609875 20.10107422 69.02929688 C18.23677699 70.88818464 16.37794734 72.75242203 14.51953125 74.6171875 C13.33105009 75.80500868 12.1422592 76.99252008 10.953125 78.1796875 C10.3999762 78.73486053 9.84682739 79.29003357 9.2769165 79.86203003 C2.80430116 86.29523809 2.80430116 86.29523809 -2.6875 86.5625 C-3.49574219 86.62566406 -4.30398437 86.68882812 -5.13671875 86.75390625 C-9.82679283 85.51900271 -12.57170696 82.32768774 -16 79 C-16.51045868 78.50770905 -17.02091736 78.01541809 -17.54684448 77.50820923 C-21.21494249 73.96471696 -24.84466666 70.38441708 -28.45654297 66.78369141 C-30.3845701 64.86547862 -32.3230134 62.9581935 -34.26171875 61.05078125 C-35.49544685 59.82357499 -36.72854276 58.59573276 -37.9609375 57.3671875 C-38.53798431 56.80248749 -39.11503113 56.23778748 -39.70956421 55.65597534 C-43.73114648 51.61181737 -45.59227183 48.40106587 -46.5625 42.6875 C-45.16886859 33.5514719 -34.27942453 26.19020867 -27.875 19.875 C-20.66675026 12.90921716 -20.66675026 12.90921716 -14.00390625 5.4375 C-10.24839251 0.86938972 -5.83481273 -0.85091019 0 0 Z " fill="#FFE4C1" transform="translate(198,388)"/>
<path d="M0 0 C10.52516209 0.90062051 20.87429366 2.38005156 31.25 4.375 C32.32048584 4.57182373 33.39097168 4.76864746 34.49389648 4.97143555 C40.18660132 6.10565054 44.5805319 7.14379744 49 11 C53.16740359 17.87517413 50.77164093 26.64127237 49.390625 34.109375 C49.1385025 35.50413055 49.1385025 35.50413055 48.88128662 36.92706299 C48.5256338 38.87743702 48.16573064 40.82704039 47.80175781 42.77587891 C47.2494901 45.7527485 46.72189337 48.73333698 46.1953125 51.71484375 C45.84524401 53.61746299 45.49373132 55.5198172 45.140625 57.421875 C44.98627991 58.30840759 44.83193481 59.19494019 44.6729126 60.1083374 C43.72546277 65.03610307 42.74837545 68.41076185 39 72 C30.43539062 77.56815263 17.20274246 72.79256272 7.875 71 C6.33088365 70.71011339 4.78661358 70.42104437 3.2421875 70.1328125 C-0.50704664 69.43128555 -4.25402869 68.71873714 -8 68 C-7.46371591 57.46379936 -6.49601272 47.08401478 -5.0625 36.625 C-4.70038028 33.92484196 -4.34215209 31.22417398 -3.984375 28.5234375 C-3.81357422 27.23663086 -3.64277344 25.94982422 -3.46679688 24.62402344 C-2.75798765 19.12111335 -2.149006 13.60899002 -1.59594727 8.08837891 C-1.29932877 5.21998819 -0.91668077 2.75004232 0 0 Z " fill="#FFE4C1" transform="translate(274,207)"/>
<path d="M0 0 C3.54150893 -0.08761663 7.08273633 -0.14059739 10.625 -0.1875 C11.62402344 -0.21263672 12.62304688 -0.23777344 13.65234375 -0.26367188 C20.04802698 -0.32720515 24.70408654 -0.02450856 29.62768555 4.49365234 C31.79617937 8.45411447 31.44768095 12.39570568 31.43359375 16.83984375 C31.4388356 17.79895157 31.44407745 18.75805939 31.44947815 19.74623108 C31.4558959 21.77278679 31.45456456 23.79937977 31.44604492 25.82592773 C31.43753971 28.92303989 31.46629233 32.01830463 31.49804688 35.11523438 C31.49965914 37.08593695 31.49908087 39.05664278 31.49609375 41.02734375 C31.50732773 41.95143539 31.51856171 42.87552704 31.53013611 43.82762146 C31.4846843 48.03136495 31.38973749 50.37093032 29.13500977 54.01025391 C25.96129916 56.9680288 22.4078062 58.92000059 18.65625 61.05859375 C15.78099659 62.84638522 15.78099659 62.84638522 14.47625732 66.07876587 C12 69 12 69 9.93198395 69.54586411 C7.17922284 69.74123046 4.48286224 69.74150956 1.72363281 69.68115234 C0.15730858 69.68246658 0.15730858 69.68246658 -1.44065857 69.68380737 C-4.89349066 69.6796259 -8.34438215 69.63294396 -11.796875 69.5859375 C-14.19011371 69.57474744 -16.58336617 69.56620636 -18.97662354 69.56021118 C-25.27673263 69.53729838 -31.5760122 69.47835219 -37.87579346 69.4119873 C-44.30380023 69.3506187 -50.73194099 69.32320765 -57.16015625 69.29296875 C-69.77379148 69.22861288 -82.38685163 69.12735503 -95 69 C-95 68.67 -95 68.34 -95 68 C-70.91 68 -46.82 68 -22 68 C-21.67 61.73 -21.34 55.46 -21 49 C-19.64958653 34.82065859 -19.64958653 34.82065859 -14 30 C-11.48442741 28.16110879 -8.90721324 26.45869807 -6.3046875 24.74609375 C-3.21644907 22.40636057 -1.28872858 20.87957928 -0.67773438 16.90209961 C-0.48023022 14.34905292 -0.37866777 11.80974726 -0.3125 9.25 C-0.27833984 8.36183594 -0.24417969 7.47367187 -0.20898438 6.55859375 C-0.12671286 4.37252197 -0.05749828 2.18684049 0 0 Z " fill="#FEE4C1" transform="translate(374,101)"/>
<path d="M0 0 C5.35546769 4.47809749 10.37491604 9.19199211 15.3125 14.125 C16.02728516 14.82753906 16.74207031 15.53007812 17.47851562 16.25390625 C18.16236328 16.93582031 18.84621094 17.61773437 19.55078125 18.3203125 C20.16606689 18.93148926 20.78135254 19.54266602 21.4152832 20.17236328 C23.9578404 23.10466696 24.90975099 25.41338145 25.5 29.25 C24.29215185 38.30886114 15.16482178 45.23819157 8.94042969 51.48510742 C7.35882107 53.07880257 5.79683571 54.69028857 4.234375 56.30273438 C3.22770942 57.31884588 2.21993688 58.33386217 1.2109375 59.34765625 C0.30649902 60.26554932 -0.59793945 61.18344238 -1.52978516 62.12915039 C-4 64 -4 64 -6.03222656 64.05932617 C-8.6941046 62.62633748 -10.55191241 60.83750658 -12.6953125 58.703125 C-13.57574219 57.8265625 -14.45617187 56.95 -15.36328125 56.046875 C-16.27464844 55.12390625 -17.18601563 54.2009375 -18.125 53.25 C-19.04410156 52.3425 -19.96320313 51.435 -20.91015625 50.5 C-21.78800781 49.61828125 -22.66585937 48.7365625 -23.5703125 47.828125 C-24.37227051 47.0227832 -25.17422852 46.21744141 -26.00048828 45.38769531 C-28.85310382 41.98127529 -29.82524605 39.02910657 -30.5625 34.6875 C-29.14106515 25.36920486 -17.62889015 17.51270842 -11.0625 11 C-9.98609346 9.92862113 -8.90991986 8.85700818 -7.83398438 7.78515625 C-5.22533255 5.18740362 -2.61355529 2.59282038 0 0 Z " fill="#FFF2DD" transform="translate(182,396)"/>
<path d="M0 0 C2.68361556 1.11220135 3.63162019 2.49773003 5.31616211 4.8527832 C5.91235352 5.67520508 6.50854492 6.49762695 7.12280273 7.3449707 C7.73446289 8.2112207 8.34612305 9.0774707 8.97631836 9.9699707 C9.58411133 10.81301758 10.1919043 11.65606445 10.81811523 12.5246582 C12.01313066 14.18504641 13.20080816 15.85074372 14.38061523 17.52197266 C15.42135437 18.97995747 16.48243037 20.42385613 17.57202148 21.84570312 C20.13856402 25.22001092 21.73373135 27.60782204 21.66381836 31.9074707 C21.67670898 32.70282227 21.68959961 33.49817383 21.70288086 34.31762695 C19.78943863 41.59996298 12.44040769 45.78069674 6.66381836 49.9074707 C5.83881836 50.50624023 5.01381836 51.10500977 4.16381836 51.72192383 C1.79498294 53.43838949 -0.58125345 55.14392902 -2.96118164 56.8449707 C-4.03094238 57.61043213 -4.03094238 57.61043213 -5.12231445 58.39135742 C-6.73437531 59.54381462 -8.34762681 60.69460614 -9.96118164 61.8449707 C-14.28879498 60.32633575 -16.24632833 57.04422648 -18.71118164 53.4074707 C-19.58947045 52.14141714 -20.46838536 50.87579772 -21.34790039 49.6105957 C-21.78408691 48.97831055 -22.22027344 48.34602539 -22.66967773 47.69458008 C-25.18767476 44.08846562 -27.83734783 40.57856658 -30.46508789 37.05200195 C-33.18798388 33.03519717 -33.51644513 29.60437204 -32.96118164 24.8449707 C-29.19601993 18.78092709 -23.16825688 14.72697925 -17.46118164 10.6574707 C-16.63231445 10.05483398 -15.80344727 9.45219727 -14.94946289 8.83129883 C-13.34784071 7.67145955 -11.74001391 6.5201258 -10.12524414 5.37866211 C-8.79448905 4.43554349 -7.47406804 3.47737542 -6.17211914 2.49487305 C-2.4948908 -0.19721843 -2.4948908 -0.19721843 0 0 Z " fill="#FEF2DD" transform="translate(280.961181640625,316.155029296875)"/>
<path d="M0 0 C5.39631002 4.50400678 10.4198127 9.26743598 15.375 14.25 C16.09816406 14.96929687 16.82132813 15.68859375 17.56640625 16.4296875 C18.25347656 17.11804688 18.94054687 17.80640625 19.6484375 18.515625 C20.26895996 19.13727539 20.88948242 19.75892578 21.52880859 20.39941406 C24.37497936 23.49591182 24.5463426 26.39994608 24.43676758 30.47875977 C23.92906357 33.40948043 23.17873209 34.4280469 21.16796875 36.58203125 C20.5322998 37.2687793 19.89663086 37.95552734 19.24169922 38.66308594 C18.50193848 39.43426758 17.76217773 40.20544922 17 41 C16.15066895 41.89750977 15.30133789 42.79501953 14.42626953 43.71972656 C12.07355417 46.19112738 9.69018887 48.63038815 7.29223633 51.05786133 C6.29503544 52.07184402 5.30326057 53.0911881 4.31665039 54.11547852 C2.87529517 55.6112781 1.41845204 57.09023783 -0.04296875 58.56640625 C-1.32723755 59.88040405 -1.32723755 59.88040405 -2.63745117 61.22094727 C-5 63 -5 63 -7.0300293 63.03637695 C-9.6414265 61.66255354 -11.4015336 59.95203035 -13.4765625 57.8515625 C-14.311875 57.01109375 -15.1471875 56.170625 -16.0078125 55.3046875 C-16.87148437 54.42039062 -17.73515625 53.53609375 -18.625 52.625 C-19.49640625 51.7484375 -20.3678125 50.871875 -21.265625 49.96875 C-30.31021058 40.81215717 -30.31021058 40.81215717 -30.75 34.875 C-30.63958096 31.31932383 -30.47826695 29.55022355 -28.11279297 26.82885742 C-27.28924316 26.15701416 -26.46569336 25.4851709 -25.6171875 24.79296875 C-19.90372468 19.94647417 -14.64511366 14.75836291 -9.375 9.4375 C-8.46621094 8.52419922 -7.55742187 7.61089844 -6.62109375 6.66992188 C-4.41172045 4.44892029 -2.20473969 2.22559967 0 0 Z " fill="#FFF2DD" transform="translate(169,249)"/>
<path d="M0 0 C2.67986962 0.28712889 5.33369571 0.61456486 8 1 C8.71671875 1.09925781 9.4334375 1.19851562 10.171875 1.30078125 C13.94556179 2.00302748 15.74393939 2.69612354 18.23828125 5.65625 C20.2871229 9.54496054 20.35347151 11.4758775 19.9375 15.8125 C19.87804199 16.45848145 19.81858398 17.10446289 19.75732422 17.77001953 C19.0406165 24.84390778 17.73998348 31.82101303 16.40283203 38.79882812 C15.98824744 41.06421881 15.62647937 43.33302997 15.27734375 45.609375 C15.1572998 46.36557129 15.03725586 47.12176758 14.91357422 47.90087891 C14.68738179 49.33385042 14.47080307 50.76838913 14.26611328 52.20458984 C13.2844219 58.22316991 11.42659589 62.98387307 6.64453125 66.95703125 C1.81886202 68.86021247 -2.97433668 67.60749776 -8 67 C-7.44089387 56.81919386 -6.43873075 46.79469123 -5.0625 36.6875 C-4.70051286 33.97820852 -4.34208494 31.26845293 -3.984375 28.55859375 C-3.81357422 27.26550293 -3.64277344 25.97241211 -3.46679688 24.64013672 C-2.76041534 19.13169076 -2.14958617 13.61440117 -1.59594727 8.08862305 C-1.2993565 5.22014096 -0.91670827 2.7501248 0 0 Z " fill="#FEF2DC" transform="translate(274,207)"/>
<path d="M0 0 C2.37634576 1.70062552 4.12664929 3.18710142 6.1171875 5.2578125 C6.93112473 6.06881912 6.93112473 6.06881912 7.76150513 6.89620972 C8.90091455 8.0396069 10.03173275 9.19162253 11.15429688 10.3515625 C12.86991617 12.11976037 14.61531186 13.8537348 16.3671875 15.5859375 C17.47327082 16.70383602 18.57750298 17.8235698 19.6796875 18.9453125 C20.19941132 19.46118927 20.71913513 19.97706604 21.25460815 20.50857544 C24.45184543 23.85445875 25.93565906 26.32754462 26 31 C23.9375 33.875 23.9375 33.875 21 36 C18.19262695 36.45922852 18.19262695 36.45922852 15 36 C12.72038099 34.3182522 10.93508854 32.77826308 8.98046875 30.77734375 C8.43642899 30.23904434 7.89238922 29.70074493 7.3318634 29.14613342 C6.1875681 28.00591236 5.05078028 26.85811348 3.92114258 25.70336914 C2.19622025 23.94638235 0.44172588 22.22363115 -1.31835938 20.50195312 C-2.42901156 19.38733472 -3.53780033 18.27085577 -4.64453125 17.15234375 C-5.16739212 16.64162827 -5.69025299 16.13091278 -6.22895813 15.60472107 C-9.77635189 11.91786582 -10.88832455 9.10162445 -11 4 C-8.16343345 -0.60942064 -5.11189599 -0.58481001 0 0 Z " fill="#00A887" transform="translate(322,455)"/>
<path d="M0 0 C2.5 1.5625 2.5 1.5625 4 4 C3.84369931 9.87219074 1.9752555 12.92107621 -2.1015625 16.8984375 C-2.87359512 17.67908066 -2.87359512 17.67908066 -3.66122437 18.47549438 C-4.74839587 19.56673069 -5.84310928 20.65049946 -6.94482422 21.72705078 C-8.62058571 23.37067038 -10.26190031 25.04386861 -11.90234375 26.72265625 C-12.96683167 27.783179 -14.0331795 28.84183882 -15.1015625 29.8984375 C-15.58726715 30.39628754 -16.0729718 30.89413757 -16.57339478 31.40707397 C-20.18453647 34.87495695 -23.01260376 35.92148722 -28 36 C-31 33.9375 -31 33.9375 -33 31 C-32.91671827 25.50053406 -30.41028183 22.64829261 -26.6796875 18.9453125 C-26.14280304 18.39890106 -25.60591858 17.85248962 -25.05276489 17.28952026 C-23.91748708 16.14211539 -22.77571355 15.00110559 -21.62792969 13.86621094 C-19.87998208 12.12994877 -18.1664433 10.36411335 -16.453125 8.59375 C-15.34309001 7.47983005 -14.23117032 6.3677844 -13.1171875 5.2578125 C-12.60960907 4.72979034 -12.10203064 4.20176819 -11.57907104 3.65774536 C-7.77925276 -0.02267141 -5.20551767 -0.67776539 0 0 Z " fill="#BAF39B" transform="translate(406,455)"/>
</svg>
