<?xml version="1.0" encoding="UTF-8"?>
<svg version="1.1" xmlns="http://www.w3.org/2000/svg" width="512" height="512">
<path d="M0 0 C5.05999012 3.18713663 9.35643281 7.40937122 13.625 11.5625 C14.54756592 12.45437012 14.54756592 12.45437012 15.48876953 13.36425781 C23.74409869 21.37754801 31.60708906 29.43124088 38.625 38.5625 C39.800625 40.03009766 39.800625 40.03009766 41 41.52734375 C58.81272863 63.89844782 71.63840735 88.85339147 81.625 115.5625 C82.34558594 115.12421875 83.06617188 114.6859375 83.80859375 114.234375 C101.80113869 103.60732565 120.66479536 94.76699735 140.625 88.5625 C141.43259766 88.30275391 142.24019531 88.04300781 143.07226562 87.77539062 C164.8236728 80.82249409 204.30788813 68.23306241 226.625 78.625 C234.90317177 83.9744323 238.86324781 91.53767415 241.22607422 100.95922852 C241.70841022 103.55185057 242.06667583 106.13083858 242.375 108.75 C242.49568848 109.77464355 242.61637695 110.79928711 242.74072266 111.85498047 C243.91267393 123.60598841 243.95379378 135.38822757 244 147.1875 C244.00785522 148.17003754 244.01571045 149.15257507 244.02380371 150.16488647 C244.14256568 169.29373272 242.37519991 188.12068948 237.875 206.75 C237.61823486 207.83039551 237.36146973 208.91079102 237.09692383 210.02392578 C226.46255432 253.36098048 203.35647529 290.53616861 171.625 321.5625 C172.32625 321.57667969 173.0275 321.59085937 173.75 321.60546875 C180.54173094 321.94690088 185.4528572 322.98808125 190.625 327.5625 C194.94559478 333.10172408 195.79348744 337.38044669 195.86328125 344.23046875 C195.871353 344.98411209 195.87942474 345.73775543 195.88774109 346.51423645 C195.901565 348.11046054 195.91229473 349.70671398 195.92016602 351.30297852 C195.93165922 352.92546325 195.95206894 354.54791097 195.98168945 356.17016602 C196.28978525 373.05002894 196.28978525 373.05002894 191.625 379.5625 C189.84375 381.40234375 189.84375 381.40234375 188.125 382.5 C187.5578125 382.88027344 186.990625 383.26054687 186.40625 383.65234375 C180.85631558 386.4881655 174.68502123 385.6283698 168.625 385.5625 C168.47732178 386.74352295 168.32964355 387.9245459 168.17749023 389.14135742 C165.95402865 406.66128321 163.44822594 424.14043684 160.892313 441.6144886 C160.21722569 446.23017905 159.54716509 450.84647491 158.88891602 455.46459961 C158.24158718 460.0055734 157.58203049 464.5446161 156.91387749 469.08257103 C156.66448903 470.79020355 156.41927913 472.49845236 156.17857552 474.2073307 C152.98184475 496.84345136 152.98184475 496.84345136 144.89453125 504.9921875 C137.36191383 510.20408458 130.53717511 511.14334497 121.51782227 511.07043457 C120.32408525 511.07667453 119.13034822 511.0829145 117.90043736 511.08934355 C114.60868367 511.10248211 111.31752606 511.09782961 108.02578783 511.08539867 C104.46742714 511.07631568 100.90914453 511.09033394 97.35079956 511.10131836 C90.38859957 511.11907367 83.42657239 511.115277 76.46436572 511.1036678 C70.8043646 511.09462194 65.1444118 511.09341445 59.48440552 511.09776306 C58.67781795 511.09837599 57.87123038 511.09898893 57.04020077 511.09962043 C55.40146214 511.10089938 53.76272353 511.10219623 52.12398493 511.1035108 C36.7695882 511.11490784 21.4152871 511.10181666 6.06090605 511.08030933 C-7.10430062 511.06243913 -20.26936619 511.06554349 -33.43457031 511.08398438 C-48.73527504 511.10540659 -64.03589602 511.11380928 -79.33661366 511.10153532 C-80.96921093 511.10026117 -82.60180822 511.09900368 -84.23440552 511.09776306 C-85.03760442 511.09714596 -85.84080332 511.09652886 -86.66834158 511.09589306 C-92.31935068 511.0924442 -97.97030652 511.09825846 -103.62130737 511.10768127 C-110.51116772 511.11891767 -117.40084585 511.11582687 -124.29068542 511.0945583 C-127.80377714 511.0840698 -131.31656544 511.07988806 -134.82965469 511.09315491 C-138.64267942 511.10409272 -142.45485177 511.09036592 -146.26782227 511.07043457 C-147.37162452 511.07935746 -148.47542677 511.08828034 -149.61267757 511.09747362 C-157.71131744 511.0154191 -165.27787825 509.39200496 -171.1875 503.4375 C-177.2576801 496.63725128 -178.98085507 487.99972306 -180.20605469 479.20336914 C-180.35294235 478.22161713 -180.49983002 477.23986511 -180.65116882 476.22836304 C-181.12821154 473.01974132 -181.58775718 469.80888744 -182.046875 466.59765625 C-182.37644637 464.35454113 -182.70704946 462.11157738 -183.03863525 459.86875916 C-183.90451722 453.99106644 -184.75523121 448.11127287 -185.60308838 442.23095703 C-186.29961515 437.41856061 -187.00702234 432.60779318 -187.71497726 427.79706669 C-188.55839538 422.06445835 -189.39710708 416.33116575 -190.234375 410.59765625 C-190.39440758 409.50244219 -190.55444016 408.40722813 -190.7193222 407.27882576 C-191.16924865 404.19153301 -191.61599378 401.10379909 -192.06152344 398.01586914 C-192.19550034 397.09794083 -192.32947723 396.18001251 -192.46751404 395.23426819 C-192.58794571 394.39476624 -192.70837738 393.55526428 -192.8324585 392.69032288 C-192.93787838 391.96126771 -193.04329826 391.23221254 -193.15191269 390.4810648 C-193.375 388.5625 -193.375 388.5625 -193.375 385.5625 C-194.16003906 385.59730469 -194.94507813 385.63210938 -195.75390625 385.66796875 C-203.80991615 385.87554692 -208.79913728 385.56947547 -215.125 380.25 C-219.54635472 374.96893742 -220.83670477 370.39574986 -220.80859375 363.6015625 C-220.8138356 362.852164 -220.81907745 362.1027655 -220.82447815 361.33065796 C-220.83087283 359.75235222 -220.82959456 358.17399866 -220.82104492 356.59570312 C-220.8125477 354.2009445 -220.8413069 351.80858524 -220.87304688 349.4140625 C-220.93907154 335.09456569 -220.93907154 335.09456569 -216.375 328.5625 C-211.79494682 324.21144948 -207.89510175 322.38536441 -201.625 321.9375 C-200.14773437 321.82535156 -200.14773437 321.82535156 -198.640625 321.7109375 C-197.89296875 321.66195313 -197.1453125 321.61296875 -196.375 321.5625 C-196.78226318 321.16571045 -197.18952637 320.7689209 -197.60913086 320.36010742 C-229.88578263 288.80283934 -252.36376991 250.54062155 -262.75 206.4375 C-263.0895874 205.01256226 -263.0895874 205.01256226 -263.43603516 203.55883789 C-267.5993327 184.71452078 -268.89996494 165.87319193 -268.75 146.625 C-268.74601196 145.58132263 -268.74202393 144.53764526 -268.73791504 143.46234131 C-268.5200299 94.80598199 -268.5200299 94.80598199 -257.1484375 83.1015625 C-248.04268004 75.19920911 -238.04613889 75.66673899 -226.54199219 76.31884766 C-183.32308015 79.64389192 -143.66263239 94.09678666 -106.375 115.5625 C-106.17455078 115.04042969 -105.97410156 114.51835938 -105.76757812 113.98046875 C-101.21009824 102.17855938 -96.33835207 90.72337234 -90.375 79.5625 C-90.02856445 78.90830078 -89.68212891 78.25410156 -89.32519531 77.58007812 C-77.89749579 56.14660693 -63.18399947 37.05660561 -46.375 19.5625 C-45.77864746 18.93891602 -45.18229492 18.31533203 -44.56787109 17.67285156 C-42.61899532 15.64562655 -40.65593187 13.63323024 -38.6875 11.625 C-38.08180176 10.99779053 -37.47610352 10.37058105 -36.85205078 9.72436523 C-27.35736197 0.16147115 -13.37908689 -6.06886415 0 0 Z " fill="#D9FEBE" transform="translate(268.375,1.4375)"/>
<path d="M0 0 C4.48055803 4.0881004 7.56301167 8.61039833 10.75 13.75 C11.27513184 14.5941748 11.80026367 15.43834961 12.34130859 16.30810547 C22.13098418 32.21297566 29.32333706 48.55656092 36 66 C36.72058594 65.56171875 37.44117188 65.1234375 38.18359375 64.671875 C56.17613869 54.04482565 75.03979536 45.20449735 95 39 C96.21139648 38.61038086 96.21139648 38.61038086 97.44726562 38.21289062 C119.1986728 31.25999409 158.68288813 18.67056241 181 29.0625 C189.27817177 34.4119323 193.23824781 41.97517415 195.60107422 51.39672852 C196.08341022 53.98935057 196.44167583 56.56833858 196.75 59.1875 C196.87068848 60.21214355 196.99137695 61.23678711 197.11572266 62.29248047 C198.28767393 74.04348841 198.32879378 85.82572757 198.375 97.625 C198.38285522 98.60753754 198.39071045 99.59007507 198.39880371 100.60238647 C198.51756568 119.73123272 196.75019991 138.55818948 192.25 157.1875 C191.99323486 158.26789551 191.73646973 159.34829102 191.47192383 160.46142578 C181.99919627 199.06457117 162.4240995 235.06984288 134.46396637 263.40654755 C132.92868445 265.00191916 132.92868445 265.00191916 131.62117767 267.01294708 C128.55617424 270.96764003 126.18693964 272.77283698 121.2059021 273.72613525 C116.29512864 274.09315185 111.38652636 273.99028774 106.46679688 273.90820312 C104.57401628 273.90594477 102.68122868 273.90721665 100.78845215 273.91174316 C95.6645043 273.91403402 90.54206149 273.86707592 85.41846275 273.8111515 C80.05871636 273.76106436 74.69893358 273.75643564 69.33898926 273.74694824 C59.19579068 273.72210565 49.05328375 273.65648677 38.91038942 273.57615232 C27.36034018 273.48666304 15.81025752 273.44272953 4.25994778 273.40258884 C-19.49375127 273.31901894 -43.24683684 273.1783489 -67 273 C-66.99476318 272.20343994 -66.98952637 271.40687988 -66.98413086 270.58618164 C-66.94172515 263.05353165 -66.93789882 255.52228925 -66.97665405 247.98965454 C-66.99523549 244.11753835 -66.99926226 240.24658029 -66.96923828 236.37451172 C-66.94077229 232.63261582 -66.95156848 228.89264686 -66.98880005 225.15084839 C-66.99620691 223.72842799 -66.98982079 222.3058622 -66.96896362 220.88357544 C-66.73538579 212.74552909 -66.73538579 212.74552909 -69.7129364 205.40557861 C-71.70903401 203.37843204 -73.71051003 201.68277321 -76 200 C-77.27945835 198.93482655 -78.55713045 197.86749916 -79.83203125 196.796875 C-81.15252489 195.77303432 -82.47957262 194.75760001 -83.8125 193.75 C-84.52736572 193.20424316 -85.24223145 192.65848633 -85.97875977 192.09619141 C-92.38357824 187.29205942 -99.0787915 183.00567455 -105.9309082 178.87011719 C-107.07692505 178.17257324 -107.07692505 178.17257324 -108.24609375 177.4609375 C-108.92341553 177.05665527 -109.6007373 176.65237305 -110.29858398 176.23583984 C-112 175 -112 175 -114 172 C-114.56551375 167.63746537 -114.49322651 165.70247412 -111.9375 162.0625 C-108.18851914 159.43023684 -106.52844283 159.53554433 -102 160 C-99.18295981 161.09946617 -96.69135929 162.59821834 -94.125 164.1875 C-93.48820312 164.55552734 -92.85140625 164.92355469 -92.1953125 165.30273438 C-83.63478923 170.45039751 -75.87269424 176.87685936 -68 183 C-67.81378949 174.82837775 -67.67207194 166.6576566 -67.58550262 158.48443031 C-67.54393063 154.68823392 -67.48764681 150.89349956 -67.39648438 147.09814453 C-67.30889378 143.42809296 -67.26159093 139.75943778 -67.24098206 136.08842087 C-67.22631672 134.69533701 -67.1976782 133.30232081 -67.15415955 131.90983963 C-66.88704589 123.00013149 -67.78573631 117.66075719 -73.94062805 111.02032471 C-74.62022079 110.35361755 -75.29981354 109.6869104 -76 109 C-77.1504326 107.77408748 -78.30031183 106.54765498 -79.44921875 105.3203125 C-80.52343629 104.24995443 -81.6027623 103.18469516 -82.6875 102.125 C-83.22955078 101.58359375 -83.77160156 101.0421875 -84.33007812 100.484375 C-86.74867188 98.09203859 -89.08887199 95.9337455 -91.82421875 93.89453125 C-94.2938009 91.74417695 -94.7803144 90.77029985 -95.125 87.5625 C-95.32872857 83.93133788 -95.08603259 83.1317374 -93 79.9375 C-89.06137604 77.39380536 -87.62331529 77.0147033 -83 78 C-80.21041534 79.89323163 -77.68183044 81.94242288 -75.13671875 84.15234375 C-73.13919325 86.03321721 -73.13919325 86.03321721 -71 87 C-68.0878952 83.75717085 -67.63942891 81.66807161 -67.6640625 77.3515625 C-67.65117187 76.26359375 -67.63828125 75.175625 -67.625 74.0546875 C-67.625 71.77602827 -67.63275902 69.49735529 -67.6484375 67.21875 C-67.51579963 57.86778032 -67.51579963 57.86778032 -64.70703125 54.26171875 C-61.42186475 51.51696925 -60.11798916 51.05098744 -56.00390625 51.32421875 C-52.20585759 52.60504218 -50.17013737 55.77767482 -48 59 C-45.43320742 56.44713215 -42.88795838 53.88345 -40.37890625 51.2734375 C-32.03579317 42.63945815 -23.05189846 35.11812312 -13.140625 28.3359375 C-12.5101123 27.90104004 -11.87959961 27.46614258 -11.22998047 27.01806641 C-10.03544684 26.20148209 -8.83185603 25.39791473 -7.61767578 24.61083984 C-3.18747868 21.59861918 -1.21314588 18.76759618 1 14 C1.50858923 11.58828702 1.50858923 11.58828702 1.3125 9.375 C1.26029297 8.24384766 1.26029297 8.24384766 1.20703125 7.08984375 C0.96810359 4.67802682 0.60591046 2.34790304 0 0 Z " fill="#BDF990" transform="translate(314,51)"/>
<path d="M0 0 C127.38 0 254.76 0 386 0 C386 0.33 386 0.66 386 1 C382.04 1 378.08 1 374 1 C373.85232178 2.18102295 373.70464355 3.3620459 373.55249023 4.57885742 C371.32902865 22.09878321 368.82322594 39.57793684 366.267313 57.0519886 C365.59222569 61.66767905 364.92216509 66.28397491 364.26391602 70.90209961 C363.61658718 75.4430734 362.95703049 79.9821161 362.28887749 84.52007103 C362.03948903 86.22770355 361.79427913 87.93595236 361.55357552 89.6448307 C358.35684475 112.28095136 358.35684475 112.28095136 350.26953125 120.4296875 C342.73691383 125.64158458 335.91217511 126.58084497 326.89282227 126.50793457 C325.69908525 126.51417453 324.50534822 126.5204145 323.27543736 126.52684355 C319.98368367 126.53998211 316.69252606 126.53532961 313.40078783 126.52289867 C309.84242714 126.51381568 306.28414453 126.52783394 302.72579956 126.53881836 C295.76359957 126.55657367 288.80157239 126.552777 281.83936572 126.5411678 C276.1793646 126.53212194 270.5194118 126.53091445 264.85940552 126.53526306 C264.05281795 126.53587599 263.24623038 126.53648893 262.41520077 126.53712043 C260.77646214 126.53839938 259.13772353 126.53969623 257.49898493 126.5410108 C242.1445882 126.55240784 226.7902871 126.53931666 211.43590605 126.51780933 C198.27069938 126.49993913 185.10563381 126.50304349 171.94042969 126.52148438 C156.63972496 126.54290659 141.33910398 126.55130928 126.03838634 126.53903532 C124.40578907 126.53776117 122.77319178 126.53650368 121.14059448 126.53526306 C120.33739558 126.53464596 119.53419668 126.53402886 118.70665842 126.53339306 C113.05564932 126.5299442 107.40469348 126.53575846 101.75369263 126.54518127 C94.86383228 126.55641767 87.97415415 126.55332687 81.08431458 126.5320583 C77.57122286 126.5215698 74.05843456 126.51738806 70.54534531 126.53065491 C66.73232058 126.54159272 62.92014823 126.52786592 59.10717773 126.50793457 C58.00337548 126.51685746 56.89957323 126.52578034 55.76232243 126.53497362 C47.66368256 126.4529191 40.09712175 124.82950496 34.1875 118.875 C28.1173199 112.07475128 26.39414493 103.43722306 25.16894531 94.64086914 C24.94861382 93.16824112 24.94861382 93.16824112 24.72383118 91.66586304 C24.24678846 88.45724132 23.78724282 85.24638744 23.328125 82.03515625 C22.99855363 79.79204113 22.66795054 77.54907738 22.33636475 75.30625916 C21.47048278 69.42856644 20.61976879 63.54877287 19.77191162 57.66845703 C19.07538485 52.85606061 18.36797766 48.04529318 17.66002274 43.23456669 C16.81660462 37.50195835 15.97789292 31.76866575 15.140625 26.03515625 C14.98059242 24.93994219 14.82055984 23.84472813 14.6556778 22.71632576 C14.20575135 19.62903301 13.75900622 16.54129909 13.31347656 13.45336914 C13.17949966 12.53544083 13.04552277 11.61751251 12.90748596 10.67176819 C12.78705429 9.83226624 12.66662262 8.99276428 12.5425415 8.12782288 C12.38441168 7.03424013 12.38441168 7.03424013 12.22308731 5.9185648 C12 4 12 4 12 1 C8.04 1 4.08 1 0 1 C0 0.67 0 0.34 0 0 Z " fill="#C79A83" transform="translate(63,386)"/>
<path d="M0 0 C0.66068434 -0.00380567 1.32136868 -0.00761134 2.00207376 -0.01153234 C4.22561933 -0.02187459 6.44891086 -0.01793716 8.67247391 -0.01409245 C10.27889927 -0.01854343 11.88532244 -0.02385701 13.49174237 -0.02996117 C17.91389071 -0.04416844 22.33596886 -0.04580395 26.75813675 -0.04536426 C31.52446833 -0.04701007 36.2907708 -0.06007218 41.05708694 -0.07155704 C51.48267415 -0.09442459 61.90824102 -0.10232954 72.33384991 -0.10738349 C78.8420244 -0.11063848 85.35019296 -0.11715975 91.85836411 -0.12438488 C109.87306274 -0.1439531 127.88775587 -0.16035601 145.90246582 -0.16326141 C147.05568123 -0.16344898 148.20889664 -0.16363655 149.39705797 -0.16382981 C151.73497152 -0.16419606 154.07288508 -0.16455976 156.41079864 -0.16492092 C157.57136351 -0.16510373 158.73192839 -0.16528654 159.9276619 -0.16547489 C161.6706308 -0.16574572 161.6706308 -0.16574572 163.4488112 -0.16602201 C182.28019527 -0.16956421 201.11146502 -0.19658849 219.94280943 -0.23397278 C239.27071293 -0.2720362 258.59855969 -0.29141875 277.92650151 -0.29172093 C288.78085525 -0.29230594 299.63507264 -0.30082625 310.48939133 -0.32971859 C319.73152869 -0.35420618 328.97347997 -0.36153309 338.21564099 -0.34647106 C342.9316166 -0.33929143 347.64722456 -0.34020493 352.36315918 -0.36288166 C356.68129102 -0.38344669 360.99877199 -0.38089469 365.31689659 -0.36000682 C366.87815211 -0.35650715 368.43945435 -0.36144217 370.00064859 -0.37571125 C385.43160472 -0.50764645 385.43160472 -0.50764645 391.43938065 5.26006222 C395.75997542 10.79928629 396.60786809 15.07800891 396.6776619 21.92803097 C396.68573364 22.68167431 396.69380539 23.43531765 396.70212173 24.21179867 C396.71594565 25.80802276 396.72667538 27.40427619 396.73454666 29.00054073 C396.74603987 30.62302547 396.76644958 32.24547319 396.7960701 33.86772823 C397.11709521 51.45595873 397.11709521 51.45595873 392.43938065 57.26006222 C386.9321445 62.75423207 381.78628086 62.90384792 374.25623894 62.92877924 C372.73313572 62.91797022 371.21003582 62.90668699 369.68693924 62.89498043 C368.06070648 62.90074365 366.43448024 62.90868613 364.80826759 62.91861665 C360.34519969 62.93948582 355.88266648 62.92917458 351.41959667 62.91368556 C346.60423475 62.90237625 341.788965 62.91983268 336.97362137 62.93358517 C327.54263088 62.95582656 318.11183927 62.95101235 308.68084097 62.93652196 C301.016577 62.92523329 293.3523688 62.92369722 285.68809891 62.92914104 C284.59757607 62.92990721 283.50705323 62.93067337 282.38348424 62.93146276 C280.16815708 62.93306137 277.95282994 62.93468244 275.73750281 62.93632571 C254.96089638 62.95058586 234.18440023 62.9341863 213.40781188 62.90732388 C195.57778478 62.88498488 177.74792044 62.88886494 159.91789627 62.91191769 C139.21600095 62.93867097 118.51420229 62.94921254 97.8122921 62.93385637 C95.60508221 62.93226361 93.3978723 62.93069176 91.19066238 62.92914104 C90.10465284 62.92836967 89.01864329 62.92759829 87.89972436 62.92680354 C80.24403526 62.92248513 72.58840743 62.92977614 64.93272781 62.94153881 C55.60387377 62.95555708 46.27523009 62.95177796 36.94640017 62.92513509 C32.18599016 62.91198791 27.425931 62.90685993 22.66552353 62.92338085 C18.30806155 62.93827473 13.95127576 62.93010172 9.59387517 62.90349309 C8.01726107 62.89790571 6.44058991 62.90075442 4.86401248 62.91287203 C-8.38082499 63.00686685 -8.38082499 63.00686685 -12.89475632 59.9215517 C-19.27514038 53.55163514 -20.03135838 47.66010623 -20.11286545 38.82890987 C-20.10925304 37.26670592 -20.09888335 35.70450445 -20.08210373 34.14238644 C-20.06066577 31.7652093 -20.0819607 29.3910533 -20.10749435 27.01396847 C-20.12168646 19.29620011 -20.11727961 12.81026134 -15.56061935 6.26006222 C-10.59083979 1.53877163 -6.82217356 0.01129006 0 0 Z " fill="#FED8AC" transform="translate(67.56061935424805,323.7399377822876)"/>
<path d="M0 0 C2.33984375 1.46484375 2.33984375 1.46484375 3.9375 2.9375 C4.48277344 3.42089844 5.02804688 3.90429688 5.58984375 4.40234375 C9.18871446 8.47973466 9.4775722 12.23831229 9.38671875 17.5078125 C8.8198959 22.62639464 7.44354395 27.44267518 6.06689453 32.39477539 C2.37068185 45.71540714 -0.27414174 59.10516436 -1.22924805 72.91015625 C-1.57617474 77.21747827 -2.11439033 79.76136362 -5 83 C-5.67488437 87.43495441 -4.79674597 89.65576819 -2.28149414 93.27392578 C0.19567199 96.61047837 2.84856907 99.80144841 5.5 103 C9.25737749 107.53270936 12.83296664 112.03210454 16 117 C15.32420898 116.97905273 14.64841797 116.95810547 13.95214844 116.93652344 C10.88491746 116.85328357 7.81792418 116.80131534 4.75 116.75 C3.68652344 116.71648437 2.62304688 116.68296875 1.52734375 116.6484375 C-0.00986328 116.62910156 -0.00986328 116.62910156 -1.578125 116.609375 C-2.52075195 116.58842773 -3.46337891 116.56748047 -4.43457031 116.54589844 C-7.77609709 117.13737539 -8.9434109 118.3530826 -11 121 C-11.37600088 124.60960849 -10.91992197 127.52972524 -10 131 C-9.37351562 131.07476562 -8.74703125 131.14953125 -8.1015625 131.2265625 C-7.28429687 131.35804688 -6.46703125 131.48953125 -5.625 131.625 C-4.81289062 131.74101562 -4.00078125 131.85703125 -3.1640625 131.9765625 C-1 133 -1 133 0.1953125 135.58203125 C0.91674208 138.64635592 1.53911112 141.70987688 2.08886719 144.80932617 C5.61704242 164.14515114 12.37541597 184.04495446 22.00244141 201.21386719 C23.055512 203.09939447 24.06584362 205.00429666 25.07421875 206.9140625 C29.52064901 215.20466588 34.5519144 222.90944501 40.10253906 230.50561523 C40.59463867 231.18052002 41.08673828 231.8554248 41.59375 232.55078125 C42.03396484 233.14544189 42.47417969 233.74010254 42.92773438 234.3527832 C44 236 44 236 45 239 C37.74695275 239.41004985 30.49694033 239.68757238 23.23486328 239.87890625 C20.77246515 239.95874345 18.31081032 240.06747175 15.85107422 240.20703125 C-5.66037279 241.39579874 -5.66037279 241.39579874 -13.12207031 235.55834961 C-17.23585734 231.73430053 -20.64029639 227.48253423 -24 223 C-24.87451614 221.96593809 -25.75926787 220.94036839 -26.65795898 219.92724609 C-50.75338114 192.69089891 -67.08981138 158.05645446 -75.375 122.875 C-75.6013916 121.9250415 -75.8277832 120.97508301 -76.06103516 119.99633789 C-80.2243327 101.15202078 -81.52496494 82.31069193 -81.375 63.0625 C-81.37101196 62.01882263 -81.36702393 60.97514526 -81.36291504 59.89984131 C-81.1450299 11.24348199 -81.1450299 11.24348199 -69.7734375 -0.4609375 C-53.77972864 -14.34094034 -17.95133892 -7.68927404 0 0 Z " fill="#D9FEBE" transform="translate(81,85)"/>
<path d="M0 0 C10.36977996 1.35156683 20.13431964 4.66486165 30 8 C30.67691895 8.22671387 31.35383789 8.45342773 32.05126953 8.68701172 C49.38274591 14.57574969 67.98947498 22.42780298 83 33 C84.2946297 36.88388909 83.11176395 39.18371368 81.8125 42.875 C79.65938579 49.3644456 78.07464775 55.84376324 76.8125 62.5625 C76.581073 63.78138916 76.581073 63.78138916 76.3449707 65.02490234 C73.99743847 77.94460006 72.59174112 90.6713514 72.625 103.8125 C72.62432022 104.87242661 72.62432022 104.87242661 72.62362671 105.95376587 C72.64961011 119.89864761 74.31900721 133.31174191 77 147 C77.24212236 148.33701617 77.48318326 149.67422551 77.72265625 151.01171875 C83.55287576 181.07051513 96.63530796 210.19690628 114.1015625 235.26171875 C116 238 116 238 117 240 C108.08166072 240.39593522 99.16639043 240.69690327 90.24114609 240.88080692 C86.09508356 240.96913664 81.95507524 241.0885861 77.8125 241.2824707 C51.12583453 242.49928346 51.12583453 242.49928346 44.3560791 238.39840698 C40.34863742 234.59846151 37.97909574 230.26818452 35.9324646 225.18621826 C34.6998315 222.29623725 33.07551621 219.76220845 31.35757446 217.14031982 C15.35219503 192.53314594 6.13590507 163.67043479 1 135 C-0.11632812 134.7009375 -1.23265625 134.401875 -2.3828125 134.09375 C-5.70881027 133.08804873 -6.98607247 132.68523671 -9 130 C-10.44430855 127.11138291 -10.37688506 125.20352299 -10 122 C-8.18359375 119.3203125 -8.18359375 119.3203125 -5 117 C-1.21052144 116.38699612 2.48655762 116.52839171 6.3125 116.6875 C7.33923828 116.71005859 8.36597656 116.73261719 9.42382812 116.75585938 C11.9507179 116.81462425 14.47460255 116.89672151 17 117 C16.31035156 116.20078125 15.62070313 115.4015625 14.91015625 114.578125 C-3.75541306 92.81274985 -3.75541306 92.81274985 -4.25 87.125 C-4 84 -4 84 -2.53051758 82.11376953 C-0.72052021 79.61401563 -0.51623813 78.10720617 -0.26171875 75.0546875 C-0.11947876 73.58104736 -0.11947876 73.58104736 0.02563477 72.07763672 C0.12030029 71.0207666 0.21496582 69.96389648 0.3125 68.875 C1.84976062 54.03557302 4.83027041 39.39292807 9.16015625 25.10546875 C10.79401915 19.06397572 11.07397454 13.27186921 8.375 7.5625 C5.82268502 4.80868646 3.19088094 2.95804058 0 1 C0 0.67 0 0.34 0 0 Z " fill="#BDF990" transform="translate(79,84)"/>
<path d="M0 0 C14.62970887 -0.07013491 29.25939543 -0.12301009 43.88923836 -0.15543652 C50.68240103 -0.17089403 57.47545914 -0.19196206 64.26855469 -0.22631836 C70.82375573 -0.25945565 77.37888891 -0.27685164 83.93416977 -0.28463173 C86.43562404 -0.2901765 88.93707233 -0.30100397 91.43848038 -0.31719017 C94.94105142 -0.33895416 98.44317304 -0.34196728 101.94580078 -0.34057617 C102.98086258 -0.351362 104.01592438 -0.36214783 105.08235168 -0.3732605 C110.47395481 -0.3500761 114.37062937 -0.0921105 119 3 C122.86279383 7.28039316 124.10061511 9.85464294 124.44897461 15.53759766 C124.5225267 16.70126862 124.5960788 17.86493958 124.67185974 19.06387329 C124.74791946 20.33443573 124.82397919 21.60499817 124.90234375 22.9140625 C125.0287323 24.92769881 125.1551237 26.94133494 125.28166294 28.95496178 C125.45916883 31.79623174 125.63278029 34.63773443 125.80633545 37.47924805 C126.18707513 43.70785862 126.57413309 49.93607009 126.96484375 56.1640625 C127.00706873 56.8406831 127.04929371 57.5173037 127.09279823 58.21442795 C127.65847109 67.24113327 128.32083939 76.25483857 129.1015625 85.265625 C129.75969505 92.884968 130.38343868 100.47232033 130.4375 108.125 C130.47037109 109.01574219 130.50324219 109.90648437 130.53710938 110.82421875 C130.57184486 115.06194749 130.42666458 118.06329655 127.78515625 121.4921875 C123.04221957 125.76282614 119.16309025 126.25243283 112.87402344 126.29052734 C111.82659721 126.30060318 111.82659721 126.30060318 110.75801086 126.31088257 C108.45839236 126.32981869 106.15906654 126.33378488 103.859375 126.3359375 C102.25140262 126.34236984 100.64343139 126.34909853 99.03546143 126.35610962 C95.66635427 126.36807239 92.29734955 126.37179161 88.92822266 126.37060547 C84.62993342 126.37040265 80.3323081 126.3976706 76.03417587 126.43214989 C72.71225015 126.45449018 69.3904822 126.4584408 66.06848907 126.45738602 C64.48498503 126.45973257 62.90147601 126.46850238 61.31804657 126.48405075 C51.64174082 126.57015043 43.91822993 126.09488542 35.73046875 120.4296875 C28.61273141 113.2578914 26.52779159 104.39674292 25.16894531 94.64086914 C24.94861382 93.16824112 24.94861382 93.16824112 24.72383118 91.66586304 C24.24678846 88.45724132 23.78724282 85.24638744 23.328125 82.03515625 C22.99855363 79.79204113 22.66795054 77.54907738 22.33636475 75.30625916 C21.47048278 69.42856644 20.61976879 63.54877287 19.77191162 57.66845703 C19.07538485 52.85606061 18.36797766 48.04529318 17.66002274 43.23456669 C16.81660462 37.50195835 15.97789292 31.76866575 15.140625 26.03515625 C14.98059242 24.93994219 14.82055984 23.84472813 14.6556778 22.71632576 C14.20575135 19.62903301 13.75900622 16.54129909 13.31347656 13.45336914 C13.17949966 12.53544083 13.04552277 11.61751251 12.90748596 10.67176819 C12.78705429 9.83226624 12.66662262 8.99276428 12.5425415 8.12782288 C12.38441168 7.03424013 12.38441168 7.03424013 12.22308731 5.9185648 C12 4 12 4 12 1 C8.04 1 4.08 1 0 1 C0 0.67 0 0.34 0 0 Z " fill="#DFB6A2" transform="translate(63,386)"/>
<path d="M0 0 C8.70967718 7.55861852 10.61082869 18.41215143 11.75 29.375 C11.87503906 30.42171875 12.00007812 31.4684375 12.12890625 32.546875 C14.60570104 54.59307035 14.60570104 54.59307035 10 62 C6.26096365 66.20104372 1.80725578 68.72818013 -3.80126953 69.27124023 C-5.3266333 69.28973022 -5.3266333 69.28973022 -6.8828125 69.30859375 C-8.036604 69.33155518 -9.19039551 69.3545166 -10.37915039 69.37817383 C-11.61528076 69.39775146 -12.85141113 69.4173291 -14.125 69.4375 C-59.12169455 70.59748504 -98.12987613 81.28373825 -138 102 C-138.06469482 101.28271729 -138.12938965 100.56543457 -138.19604492 99.82641602 C-139.42329297 86.56897679 -140.8610148 73.43454238 -143.5 60.375 C-143.70133545 59.37670166 -143.9026709 58.37840332 -144.11010742 57.34985352 C-145.26684641 51.85940327 -146.68196213 46.5763942 -148.52929688 41.27587891 C-149.10615993 38.48671012 -148.88510496 36.70147238 -148 34 C-145.58696834 32.17797737 -143.37789693 30.7554223 -140.75 29.3125 C-139.99565674 28.88606201 -139.24131348 28.45962402 -138.46411133 28.02026367 C-122.91287599 19.37611402 -106.9615625 12.35523511 -90 7 C-89.18660156 6.73735352 -88.37320313 6.47470703 -87.53515625 6.20410156 C-18.79782924 -15.75818025 -18.79782924 -15.75818025 0 0 Z " fill="#D9FEBE" transform="translate(499,83)"/>
<path d="M0 0 C0.66218232 -0.00380567 1.32436465 -0.00761134 2.00661311 -0.01153234 C4.23520507 -0.02187467 6.46354357 -0.01793717 8.69215298 -0.01409245 C10.3021418 -0.01854339 11.91212843 -0.02385696 13.52211183 -0.02996117 C17.95391321 -0.04416821 22.38564454 -0.04580395 26.81746542 -0.04536426 C31.59392639 -0.04701003 36.3703583 -0.06007178 41.14680386 -0.07155704 C51.59271585 -0.09442192 62.03860755 -0.10232878 72.48454118 -0.10738349 C79.00272726 -0.11063781 85.52090742 -0.11715855 92.03909016 -0.12438488 C110.07524488 -0.14395025 128.1113941 -0.16035566 146.14756012 -0.16326141 C147.30203334 -0.16344898 148.45650656 -0.16363655 149.64596381 -0.16382981 C151.98647908 -0.16419606 154.32699435 -0.16455976 156.66750962 -0.16492092 C157.82938812 -0.16510373 158.99126661 -0.16528654 160.18835354 -0.16547489 C161.93328977 -0.16574572 161.93328977 -0.16574572 163.71347725 -0.16602201 C182.5805716 -0.16956683 201.44755204 -0.1966087 220.31460685 -0.23397278 C239.67073651 -0.27199983 259.02680956 -0.29141846 278.38297743 -0.29172093 C289.25673359 -0.29230665 300.13035377 -0.30087274 311.00407505 -0.32971859 C320.25916451 -0.3541573 329.51406837 -0.36156621 338.76918132 -0.34647106 C343.4946634 -0.33927206 348.21977842 -0.34028749 352.94521999 -0.36288166 C357.26617492 -0.38334482 361.58647763 -0.3809914 365.9074245 -0.36000682 C367.47532044 -0.35648751 369.04326224 -0.36152409 370.61109794 -0.37571125 C372.73375997 -0.39368988 374.85408196 -0.38122204 376.97666931 -0.36076355 C378.15808929 -0.36157801 379.33950927 -0.36239246 380.55672985 -0.3632316 C383.42541409 0.26006222 383.42541409 0.26006222 385.29916376 2.66776031 C387.03459248 6.66221436 386.97791733 8.90909914 386.42541409 13.26006222 C384.25267112 15.952847 382.44873562 17.10717497 379.00697732 17.62138379 C375.83791257 17.77512272 372.69280517 17.78605348 369.5200491 17.75885677 C368.29973378 17.76424133 367.07941846 17.76962588 365.82212389 17.7751736 C362.43754634 17.78615485 359.05385404 17.77925629 355.66934538 17.76489055 C352.01825219 17.75377731 348.36722776 17.76576896 344.71613979 17.77507687 C338.38976335 17.78817052 332.06351903 17.78700104 325.7371397 17.77648258 C316.5826464 17.76154522 307.42830814 17.77145609 298.27382366 17.78800177 C283.4112637 17.81446711 268.54873851 17.82532156 253.68615627 17.8242712 C252.35186107 17.82418372 252.35186107 17.82418372 250.99061041 17.82409447 C247.38644572 17.82382862 243.78228104 17.82351134 240.17811636 17.82313121 C230.26054846 17.82216522 220.34298162 17.82349237 210.42541409 17.82622433 C209.53757385 17.82646422 208.64973361 17.82670411 207.73498912 17.82695127 C192.93048747 17.83135809 178.12601809 17.84759271 163.32153547 17.87144512 C154.19049252 17.88551674 145.05957225 17.88839487 135.92852508 17.87682223 C129.6715242 17.86949852 123.41458511 17.87256043 117.15759017 17.88378067 C113.54760186 17.88985291 109.93778643 17.89094476 106.32780933 17.87890339 C102.41337358 17.865925 98.4991888 17.87601442 94.58474636 17.8882513 C92.87535678 17.87688722 92.87535678 17.87688722 91.13143408 17.86529356 C84.47491925 17.90950472 78.89640333 18.20154479 73.68322659 22.79521847 C70.28224386 27.38068138 69.30344655 29.53961328 69.17932034 35.22099972 C69.13001369 37.01150753 69.13001369 37.01150753 69.07971096 38.83818722 C69.01870403 41.36153763 68.96138891 43.88498011 68.90783596 46.40849972 C68.8736758 47.60474972 68.83951565 48.80099972 68.80432034 50.03349972 C68.76673611 51.6797131 68.76673611 51.6797131 68.7283926 53.35918331 C68.42860686 56.2294929 68.02129925 57.87979297 66.42541409 60.26006222 C62.76328062 62.70148453 60.95484937 62.52931495 56.5865469 62.5664587 C55.89509579 62.57478222 55.20364468 62.58310574 54.4912405 62.59168148 C52.20361613 62.61578975 49.91627706 62.62455578 47.62853909 62.63115597 C46.03533754 62.64012391 44.44213686 62.64924579 42.84893703 62.65851498 C39.50657004 62.67501131 36.16430326 62.68270585 32.82189846 62.68559933 C28.55012657 62.69097428 24.27930433 62.72861361 20.0078001 62.77434349 C16.71511354 62.80417253 13.42265362 62.81132419 10.12984371 62.81232548 C8.55583009 62.81651866 6.98181524 62.82891678 5.40793514 62.84984303 C-8.43527209 63.01920031 -8.43527209 63.01920031 -12.9447031 59.92632198 C-19.84842533 52.92710638 -20.14341835 46.00174723 -20.12146091 36.50615597 C-20.11308201 35.72611202 -20.1047031 34.94606808 -20.09607029 34.14238644 C-20.07463233 31.7652093 -20.09592726 29.3910533 -20.12146091 27.01396847 C-20.13565302 19.29620011 -20.13124617 12.81026134 -15.57458591 6.26006222 C-10.59935331 1.53359124 -6.8295208 0.01127629 0 0 Z " fill="#FEEAD0" transform="translate(67.57458591461182,323.7399377822876)"/>
<path d="M0 0 C10.36977996 1.35156683 20.13431964 4.66486165 30 8 C30.67691895 8.22671387 31.35383789 8.45342773 32.05126953 8.68701172 C49.38274591 14.57574969 67.98947498 22.42780298 83 33 C84.2946297 36.88388909 83.11176395 39.18371368 81.8125 42.875 C79.65938579 49.3644456 78.07464775 55.84376324 76.8125 62.5625 C76.581073 63.78138916 76.581073 63.78138916 76.3449707 65.02490234 C73.99743847 77.94460006 72.59174112 90.6713514 72.625 103.8125 C72.62432022 104.87242661 72.62432022 104.87242661 72.62362671 105.95376587 C72.6495892 119.88742469 74.26693349 133.32963416 77 147 C77.15436523 147.77472656 77.30873047 148.54945313 77.46777344 149.34765625 C78.06683302 152.29812657 78.69907542 155.23684102 79.38671875 158.16796875 C80.09277956 161.42844066 80.5594983 164.69417882 81 168 C76.78151061 163.94740626 73.07128918 159.59210096 69.375 155.0625 C68.75890869 154.31105713 68.14281738 153.55961426 67.50805664 152.78540039 C63.31387833 147.65351473 59.19042409 142.47064828 55.11694336 137.24267578 C51.61683676 132.75798427 48.03760546 128.34216853 44.4375 123.9375 C40.55012105 119.17831289 36.72659912 114.38625395 33 109.5 C29.16433333 104.47352178 25.23727676 99.53206902 21.25 94.625 C20.71890625 93.97080078 20.1878125 93.31660156 19.640625 92.64257812 C18.60859871 91.37705588 17.5676978 90.11871334 16.51757812 88.86816406 C15 87 15 87 13.59179688 84.96777344 C10.86381985 81.15835451 10.86381985 81.15835451 6.62207031 79.56494141 C4.37037908 79.56273991 2.22840929 79.6880227 0 80 C0.04461181 61.88760524 3.7496113 44.40750075 8.66796875 27.01953125 C10.54388572 20.25661639 11.4472875 14.06156971 8.375 7.5625 C5.82268502 4.80868646 3.19088094 2.95804058 0 1 C0 0.67 0 0.34 0 0 Z " fill="#BEF991" transform="translate(79,84)"/>
<path d="M0 0 C0.639375 -0.01546875 1.27875 -0.0309375 1.9375 -0.046875 C5.39425905 1.288691 7.32993252 3.54570537 9 6.75 C9.75222999 10.95168481 9.72132452 15.10720713 9.70703125 19.3671875 C9.72215256 20.57948029 9.73727386 21.79177307 9.75285339 23.040802 C9.79574679 26.90239032 9.80457071 30.76319713 9.8125 34.625 C9.83564278 37.24741663 9.86100764 39.86981467 9.88867188 42.4921875 C9.95154096 48.91146574 9.98646187 55.33043838 10 61.75 C10.55429687 61.18410156 11.10859375 60.61820313 11.6796875 60.03515625 C12.40414062 59.30167969 13.12859375 58.56820312 13.875 57.8125 C14.59429687 57.08160156 15.31359375 56.35070312 16.0546875 55.59765625 C19.18020905 52.62903839 21.64427948 52.3434048 25.95703125 52.40625 C28 52.75 28 52.75 31 54.875 C33 57.75 33 57.75 33.75 60.5625 C31.95431922 68.1941433 23.99036679 73.82083121 18.52734375 79.0625 C17.69332031 79.949375 16.85929687 80.83625 16 81.75 C15.49222519 82.24262329 14.98445038 82.73524658 14.46128845 83.24279785 C8.68730955 89.63231378 9.22315791 96.32302896 9.4140625 104.53125 C9.42527171 105.95469361 9.43380374 107.37816058 9.43978882 108.80163574 C9.46255286 112.52418427 9.52136279 116.24529828 9.5880127 119.96728516 C9.64970775 123.77486776 9.67686139 127.58268521 9.70703125 131.390625 C9.77112328 138.84439964 9.8733453 146.29699781 10 153.75 C10.82024658 153.10426025 11.64049316 152.45852051 12.4855957 151.79321289 C19.18319542 146.55751587 25.93503951 141.64097328 33.1875 137.1875 C34.01830078 136.66865234 34.84910156 136.14980469 35.70507812 135.61523438 C44.57151557 130.09625582 44.57151557 130.09625582 51 130.75 C54.69186542 133.34216083 55.82883761 134.79149064 56.625 139.25 C55.86950977 143.48074528 54.21075088 145.14132399 51 147.75 C48.02832759 149.78442494 44.95787318 151.63986977 41.875 153.5 C34.39952631 158.11868612 27.57140189 162.89356664 21 168.75 C19.59041016 169.99716797 19.59041016 169.99716797 18.15234375 171.26953125 C12.82101797 175.18495538 12.82101797 175.18495538 9.84178162 180.50270081 C9.81846519 181.64520546 9.81846519 181.64520546 9.79467773 182.81079102 C9.77473251 183.67160782 9.75478729 184.53242462 9.73423767 185.41932678 C9.71752518 186.35473801 9.70081268 187.29014923 9.68359375 188.25390625 C9.66281265 189.20692123 9.64203156 190.15993622 9.62062073 191.14183044 C9.55501823 194.1986441 9.49619082 197.25554656 9.4375 200.3125 C9.39432494 202.37956663 9.35071099 204.44662414 9.30664062 206.51367188 C9.19932599 211.59235595 9.09808909 216.6711297 9 221.75 C3.06 221.75 -2.88 221.75 -9 221.75 C-8.98839844 219.82285156 -8.97679687 217.89570313 -8.96484375 215.91015625 C-8.93578149 209.51968844 -8.9437754 203.13009259 -8.97665405 196.73965454 C-8.99523549 192.86753835 -8.99926226 188.99658029 -8.96923828 185.12451172 C-8.94077229 181.38261582 -8.95156848 177.64264686 -8.98880005 173.90084839 C-8.99620691 172.47842799 -8.98982079 171.0558622 -8.96896362 169.63357544 C-8.73538579 161.49552909 -8.73538579 161.49552909 -11.7129364 154.15557861 C-13.70903401 152.12843204 -15.71051003 150.43277321 -18 148.75 C-19.27945835 147.68482655 -20.55713045 146.61749916 -21.83203125 145.546875 C-23.15252489 144.52303432 -24.47957262 143.50760001 -25.8125 142.5 C-26.52736572 141.95424316 -27.24223145 141.40848633 -27.97875977 140.84619141 C-34.38357824 136.04205942 -41.0787915 131.75567455 -47.9309082 127.62011719 C-49.07692505 126.92257324 -49.07692505 126.92257324 -50.24609375 126.2109375 C-51.26207642 125.60451416 -51.26207642 125.60451416 -52.29858398 124.98583984 C-54 123.75 -54 123.75 -56 120.75 C-56.56551375 116.38746537 -56.49322651 114.45247412 -53.9375 110.8125 C-50.18851914 108.18023684 -48.52844283 108.28554433 -44 108.75 C-41.18295981 109.84946617 -38.69135929 111.34821834 -36.125 112.9375 C-35.48820312 113.30552734 -34.85140625 113.67355469 -34.1953125 114.05273438 C-25.63478923 119.20039751 -17.87269424 125.62685936 -10 131.75 C-9.81378949 123.57837775 -9.67207194 115.4076566 -9.58550262 107.23443031 C-9.54393063 103.43823392 -9.48764681 99.64349956 -9.39648438 95.84814453 C-9.30889378 92.17809296 -9.26159093 88.50943778 -9.24098206 84.83842087 C-9.22631672 83.44533701 -9.1976782 82.05232081 -9.15415955 80.65983963 C-8.88704589 71.75013149 -9.78573631 66.41075719 -15.94062805 59.77032471 C-16.62022079 59.10361755 -17.29981354 58.4369104 -18 57.75 C-19.1504326 56.52408748 -20.30031183 55.29765498 -21.44921875 54.0703125 C-22.52343629 52.99995443 -23.6027623 51.93469516 -24.6875 50.875 C-25.22955078 50.33359375 -25.77160156 49.7921875 -26.33007812 49.234375 C-28.74867188 46.84203859 -31.08887199 44.6837455 -33.82421875 42.64453125 C-36.2938009 40.49417695 -36.7803144 39.52029985 -37.125 36.3125 C-37.32872857 32.68133788 -37.08603259 31.8817374 -35 28.6875 C-31.06137604 26.14380536 -29.62331529 25.7647033 -25 26.75 C-22.21041534 28.64323163 -19.68183044 30.69242288 -17.13671875 32.90234375 C-15.13919325 34.78321721 -15.13919325 34.78321721 -13 35.75 C-10.0878952 32.50717085 -9.63942891 30.41807161 -9.6640625 26.1015625 C-9.65117187 25.01359375 -9.63828125 23.925625 -9.625 22.8046875 C-9.625 20.52602827 -9.63275902 18.24735529 -9.6484375 15.96875 C-9.51579466 6.61742975 -9.51579466 6.61742975 -6.7109375 3.0078125 C-3.01198579 -0.07287062 -3.01198579 -0.07287062 0 0 Z " fill="#9CEB63" transform="translate(256,102.25)"/>
<path d="M0 0 C5.38641917 2.06006909 8.75575089 7.44846582 12.2265625 11.8515625 C13.12493148 12.97010712 14.02336966 14.08859616 14.921875 15.20703125 C17.2568354 18.13773427 19.55530093 21.09528613 21.84423828 24.06201172 C24.08329879 26.96068949 26.34075956 29.84482617 28.6015625 32.7265625 C29.05007568 33.29866455 29.49858887 33.8707666 29.96069336 34.46020508 C34.04419788 39.65234683 38.21390142 44.77250174 42.39013672 49.89013672 C45.88163598 54.17567549 49.32459937 58.4946842 52.7265625 62.8515625 C57.85813972 69.42328286 63.10811226 75.89513148 68.37890625 82.35546875 C68.87052246 82.96503418 69.36213867 83.57459961 69.86865234 84.20263672 C70.99813895 85.57418519 72.18582155 86.89755383 73.38671875 88.20703125 C76.0566196 92.04465944 77.26354357 96.1878876 78.7265625 100.6015625 C84.86049355 118.22918459 92.88846391 135.28907148 103.2265625 150.8515625 C104.56261978 152.95400063 105.89606327 155.05810264 107.2265625 157.1640625 C108.22554986 158.72721013 109.22514206 160.28997249 110.2265625 161.8515625 C105.96034939 160.30741112 103.79400208 157.09884773 101.1640625 153.6015625 C100.690896 152.98837158 100.21772949 152.37518066 99.73022461 151.7434082 C97.70720465 149.12045589 95.70338268 146.48338757 93.70800781 143.83935547 C92.71689464 142.52762587 91.72194685 141.21878347 90.72290039 139.91308594 C89.7832702 138.68499103 88.85239404 137.45013723 87.93139648 136.20800781 C85.50068404 133.03795176 84.17602465 131.43384699 80.2265625 130.8515625 C77.72455106 130.75680288 75.25158032 130.71142915 72.75 130.71875 C72.024711 130.71779327 71.299422 130.71683655 70.55215454 130.71585083 C69.01735345 130.71517136 67.48254945 130.7170094 65.94775391 130.72119141 C63.63046574 130.72649633 61.31337554 130.72126281 58.99609375 130.71484375 C51.34635882 130.71149254 43.82936607 130.94607246 36.2265625 131.8515625 C34.10403553 131.99769585 31.97842436 132.1098931 29.8515625 132.1640625 C28.38589844 132.22013672 28.38589844 132.22013672 26.890625 132.27734375 C23.43940839 131.72575634 22.31215782 130.60977441 20.2265625 127.8515625 C19.2727389 121.17479729 19.2727389 121.17479729 22.1328125 117.20703125 C26.38150472 113.97223149 30.06991426 113.64739427 35.2890625 113.1015625 C36.24828613 112.98578857 37.20750977 112.87001465 38.19580078 112.75073242 C47.8457319 111.64786056 57.52263304 111.15678371 67.2265625 110.8515625 C66.40414062 109.84738281 65.58171875 108.84320313 64.734375 107.80859375 C58.65423053 100.36591088 52.67357952 92.87400355 46.84765625 85.23046875 C43.19773803 80.4854321 39.39571115 75.86195668 35.60351562 71.23046875 C35.07822266 70.58851563 34.55292969 69.9465625 34.01171875 69.28515625 C33.51430176 68.68429199 33.01688477 68.08342773 32.50439453 67.46435547 C31.2265625 65.8515625 31.2265625 65.8515625 29.78515625 63.51171875 C25.98259228 59.46136865 18.71656925 59.42605008 13.46484375 58.921875 C12.00188113 58.76499286 10.53899238 58.60742054 9.07617188 58.44921875 C6.79906762 58.20931615 4.52180056 57.9748776 2.24291992 57.75244141 C0.02326368 57.53292805 -2.19315212 57.29155135 -4.41015625 57.046875 C-5.08938644 56.98629913 -5.76861664 56.92572327 -6.46842957 56.86331177 C-9.74918159 56.48612928 -11.5834232 56.00607367 -14.17114258 53.90185547 C-16.86816887 50.4507467 -17.28900632 48.23389745 -16.7734375 43.8515625 C-14.95703125 41.171875 -14.95703125 41.171875 -11.7734375 38.8515625 C-7.98395894 38.23855862 -4.28687988 38.37995421 -0.4609375 38.5390625 C1.07916992 38.57290039 1.07916992 38.57290039 2.65039062 38.60742188 C5.1772804 38.66618675 7.70116505 38.74828401 10.2265625 38.8515625 C9.19208984 37.65273437 9.19208984 37.65273437 8.13671875 36.4296875 C-10.37438912 14.84442531 -10.37438912 14.84442531 -11.1484375 9.0390625 C-10.7734375 5.8515625 -10.7734375 5.8515625 -8.7734375 2.9765625 C-5.79195555 0.86467945 -3.71544825 -0.26439519 0 0 Z " fill="#9CEB63" transform="translate(85.7734375,162.1484375)"/>
<path d="M0 0 C3.53836039 0.72970078 5.00266818 2.53166754 7.0078125 5.4140625 C7.7294011 9.18235851 7.3672804 10.82098357 5.37890625 14.1015625 C2.63637951 18.06203795 -0.43171618 21.76027589 -3.4921875 25.4765625 C-4.62773877 26.86317103 -5.76315854 28.24988726 -6.8984375 29.63671875 C-7.42953125 30.28398926 -7.960625 30.93125977 -8.5078125 31.59814453 C-10.35355602 33.85614458 -12.17686313 36.13155906 -13.9921875 38.4140625 C-13.35192627 38.3826416 -12.71166504 38.3512207 -12.05200195 38.31884766 C-9.13659337 38.19373189 -6.22174941 38.11597185 -3.3046875 38.0390625 C-2.29728516 37.98878906 -1.28988281 37.93851563 -0.25195312 37.88671875 C7.01810825 37.74275714 7.01810825 37.74275714 9.82836914 39.64892578 C12.35822854 42.50713529 13.00432523 44.21180091 13.0703125 48.0390625 C11.89857212 51.76106134 11.01916165 53.00974797 8.0078125 55.4140625 C5.17382812 56.09594727 5.17382812 56.09594727 1.9140625 56.35546875 C0.1196875 56.51885742 0.1196875 56.51885742 -1.7109375 56.68554688 C-2.95875 56.78158203 -4.2065625 56.87761719 -5.4921875 56.9765625 C-21.99840895 57.44658282 -21.99840895 57.44658282 -35.83984375 64.93359375 C-36.94179387 66.34135613 -38.01287937 67.77372913 -39.0546875 69.2265625 C-39.63774658 69.98557861 -40.22080566 70.74459473 -40.8215332 71.52661133 C-42.00630745 73.07249661 -43.17897587 74.62774117 -44.33886719 76.19238281 C-46.28330151 78.80525233 -48.29873883 81.35440564 -50.32788086 83.90161133 C-51.66783282 85.58665476 -52.99420193 87.28147427 -54.31640625 88.98046875 C-57.65276665 93.26653263 -61.01629805 97.53116264 -64.37768555 101.79760742 C-66.6170028 104.64493731 -68.83462368 107.50419024 -70.9921875 110.4140625 C-69.13980469 110.48753906 -69.13980469 110.48753906 -67.25 110.5625 C-58.54183929 110.93468061 -49.85237605 111.40364534 -41.1796875 112.2890625 C-40.0980835 112.38840088 -40.0980835 112.38840088 -38.99462891 112.48974609 C-34.09354424 113.02818805 -30.32658876 114.16256674 -25.9921875 116.4140625 C-23.84927731 119.62842779 -23.69192959 121.58832859 -23.53125 125.37890625 C-24.21560201 128.40049435 -25.55215247 129.56045606 -27.9921875 131.4140625 C-30.62109375 131.83984375 -30.62109375 131.83984375 -33.5546875 131.7265625 C-34.50472656 131.70207031 -35.45476562 131.67757812 -36.43359375 131.65234375 C-38.36927955 131.52273142 -40.30495388 131.3808547 -42.23413086 131.17602539 C-50.20574899 130.33941811 -58.1217336 130.22790203 -66.12866211 130.22875977 C-68.4498857 130.22654321 -70.77065504 130.20823298 -73.09179688 130.18945312 C-74.5781234 130.1865236 -76.06445214 130.18453586 -77.55078125 130.18359375 C-78.23933701 130.17640823 -78.92789276 130.16922272 -79.63731384 130.16181946 C-83.25727242 130.17908925 -85.96929254 130.33771289 -88.9921875 132.4140625 C-90.75697529 134.44298794 -92.38319488 136.4560443 -93.9921875 138.6015625 C-94.95621423 139.85869986 -95.92109028 141.11518629 -96.88671875 142.37109375 C-97.38896973 143.02803223 -97.8912207 143.6849707 -98.40869141 144.36181641 C-101.11917904 147.87466856 -103.90091425 151.33015538 -106.6796875 154.7890625 C-107.70445717 156.06768422 -108.72919947 157.34632788 -109.75390625 158.625 C-110.49253906 159.54539062 -111.23117187 160.46578125 -111.9921875 161.4140625 C-112.6521875 161.0840625 -113.3121875 160.7540625 -113.9921875 160.4140625 C-113.55390625 159.87523437 -113.115625 159.33640625 -112.6640625 158.78125 C-99.64101005 141.89363321 -89.17886228 120.97616456 -82.79956055 100.63525391 C-79.95845349 91.64739393 -75.84450138 85.84164483 -69.43896484 79.00878906 C-67.00823348 76.32948814 -64.82311126 73.46633073 -62.6171875 70.6015625 C-58.63942808 65.48546172 -54.59091405 60.433736 -50.4921875 55.4140625 C-44.56729613 48.15092683 -38.75948481 40.80262055 -32.9921875 33.4140625 C-27.05134412 25.80317237 -21.06899523 18.22961177 -14.9921875 10.7265625 C-14.43998535 10.04287598 -13.8877832 9.35918945 -13.31884766 8.65478516 C-12.53840088 7.69451416 -12.53840088 7.69451416 -11.7421875 6.71484375 C-11.28328125 6.14934814 -10.824375 5.58385254 -10.3515625 5.0012207 C-9.67867187 4.21557739 -9.67867187 4.21557739 -8.9921875 3.4140625 C-8.52039063 2.86129639 -8.04859375 2.30853027 -7.5625 1.73901367 C-5.24922593 -0.21281132 -2.93168053 -0.1189981 0 0 Z " fill="#9CEB63" transform="translate(429.9921875,162.5859375)"/>
<path d="M0 0 C13.0949477 5.76177699 24.41515285 15.52168433 35 25 C35.87186447 25.74267624 36.74372894 26.48535248 37.64201355 27.25053406 C40.53587249 30.62483954 40.61022838 32.14647658 40.56762695 36.53442383 C40.5672493 37.83539505 40.56687164 39.13636627 40.56648254 40.47676086 C40.54095295 41.88686083 40.51487303 43.29695092 40.48828125 44.70703125 C40.47894903 46.15718871 40.47183485 47.607362 40.46684265 49.05754089 C40.44780435 52.863759 40.39873306 56.66901432 40.34332275 60.47485352 C40.29206055 64.36266049 40.26931387 68.25062393 40.24414062 72.13867188 C40.19060936 79.75955224 40.10533738 87.37964092 40 95 C32.84717417 95.20311303 25.6950933 95.34304981 18.54003906 95.43945312 C16.1071392 95.47964492 13.6744321 95.53420973 11.2421875 95.60351562 C7.74170397 95.70075128 4.2437766 95.74597077 0.7421875 95.78125 C-0.34240753 95.82254028 -1.42700256 95.86383057 -2.54446411 95.90637207 C-9.9768812 95.91077242 -9.9768812 95.91077242 -13.06048584 93.16577148 C-14.56767487 91.17113872 -15.84374907 89.21374537 -17 87 C-14.70681868 87 -12.41342367 87.10235976 -10.125 87.25 C-7.09913868 87.22213756 -5.88408363 86.94327497 -3.0625 85.5625 C0.14268193 81.58030427 0.15448919 76.94463662 -0.10900879 71.92224121 C-0.33867235 69.86233959 -0.62171968 67.81640159 -0.921875 65.765625 C-2.12714339 56.31967278 -2.30538957 46.98012377 -2.26074219 37.46679688 C-2.24995278 34.7380583 -2.26075032 32.00996976 -2.2734375 29.28125 C-2.28018337 19.32839017 -1.80366488 9.81538814 0 0 Z " fill="#BEF991" transform="translate(207,229)"/>
<path d="M0 0 C13.16757159 10.48031208 13.16757159 10.48031208 14.61032104 18.31375122 C14.80797734 22.2536258 14.78921419 26.15749107 14.68359375 30.09765625 C14.67051292 31.54208459 14.6605605 32.98654431 14.65357971 34.43101501 C14.62704744 38.20474324 14.55846266 41.97653906 14.48065186 45.74951172 C14.4086156 49.61073676 14.3769829 53.47227884 14.34179688 57.33398438 C14.26706912 64.89019713 14.14784579 72.44482626 14 80 C12.56127664 79.04774052 11.12346405 78.09410492 9.68603516 77.13989258 C8.48486557 76.34353142 8.48486557 76.34353142 7.25942993 75.53108215 C4.54251601 73.68999013 1.95844244 71.71081554 -0.625 69.6875 C-7.40664404 64.53555336 -14.63367164 60.25677172 -22 56 C-19.29489243 39.23396872 -12.29550091 12.29550091 0 0 Z " fill="#BDF991" transform="translate(233,155)"/>
<path d="M0 0 C3.07021397 3.07021397 5.84114135 5.88962165 8.55078125 9.20703125 C9.16630859 9.95791016 9.78183594 10.70878906 10.41601562 11.48242188 C11.04185547 12.25134766 11.66769531 13.02027344 12.3125 13.8125 C13.28026367 14.99489258 13.28026367 14.99489258 14.26757812 16.20117188 C15.84747483 18.13215673 17.4248674 20.06512867 19 22 C14.99946975 23.14687016 11.35199929 22.89931716 7.25 22.5625 C4.8575 22.376875 2.465 22.19125 0 22 C0 14.74 0 7.48 0 0 Z " fill="#BDF990" transform="translate(78,179)"/>
<path d="M0 0 C0.33 0 0.66 0 1 0 C1 10.89 1 21.78 1 33 C0.01 33 -0.98 33 -2 33 C-2.66 31.68 -3.32 30.36 -4 29 C-3.5155542 28.46084961 -3.0311084 27.92169922 -2.53198242 27.36621094 C-0.63893317 24.44231717 -0.57664538 22.60449872 -0.48828125 19.140625 C-0.45283203 18.02558594 -0.41738281 16.91054687 -0.38085938 15.76171875 C-0.35830078 14.60285156 -0.33574219 13.44398437 -0.3125 12.25 C-0.27833984 11.07566406 -0.24417969 9.90132812 -0.20898438 8.69140625 C-0.12654827 5.79436611 -0.05738189 2.89762702 0 0 Z " fill="#A6ED71" transform="translate(247,109)"/>
<path d="M0 0 C3.82053924 1.27351308 4.23021375 2.62637525 6.1875 6.0625 C6.71730469 6.98160156 7.24710938 7.90070313 7.79296875 8.84765625 C8.19128906 9.55792969 8.58960938 10.26820313 9 11 C5.84555525 9.65194669 4.18777177 8.32292677 2.25 5.5 C1.82203125 4.8915625 1.3940625 4.283125 0.953125 3.65625 C0 2 0 2 0 0 Z " fill="#A2EE6C" transform="translate(187,313)"/>
<path d="M0 0 C0.33 0 0.66 0 1 0 C1 2.97 1 5.94 1 9 C-0.32 8.01 -1.64 7.02 -3 6 C-1.125 1.125 -1.125 1.125 0 0 Z " fill="#BDF991" transform="translate(246,134)"/>
</svg>
