<?xml version="1.0" encoding="UTF-8"?>
<svg version="1.1" xmlns="http://www.w3.org/2000/svg" width="512" height="512">
<path d="M0 0 C94.38 0 188.76 0 286 0 C286 11.55 286 23.1 286 35 C290.29 35 294.58 35 299 35 C301.50448372 48.44644761 303.47031553 61.94390665 305.34033203 75.49145508 C305.6649379 77.8259732 305.98981958 80.16045298 306.3149519 82.49489784 C307.19753844 88.83755926 308.07627077 95.18074933 308.95432878 101.52403903 C309.79782923 107.61539702 310.64492774 113.70625516 311.49165342 119.79716549 C313.20238163 132.10399474 314.91026281 144.41121741 316.61636353 156.71868896 C318.2879513 168.77717069 319.96061962 180.8355016 321.63485718 192.89361572 C321.79052753 194.01478461 321.79052753 194.01478461 321.94934274 195.15860337 C322.4742884 198.93931589 322.9992578 202.72002512 323.52424109 206.50073242 C324.576695 214.08008398 325.62901654 221.65945391 326.68128967 229.23883057 C326.83755429 230.36437358 326.83755429 230.36437358 326.99697577 231.51265484 C328.57790196 242.8999264 330.15804704 254.28730619 331.73777771 265.67474365 C336.51149949 300.08520433 341.29309987 334.49454872 346.08755493 368.90212822 C346.99479281 375.41321889 347.9015335 381.92437872 348.80810547 388.43556213 C348.95281257 389.47486266 349.09751967 390.51416318 349.24661183 391.58495766 C349.81681851 395.68030959 350.38700787 399.77566394 350.95715094 403.87102473 C352.44561726 414.5626923 353.93484129 425.25425282 355.42657471 435.94546509 C356.55521314 444.03441171 357.68206618 452.12360438 358.80646473 460.2131415 C359.36833703 464.25510665 359.93109587 468.29694297 360.4963131 472.33844185 C361.00510665 475.97651457 361.51144445 479.61491988 362.01574111 483.2536186 C362.2835775 485.18133171 362.55411348 487.10866915 362.82473946 489.03599262 C363.05993451 490.73851578 363.05993451 490.73851578 363.29988098 492.47543335 C363.43618329 493.45364233 363.5724856 494.43185131 363.71291828 495.43970299 C364 498 364 498 364 502 C353.11 502 342.22 502 331 502 C328.74995138 491.8747812 328.74995138 491.8747812 328.15206909 487.61001587 C328.0146933 486.64276581 327.8773175 485.67551575 327.73577881 484.67895508 C327.59335754 483.6500415 327.45093628 482.62112793 327.30419922 481.56103516 C327.14785004 480.45263275 326.99150085 479.34423035 326.83041382 478.20223999 C326.31830045 474.56500107 325.81137588 470.92706079 325.3046875 467.2890625 C324.9490783 464.75316839 324.59320895 462.21731076 324.23709106 459.68148804 C323.49353354 454.3812329 322.75233746 449.08065559 322.01318359 443.77978516 C321.15882405 437.6528933 320.30045087 431.52657425 319.43984973 425.40055621 C318.61026638 419.49495864 317.78306528 413.58902951 316.95703506 407.68293381 C316.60589086 405.17336061 316.25421518 402.66386172 315.90200424 400.15443802 C315.41161373 396.65744177 314.92392012 393.16008021 314.43701172 389.66259766 C314.21730713 388.10100922 314.21730713 388.10100922 313.99316406 386.50787354 C313.86142792 385.55754242 313.72969177 384.6072113 313.59396362 383.62808228 C313.42087583 382.38875159 313.42087583 382.38875159 313.24429131 381.12438393 C313 379 313 379 313 376 C282.64 376 252.28 376 221 376 C220.34 381.94 219.68 387.88 219 394 C218.48410305 397.99019786 217.9568404 401.97399058 217.39599609 405.95751953 C217.24940048 407.01353363 217.10280487 408.06954773 216.95176697 409.15756226 C216.47798824 412.56630833 216.0007611 415.97456118 215.5234375 419.3828125 C215.1897762 421.77844282 214.85633487 424.17410378 214.52310181 426.5697937 C213.65399889 432.8137216 212.78194843 439.05723424 211.90924072 445.30065918 C211.01580535 451.69628052 210.12521726 458.09229829 209.234375 464.48828125 C207.49233784 476.99257305 205.7469166 489.49638895 204 502 C192.78 502 181.56 502 170 502 C170.97526771 494.4881469 171.95269147 486.97664278 172.93579102 479.46582031 C173.26977379 476.90902371 173.60245999 474.35205739 173.93383789 471.79492188 C174.40953719 468.12585102 174.88984964 464.45740967 175.37109375 460.7890625 C175.51904892 459.64007477 175.66700409 458.49108704 175.81944275 457.30728149 C175.95951248 456.2463327 176.09958221 455.18538391 176.24389648 454.09228516 C176.36603012 453.15518707 176.48816376 452.21808899 176.61399841 451.25259399 C177 449 177 449 178 447 C104.41 447 30.82 447 -45 447 C-45.99 455.25 -46.98 463.5 -48 472 C-48.68681585 477.15111888 -49.38313426 482.2948867 -50.125 487.4375 C-50.29386719 488.64341797 -50.46273437 489.84933594 -50.63671875 491.09179688 C-50.80042969 492.23583984 -50.96414062 493.37988281 -51.1328125 494.55859375 C-51.27605957 495.56204834 -51.41930664 496.56550293 -51.56689453 497.59936523 C-52 500 -52 500 -53 502 C-63.89 502 -74.78 502 -86 502 C-84.36513029 486.25544265 -82.20507302 470.59318866 -80.01423395 454.91846538 C-79.46751529 451.00282118 -78.92370399 447.08677301 -78.3795166 443.17077637 C-77.43555829 436.38085441 -76.48980433 429.59118456 -75.54281044 422.80168533 C-74.15727457 412.86798725 -72.77458508 402.9338945 -71.39252534 392.99971227 C-69.12778352 376.72138251 -66.86085971 360.44335741 -64.5925293 344.16552734 C-62.42807953 328.63311972 -60.26450535 313.10059062 -58.10229492 297.56787109 C-57.97078711 296.62316032 -57.83927929 295.67844955 -57.70378639 294.70511118 C-56.77839487 288.05731939 -55.85305911 281.40951984 -54.92773438 274.76171875 C-53.87917216 267.22857221 -52.83058533 259.6954291 -51.7819519 252.16229248 C-51.65313235 251.23687506 -51.5243128 250.31145764 -51.39158963 249.35799727 C-49.58940687 236.41166084 -47.78626259 223.46545864 -45.98238592 210.51935813 C-44.85741649 202.44554269 -43.73261668 194.37170363 -42.60791016 186.29785156 C-42.48675769 185.42815406 -42.36560521 184.55845657 -42.24078146 183.6624046 C-39.06100954 160.83543149 -35.88973482 138.00730723 -32.73314488 115.17711663 C-32.18091197 111.18321826 -31.62823741 107.18938114 -31.07548428 103.19555473 C-30.72505847 100.66344111 -30.37463555 98.13132709 -30.0242157 95.59921265 C-29.77218877 93.77816523 -29.77218877 93.77816523 -29.51507038 91.92032897 C-28.55176634 84.95777775 -27.59106368 77.99487402 -26.63245153 71.03167534 C-26.06274068 66.89729061 -25.4907873 62.76321851 -24.91818833 58.62923288 C-24.65909728 56.75490566 -24.40101259 54.880439 -24.14402175 53.00582266 C-23.80015442 50.49801272 -23.45285711 47.99070183 -23.10466003 45.48348999 C-23.00612663 44.7582827 -22.90759323 44.0330754 -22.80607396 43.28589213 C-22.40146923 40.39532855 -21.92587403 37.7776221 -21 35 C-14.07 35 -7.14 35 0 35 C0 23.45 0 11.9 0 0 Z " fill="#C65B56" transform="translate(117,5)"/>
<path d="M0 0 C57.09 0 114.18 0 173 0 C173.99 6.435 173.99 6.435 175 13 C178.65805571 20.13766967 182.47659812 24.11795836 190 27 C192.65532253 27.7317473 195.31745219 28.3703072 198 29 C196.98335528 38.58038138 195.88301104 48.14631503 194.6328125 57.69921875 C194.43828239 59.18714935 194.43828239 59.18714935 194.23982239 60.70513916 C192.94229755 70.55450796 191.54411648 80.38861612 190.12463379 90.22103882 C189.35944404 95.52314561 188.59971168 100.82603456 187.83984375 106.12890625 C187.68589142 107.20284134 187.53193909 108.27677643 187.37332153 109.383255 C185.80819805 120.31465303 184.27359298 131.25024424 182.75 142.1875 C182.62379272 143.09343903 182.49758545 143.99937805 182.36755371 144.93276978 C180.93217757 155.24287223 179.50592038 165.55414046 178.10791016 175.86938477 C176.96531357 184.29047003 175.79501568 192.70769093 174.625 201.125 C174.46485916 202.27742188 174.46485916 202.27742188 174.30148315 203.453125 C173.22054714 211.23140057 172.13838175 219.00950344 171.05351257 226.78723145 C167.97651617 248.85027439 164.96677298 270.92186696 162 293 C161.33395752 293.1139209 160.66791504 293.2278418 159.98168945 293.34521484 C152.36313039 294.73974209 146.45294291 296.77225039 141.3984375 302.9609375 C138.78895572 306.94383074 137.54715348 310.35853955 136 315 C79.24 315 22.48 315 -36 315 C-36.66 311.04 -37.32 307.08 -38 303 C-42.19276476 294.73093617 -47.13980341 290.22188967 -56 287 C-57.66239823 286.6459929 -59.32857169 286.30857138 -61 286 C-60.80476285 273.22084106 -58.9957795 260.78909187 -56.9453125 248.20019531 C-55.41834878 238.80941652 -54.08641981 229.4141149 -52.98876953 219.96240234 C-52.44369937 215.32037738 -51.80425479 210.72013171 -51.01171875 206.11328125 C-49.77174119 198.86247598 -48.96404133 191.57562684 -48.14453125 184.26757812 C-47.46442769 178.37700376 -46.58999626 172.58277496 -45.48632812 166.75756836 C-44.62698236 161.88492259 -44.07904334 156.97492749 -43.5 152.0625 C-41.96683354 139.40621089 -41.96683354 139.40621089 -41 134 C-39.9337952 128.02925312 -39.23415463 122.01861415 -38.5 116 C-37.65719624 109.09067806 -36.75504185 102.22823438 -35.53125 95.375 C-34.72706418 90.26605479 -34.12617482 85.13339355 -33.5 80 C-31.96036585 67.37804878 -31.96036585 67.37804878 -31 62 C-30.3288241 58.10893889 -29.75270557 54.22482727 -29.28125 50.3046875 C-29.15234375 49.25152344 -29.0234375 48.19835937 -28.890625 47.11328125 C-28.63685952 45.00956539 -28.38665596 42.90541569 -28.140625 40.80078125 C-27.38005873 34.45997329 -26.35665809 28.24097156 -25 22 C-23.97169067 21.73219727 -23.97169067 21.73219727 -22.92260742 21.45898438 C-14.11821199 19.10948935 -7.72495386 16.19249136 -3.0078125 8.16015625 C-1.78214968 5.53305726 -0.91672779 2.75018338 0 0 Z " fill="#FDB98C" transform="translate(146,73)"/>
<path d="M0 0 C1.30811646 -0.01562485 2.61623291 -0.03124969 3.96398926 -0.04734802 C7.53674957 -0.08794021 11.10769271 -0.07811784 14.68055463 -0.05651021 C17.66781737 -0.04328381 20.65475538 -0.05544859 23.64200538 -0.06771559 C30.68987233 -0.09648843 37.73686697 -0.08500047 44.78466797 -0.046875 C52.04779554 -0.00816158 59.30883531 -0.03109921 66.57181603 -0.0854035 C72.8176033 -0.13028642 79.06275107 -0.14007688 85.30867141 -0.12113374 C89.03488836 -0.10998529 92.75998092 -0.11128504 96.48608589 -0.14506721 C100.64045137 -0.18060855 104.79103957 -0.1427 108.9453125 -0.09765625 C110.17509323 -0.11744537 111.40487396 -0.1372345 112.67192078 -0.15762329 C120.83131723 0.01457565 120.83131723 0.01457565 123.96833611 3.03448677 C125.5014493 5.31459979 126.72288964 7.57643377 127.90795898 10.05102539 C130.16293331 13.15161509 131.84340941 15.00691517 135.02905273 17.18383789 C137.83424911 19.51197166 137.88759881 19.88915357 138.38061523 23.80883789 C138.27854913 25.26740634 138.13948853 26.72369332 137.97045898 28.17602539 C137.90197754 28.96589844 137.83349609 29.75577148 137.76293945 30.56958008 C137.07967478 37.79592417 135.93373932 44.95950176 134.72436523 52.11352539 C133.8743409 57.16349289 133.15533859 62.22628697 132.47045898 67.30102539 C132.35162354 68.18064941 132.23278809 69.06027344 132.11035156 69.96655273 C130.32238819 83.32087798 128.61869503 96.68663513 126.90795898 110.05102539 C125.95429443 110.07084473 125.00062988 110.09066406 124.01806641 110.11108398 C120.478736 110.18717554 116.93981482 110.275887 113.40087891 110.3684082 C111.86938559 110.40668337 110.33780283 110.44153888 108.80615234 110.47290039 C106.60408569 110.51858346 104.40263403 110.57657076 102.20092773 110.63696289 C101.51645065 110.6485141 100.83197357 110.66006531 100.12675476 110.67196655 C96.52335061 110.78376283 94.99204069 110.99497092 91.90795898 113.05102539 C91.40795898 116.05102539 91.40795898 116.05102539 91.90795898 119.05102539 C95.49218194 121.44050736 97.28028495 121.35335708 101.54467773 121.46508789 C102.8434082 121.50375977 104.14213867 121.54243164 105.48022461 121.58227539 C106.85196471 121.61373056 108.22370959 121.6449779 109.59545898 121.67602539 C110.97894683 121.71421736 112.36241121 121.75326981 113.74584961 121.79321289 C117.13299371 121.88762806 120.52045809 121.97042111 123.90795898 122.05102539 C123.57795898 127.33102539 123.24795898 132.61102539 122.90795898 138.05102539 C120.76763184 138.07608154 118.62730469 138.1011377 116.42211914 138.12695312 C109.36129898 138.2103195 102.30055314 138.29901915 95.23983192 138.39036465 C90.95768458 138.44559861 86.67553041 138.49901937 82.39331055 138.54833984 C78.2630241 138.59597642 74.13282197 138.64831897 70.00263596 138.70396614 C68.42455512 138.7243929 66.84645116 138.74310545 65.26832962 138.76009941 C63.0629971 138.78413636 60.85782447 138.81419173 58.65258789 138.84570312 C57.39572174 138.86124741 56.13885559 138.87679169 54.84390259 138.89280701 C51.97412066 138.85193011 51.97412066 138.85193011 49.90795898 140.05102539 C49.86554175 142.38397314 49.86702961 144.71805106 49.90795898 147.05102539 C51.77920395 148.92227036 54.94994377 148.22507529 57.44726562 148.25634766 C58.13016159 148.26624725 58.81305756 148.27614685 59.51664734 148.28634644 C61.78376751 148.31804474 64.05090867 148.34275152 66.31811523 148.36743164 C67.88610899 148.387994 69.45409712 148.40899027 71.02207947 148.43040466 C75.15666147 148.48569964 79.29129409 148.53507601 83.42596436 148.58325195 C87.64201382 148.63341292 91.85798941 148.68912713 96.07397461 148.74438477 C104.35190875 148.85205712 112.62990535 148.95296884 120.90795898 149.05102539 C120.24795898 154.66102539 119.58795898 160.27102539 118.90795898 166.05102539 C116.52802231 166.06315567 116.52802231 166.06315567 114.1000061 166.07553101 C99.17838018 166.15287362 84.25685469 166.24046338 69.33535194 166.33855247 C61.66328561 166.38872145 53.99123019 166.43516375 46.3190918 166.47290039 C39.63377632 166.50579256 32.94854452 166.54560819 26.26332128 166.59381545 C22.72198481 166.61910823 19.18070404 166.64088114 15.6393013 166.65436935 C11.69050422 166.66953873 7.74191119 166.70016217 3.79321289 166.73217773 C2.61285965 166.73433792 1.43250641 166.73649811 0.21638489 166.73872375 C-0.85496201 166.74988724 -1.9263089 166.76105072 -3.03012085 166.77255249 C-3.96481894 166.77808325 -4.89951702 166.78361401 -5.86253929 166.78931236 C-8.29567746 166.84143109 -8.29567746 166.84143109 -10.09204102 169.05102539 C-9.92761825 172.1209422 -9.92761825 172.1209422 -9.09204102 175.05102539 C-6.60636844 176.29386168 -4.92586199 176.18957413 -2.14401245 176.20924377 C-1.09790802 176.21903259 -0.05180359 176.22882141 1.02600098 176.23890686 C2.178302 176.24466232 3.33060303 176.25041779 4.51782227 176.25634766 C6.33242447 176.27119705 6.33242447 176.27119705 8.1836853 176.28634644 C11.50576975 176.31256844 14.82782973 176.33441631 18.14995432 176.35434842 C21.62000541 176.37619275 25.09001248 176.40358902 28.56002808 176.43040466 C35.13314093 176.4803526 41.7062782 176.52528361 48.27943885 176.56842703 C55.76183862 176.61778147 63.24419423 176.67270624 70.72655129 176.72810662 C86.12031331 176.8419589 101.51411651 176.94859326 116.90795898 177.05102539 C116.24795898 182.33102539 115.58795898 187.61102539 114.90795898 193.05102539 C58.80795898 193.05102539 2.70795898 193.05102539 -55.09204102 193.05102539 C-54.09204102 181.05102539 -54.09204102 181.05102539 -53.09204102 177.05102539 C-52.28460449 177.03120605 -51.47716797 177.01138672 -50.64526367 176.9909668 C-47.00218226 176.8959664 -43.35969415 176.78618627 -39.71704102 176.67602539 C-37.81051758 176.62961914 -37.81051758 176.62961914 -35.86547852 176.58227539 C-34.65375977 176.54360352 -33.44204102 176.50493164 -32.19360352 176.46508789 C-31.0729248 176.43366699 -29.95224609 176.40224609 -28.79760742 176.36987305 C-25.9449369 176.31691336 -25.9449369 176.31691336 -24.09204102 174.05102539 C-23.75870768 171.55102539 -23.75870768 171.55102539 -24.09204102 169.05102539 C-26.77052648 166.37253993 -28.23174963 166.74598533 -31.97485352 166.63696289 C-33.14145508 166.59829102 -34.30805664 166.55961914 -35.51000977 166.51977539 C-36.73333008 166.48883789 -37.95665039 166.45790039 -39.21704102 166.42602539 C-40.4480957 166.38735352 -41.67915039 166.34868164 -42.94750977 166.30883789 C-45.99543312 166.21432864 -49.04371691 166.13157916 -52.09204102 166.05102539 C-51.43204102 160.44102539 -50.77204102 154.83102539 -50.09204102 149.05102539 C-22.37204102 148.72102539 5.34795898 148.39102539 33.90795898 148.05102539 C33.90795898 145.74102539 33.90795898 143.43102539 33.90795898 141.05102539 C31.0417229 138.18478931 28.17770275 138.7433758 24.3371582 138.73217773 C23.55658051 138.72213211 22.77600281 138.71208649 21.97177124 138.70173645 C19.38540399 138.67078546 16.79914078 138.65383647 14.21264648 138.63696289 C12.42187599 138.6182608 10.63111439 138.59868812 8.84036255 138.57827759 C4.12218461 138.52684895 -0.59602193 138.48728083 -5.31433105 138.45013428 C-10.12702574 138.41016173 -14.93960033 138.35903869 -19.75219727 138.30883789 C-29.19873607 138.21195154 -38.645324 138.12861779 -48.09204102 138.05102539 C-47.43204102 132.77102539 -46.77204102 127.49102539 -46.09204102 122.05102539 C-43.0949707 121.97754883 -43.0949707 121.97754883 -40.03735352 121.90258789 C-38.10455344 121.84696774 -36.17175464 121.79127993 -34.23901367 121.73364258 C-32.2331713 121.67648503 -30.22705184 121.62933943 -28.22094727 121.58227539 C-26.96411133 121.54360352 -25.70727539 121.50493164 -24.41235352 121.46508789 C-23.24978027 121.43366699 -22.08720703 121.40224609 -20.8894043 121.36987305 C-17.9554762 121.3294467 -17.9554762 121.3294467 -16.09204102 119.05102539 C-15.75870768 116.05102539 -15.75870768 116.05102539 -16.09204102 113.05102539 C-18.77052648 110.37253993 -20.23174963 110.74598533 -23.97485352 110.63696289 C-25.72475586 110.57895508 -25.72475586 110.57895508 -27.51000977 110.51977539 C-28.73333008 110.48883789 -29.95665039 110.45790039 -31.21704102 110.42602539 C-32.4480957 110.38735352 -33.67915039 110.34868164 -34.94750977 110.30883789 C-37.99553477 110.21432549 -41.04354964 110.12877045 -44.09204102 110.05102539 C-42.97443592 98.66909978 -41.41662545 87.39930533 -39.62866211 76.10375977 C-38.27513535 67.46637037 -37.14673829 58.81511276 -36.10058594 50.13574219 C-35.38660841 44.25618921 -34.53814419 38.42915141 -33.49438477 32.59790039 C-32.90346481 28.85731968 -32.60980204 25.10398986 -32.33813477 21.32836914 C-32.09204102 19.05102539 -32.09204102 19.05102539 -31.09204102 16.05102539 C-28.52330231 14.29557247 -25.84992004 12.79685403 -23.14672852 11.25805664 C-20.2778783 9.18529402 -19.18952892 7.78803015 -17.21937561 4.97877502 C-12.35806022 -0.61370297 -7.01593886 -0.08356111 0 0 Z " fill="#FEDCA4" transform="translate(176.092041015625,98.948974609375)"/>
<path d="M0 0 C0.86099304 -0.00137466 1.72198608 -0.00274933 2.60906982 -0.00416565 C4.02894699 0.00122726 4.02894699 0.00122726 5.47750854 0.00672913 C6.47266479 0.0065831 7.46782104 0.00643707 8.49313354 0.00628662 C11.79377395 0.0069852 15.09435843 0.01477508 18.39498901 0.02259827 C20.67899545 0.02446264 22.96300229 0.02588645 25.24700928 0.02688599 C31.26729429 0.03070965 37.2875553 0.04053866 43.30783081 0.05158997 C49.44755732 0.06180733 55.5872877 0.06638431 61.72702026 0.07142639 C73.78041625 0.08216104 85.83379439 0.09923566 97.88717651 0.12025452 C96.77599801 9.16586714 95.61783672 18.19843254 94.30905151 27.21791077 C93.8910424 30.19712159 93.47660018 33.17681143 93.06295776 36.15663147 C92.77871596 38.17680188 92.48767855 40.19602759 92.18991089 42.21424866 C90.39872679 54.40436112 89.42819258 64.94864408 91.88717651 77.12025452 C92.22714551 79.21945103 92.56070996 81.31969702 92.88717651 83.42103577 C93.21965808 85.42508352 93.55299958 87.42898878 93.88717651 89.43275452 C95.20775601 97.49657711 96.34234116 105.53531495 97.17062378 113.66346741 C97.71978548 118.93099775 98.47271242 124.14354383 99.32467651 129.37025452 C100.53892383 136.82314247 101.62176625 144.2837089 102.6257019 151.76771545 C103.40520561 157.57632301 104.19928954 163.38262943 105.01217651 169.18666077 C108.61493918 194.92826237 108.61493918 194.92826237 110.07467651 206.19837952 C110.17189499 206.94890091 110.26911346 207.6994223 110.36927795 208.47268677 C110.56711737 210.00104903 110.76492707 211.52941514 110.96270752 213.05778503 C112.97827779 228.62181611 115.16800182 244.1555059 117.44967651 259.68275452 C117.6009198 260.71203064 117.75216309 261.74130676 117.9079895 262.80177307 C118.05790344 263.82178406 118.20781738 264.84179504 118.36227417 265.89271545 C118.65836899 267.90735895 118.95443074 269.92200731 119.25045776 271.93666077 C119.3935437 272.91041656 119.53662964 273.88417236 119.68405151 274.88743591 C122.16442964 291.79725533 124.48587115 308.72781106 126.63717651 325.68275452 C126.76511597 326.68371155 126.89305542 327.68466858 127.02487183 328.71595764 C127.19647827 330.09364319 127.19647827 330.09364319 127.37155151 331.49916077 C127.52188843 332.69907654 127.52188843 332.69907654 127.67526245 333.92323303 C127.88717651 336.12025452 127.88717651 336.12025452 127.88717651 340.12025452 C102.47717651 340.12025452 77.06717651 340.12025452 50.88717651 340.12025452 C52.01114716 324.38466547 52.01114716 324.38466547 53.00827026 317.91322327 C53.11309219 317.21868546 53.21791412 316.52414764 53.32591248 315.80856323 C53.65371401 313.64080808 53.98857 311.474236 54.32467651 309.30775452 C54.76457051 306.44763076 55.20078692 303.586977 55.63327026 300.72572327 C55.73892303 300.02752472 55.84457581 299.32932617 55.95343018 298.60997009 C57.11479061 290.80204421 58.01216235 282.96463656 58.88717651 275.12025452 C58.10858276 275.9078717 57.32998901 276.69548889 56.52780151 277.50697327 C52.65554503 281.33913242 49.93326204 283.28219746 44.44967651 283.55775452 C38.79270747 283.36041839 35.69718524 280.73458663 31.57467651 277.05775452 C27.34643132 272.20310262 28.55163477 265.14802221 28.88717651 259.12025452 C29.3173683 255.50843598 29.93581805 251.93002798 30.5451355 248.34486389 C31.79100628 240.95837845 32.76637482 233.55220769 33.69967651 226.12025452 C35.30203866 213.48305238 37.00003547 200.86117919 38.76217651 188.24525452 C38.88820251 187.34270935 39.01422852 186.44016418 39.14407349 185.51026917 C41.18660289 170.90983419 43.31290975 156.32233958 45.46276855 141.73738098 C47.10562472 130.58314882 48.68076391 119.42629062 50.10202026 108.24134827 C51.08905579 100.48490537 52.12826801 92.73540537 53.1696167 84.98609924 C53.39637948 83.29587309 53.62224302 81.60552603 53.84716797 79.91505432 C54.16301372 77.5417504 54.48177134 75.1688545 54.80123901 72.79603577 C54.94324486 71.72265709 54.94324486 71.72265709 55.08811951 70.62759399 C55.52515706 67.40467618 55.99694222 64.25216918 56.88717651 61.12025452 C55.75280151 61.05837952 54.61842651 60.99650452 53.44967651 60.93275452 C46.3962894 60.00894806 40.8421147 56.76147163 36.44967651 51.18275452 C33.04247638 46.11442634 31.79850135 42.02729924 31.84811401 35.92494202 C31.85657349 34.57505188 31.85657349 34.57505188 31.86520386 33.19789124 C31.87245483 32.51227112 31.87970581 31.826651 31.88717651 31.12025452 C30.2530481 31.15167542 30.2530481 31.15167542 28.58590698 31.18373108 C24.52695973 31.25637316 20.46806945 31.3021417 16.40866089 31.33998108 C14.65498172 31.36004162 12.90136899 31.38729703 11.1479187 31.42201233 C8.62073333 31.47077754 6.0944356 31.49327844 3.56686401 31.51087952 C2.78850189 31.53152466 2.01013977 31.5521698 1.20819092 31.57344055 C-4.03196879 31.57557907 -6.93396312 30.55340446 -11.11282349 27.12025452 C-13.83587978 23.58901841 -14.99726625 19.94359984 -15.61282349 15.55775452 C-14.80298476 9.99011324 -12.63765675 6.49986557 -8.48782349 2.74525452 C-5.34701222 0.59627838 -3.74788473 -0.00460428 0 0 Z " fill="#C85B55" transform="translate(287.1128234863281,40.87974548339844)"/>
<path d="M0 0 C14.85 0 29.7 0 45 0 C47.78610375 17.87963356 50.41515065 35.77145769 52.90380859 53.69458008 C53.27560962 56.36211315 53.64755768 59.02962534 54.01968384 61.69711304 C54.91836707 68.1414831 55.81511765 74.5861206 56.71119909 81.03085289 C57.77068446 88.6501466 58.83228191 96.26914564 59.89394708 103.88813587 C61.8049602 117.60287161 63.71428155 131.3178423 65.62255859 145.03295898 C67.43860587 158.0851831 69.25556229 171.13728013 71.07373047 184.18920898 C71.18436238 184.98340194 71.29499428 185.77759489 71.40897867 186.5958543 C71.85482845 189.79646357 72.30068335 192.99707212 72.74654435 196.19767983 C76.86597181 225.76900637 80.98173562 255.34084048 85.09344618 284.91324101 C87.3309707 301.00586745 89.5704433 317.09821897 91.81416595 333.18998247 C93.17583838 342.95617587 94.53579594 352.72260684 95.89423096 362.48925108 C96.66086972 368.00054958 97.42841241 373.51171839 98.19831467 379.02256203 C98.89561758 384.01382446 99.59046914 389.00542147 100.28328276 393.99730897 C100.5328088 395.79190031 100.7832688 397.58636208 101.03474092 399.38068175 C101.37304533 401.79545526 101.70803062 404.21066606 102.04214478 406.62602234 C102.14070593 407.3236416 102.23926709 408.02126086 102.34081495 408.7400201 C102.7718846 411.88114401 103 414.81733365 103 418 C92.11 418 81.22 418 70 418 C67.74995138 407.8747812 67.74995138 407.8747812 67.15206909 403.61001587 C67.0146933 402.64276581 66.8773175 401.67551575 66.73577881 400.67895508 C66.59335754 399.6500415 66.45093628 398.62112793 66.30419922 397.56103516 C66.14785004 396.45263275 65.99150085 395.34423035 65.83041382 394.20223999 C65.31830045 390.56500107 64.81137588 386.92706079 64.3046875 383.2890625 C63.9490783 380.75316839 63.59320895 378.21731076 63.23709106 375.68148804 C62.49353354 370.3812329 61.75233746 365.08065559 61.01318359 359.77978516 C60.15882405 353.6528933 59.30045087 347.52657425 58.43984973 341.40055621 C57.61026638 335.49495864 56.78306528 329.58902951 55.95703506 323.68293381 C55.60589086 321.17336061 55.25421518 318.66386172 54.90200424 316.15443802 C54.41161373 312.65744177 53.92392012 309.16008021 53.43701172 305.66259766 C53.29054199 304.6215387 53.14407227 303.58047974 52.99316406 302.50787354 C52.86142792 301.55754242 52.72969177 300.6072113 52.59396362 299.62808228 C52.47857176 298.80186182 52.36317989 297.97564137 52.24429131 297.12438393 C52 295 52 295 52 292 C47.05 292 42.1 292 37 292 C36.81824219 290.70449219 36.63648438 289.40898437 36.44921875 288.07421875 C34.77258406 276.17839807 34.77258406 276.17839807 32.92016602 264.30908203 C31.50459406 255.66491363 30.34096575 247.0034073 29.25 238.3125 C27.2467394 222.37600824 24.91779254 206.49072758 22.54980469 190.60473633 C20.76801275 178.59872167 19.16509542 166.58184377 17.68579102 154.53491211 C16.78086786 147.17942264 15.77805033 139.83921608 14.75 132.5 C14.6493927 131.77695679 14.5487854 131.05391357 14.44512939 130.30895996 C13.07807613 120.48666255 11.66583442 110.67134189 10.2265625 100.859375 C10.07356689 99.81547607 9.92057129 98.77157715 9.76293945 97.69604492 C9.01248247 92.57993736 8.25864266 87.46436458 7.49902344 82.34960938 C5.85493566 71.22256294 4.34092843 60.08822447 2.98825073 48.92169189 C2.40151567 44.09391586 1.77110056 39.29298905 0.9375 34.5 C0.16890593 30.02638839 -0.58904399 25.5533792 -1.25 21.0625 C-1.44078125 19.83660156 -1.6315625 18.61070313 -1.828125 17.34765625 C-2 13 -2 13 0 0 Z " fill="#B85A68" transform="translate(378,89)"/>
<path d="M0 0 C95.7 0 191.4 0 290 0 C286.04 28.71 282.08 57.42 278 87 C266.78 87 255.56 87 244 87 C244.97526771 79.4881469 245.95269147 71.97664278 246.93579102 64.46582031 C247.26977379 61.90902371 247.60245999 59.35205739 247.93383789 56.79492188 C248.40953719 53.12585102 248.88984964 49.45740967 249.37109375 45.7890625 C249.5930265 44.0655809 249.5930265 44.0655809 249.81944275 42.30728149 C250.02954735 40.71585831 250.02954735 40.71585831 250.24389648 39.09228516 C250.36603012 38.15518707 250.48816376 37.21808899 250.61399841 36.25259399 C251 34 251 34 252 32 C178.41 32 104.82 32 29 32 C28.01 40.25 27.02 48.5 26 57 C25.31318415 62.15111888 24.61686574 67.2948867 23.875 72.4375 C23.70613281 73.64341797 23.53726563 74.84933594 23.36328125 76.09179688 C23.19957031 77.23583984 23.03585938 78.37988281 22.8671875 79.55859375 C22.72394043 80.56204834 22.58069336 81.56550293 22.43310547 82.59936523 C22 85 22 85 21 87 C10.11 87 -0.78 87 -12 87 C-10.3782097 71.31383148 -8.23415438 55.70756335 -6.05883789 40.09082031 C-5.53563954 36.33456936 -5.01666297 32.5777487 -4.4988699 28.82074928 C-4.09640992 25.9037564 -3.69184924 22.9870579 -3.28663826 20.07044601 C-3.09424012 18.68387945 -2.90247291 17.29722518 -2.71136284 15.9104805 C-2.44568942 13.98511015 -2.17689468 12.06017129 -1.90795898 10.13525391 C-1.68051247 8.49793808 -1.68051247 8.49793808 -1.44847107 6.82754517 C-1 4 -1 4 0 0 Z " fill="#5C77AA" transform="translate(43,420)"/>
<path d="M0 0 C94.38 0 188.76 0 286 0 C286 11.55 286 23.1 286 35 C290.29 35 294.58 35 299 35 C301.05309202 45.74762562 302.69098556 56.53597883 304.1875 67.375 C304.36635742 68.66494873 304.54521484 69.95489746 304.72949219 71.28393555 C306 80.60904186 306 80.60904186 306 84 C291.15 84 276.3 84 261 84 C263.88316784 60.38548247 263.88316784 60.38548247 265.625 48.75 C265.74786377 47.9240332 265.87072754 47.09806641 265.99731445 46.24707031 C266.5266257 42.77280409 267.14675092 39.41299634 268 36 C179.56 36 91.12 36 0 36 C0 24.12 0 12.24 0 0 Z " fill="#FE9669" transform="translate(117,5)"/>
<path d="M0 0 C2.16276547 3.95642479 2.54424243 7.69328964 2.9375 12.125 C3.56564957 18.46828088 4.39045218 24.72314919 5.5 31 C6.54619482 36.96687334 7.37913547 42.91150055 8 48.9375 C8.63462163 55.07728116 9.44367553 61.15791928 10.4375 67.25 C11.65185091 74.70287024 12.73459012 82.16345724 13.73852539 89.64746094 C14.5180291 95.45606849 15.31211303 101.26237491 16.125 107.06640625 C19.72776267 132.80800786 19.72776267 132.80800786 21.1875 144.078125 C21.28471848 144.82864639 21.38193695 145.57916779 21.48210144 146.35243225 C21.67994086 147.88079451 21.87775055 149.40916062 22.07553101 150.93753052 C24.09110127 166.5015616 26.28082531 182.03525139 28.5625 197.5625 C28.71374329 198.59177612 28.86498657 199.62105225 29.02081299 200.68151855 C29.2456839 202.21153503 29.2456839 202.21153503 29.47509766 203.77246094 C29.77119247 205.78710443 30.06725422 207.80175279 30.36328125 209.81640625 C30.50636719 210.79016205 30.64945312 211.76391785 30.796875 212.7671814 C33.27725312 229.67700082 35.59869464 246.60755654 37.75 263.5625 C37.87793945 264.56345703 38.00587891 265.56441406 38.13769531 266.59570312 C38.25209961 267.51416016 38.36650391 268.43261719 38.484375 269.37890625 C38.58459961 270.1788501 38.68482422 270.97879395 38.78808594 271.80297852 C39 274 39 274 39 278 C13.59 278 -11.82 278 -38 278 C-36.87575962 262.26063471 -36.87575962 262.26063471 -35.87890625 255.7578125 C-35.77408432 255.06090302 -35.66926239 254.36399353 -35.56126404 253.64596558 C-35.23342552 251.47150066 -34.8984769 249.29822077 -34.5625 247.125 C-34.12343017 244.25303551 -33.68764386 241.38058691 -33.25390625 238.5078125 C-33.09331978 237.44719856 -33.09331978 237.44719856 -32.92948914 236.36515808 C-32.1016269 230.83377584 -31.39265707 225.29237323 -30.71679688 219.74064636 C-29.81973557 212.41720193 -28.7045125 205.13039644 -27.58789062 197.83789062 C-26.49760738 190.61422115 -25.5192306 183.38215833 -24.5859375 176.13671875 C-23.15890698 165.07115759 -21.60468807 154.02646709 -20.01092529 142.98382568 C-19.23647889 137.61477334 -18.46817672 132.24484066 -17.69921875 126.875 C-17.54934509 125.82899628 -17.39947144 124.78299255 -17.24505615 123.70529175 C-15.02850411 108.22811155 -12.83715195 92.74868707 -10.89453125 77.234375 C-10.4927295 74.0311817 -10.09042754 70.82805189 -9.6875 67.625 C-9.5873056 66.82784576 -9.48711121 66.03069153 -9.38388062 65.2093811 C-6.63210487 43.41922365 -3.30896742 21.71124397 0 0 Z " fill="#913850" transform="translate(376,103)"/>
<path d="M0 0 C61.71 0.33 123.42 0.66 187 1 C184.525 2.98 184.525 2.98 182 5 C178.73361159 8.72005347 177.17688446 11.19577855 176.6875 16.1875 C177.06130237 20.74788892 178.21897869 24.33447048 181 28 C185.30157225 31.31793103 189.34180984 31.46898281 194.58203125 31.51171875 C195.80329964 31.53864555 195.80329964 31.53864555 197.04924011 31.56611633 C199.63694152 31.6200821 202.22445993 31.65407025 204.8125 31.6875 C206.57229101 31.72068528 208.33205792 31.75517606 210.09179688 31.79101562 C214.39439893 31.87580042 218.69694801 31.94267665 223 32 C223 32.33 223 32.66 223 33 C165.91 33 108.82 33 50 33 C49.67 34.98 49.34 36.96 49 39 C45.2618645 46.87724748 39.90777332 50.60318047 32.3125 54.3125 C29.76663956 55.06937743 27.6417857 55.04819178 25 55 C23.45915928 66.74620858 21.9300197 78.49311837 20.47265625 90.25 C19.68429138 96.50479564 18.84377707 102.75245915 18 109 C17.67 109 17.34 109 17 109 C16.773125 107.80375 16.54625 106.6075 16.3125 105.375 C15.15112338 100.76220834 13.40137491 98.32227317 10 95 C6.04741337 92.71166037 2.51094661 92.60430293 -2 93 C-7.27599845 94.89935944 -9.66100366 97.70700471 -13 102 C-13.33 102 -13.66 102 -14 102 C-13.35702696 90.91992607 -11.86041577 80.00582356 -10.3125 69.0234375 C-10.04701524 67.12110043 -9.78180192 65.21872546 -9.5168457 63.3163147 C-8.96460125 59.35749095 -8.40961978 55.39906399 -7.85253906 51.44091797 C-7.13832424 46.36522036 -6.43027625 41.28868532 -5.72413635 36.21185875 C-5.1789737 32.29629478 -4.63100043 28.38112831 -4.0821228 24.46608353 C-3.81979865 22.59306299 -3.55825839 20.7199325 -3.29751587 18.84669113 C-2.93421778 16.2403276 -2.56723815 13.63450908 -2.19921875 11.02880859 C-2.09217621 10.25585449 -1.98513367 9.48290039 -1.87484741 8.68652344 C-1.44550956 5.66984545 -0.96608002 2.89824006 0 0 Z " fill="#C85B55" transform="translate(96,40)"/>
<path d="M0 0 C0.33 0 0.66 0 1 0 C1.09474609 0.87011719 1.09474609 0.87011719 1.19140625 1.7578125 C2.10255904 7.57000818 3.66413828 10.33705462 8.34375 13.90625 C12.40648054 16.58918526 16.23817711 16.49430687 21 16 C23.87146994 14.63002843 23.87146994 14.63002843 26 13 C26.66 13 27.32 13 28 13 C28.28875 12.401875 28.5775 11.80375 28.875 11.1875 C30 9 30 9 32 6 C30.9539722 18.70845716 29.27239314 31.28693052 27.36328125 43.89041138 C25.22933525 58.01807861 23.41936006 72.17674688 21.69995117 86.36035156 C21.60096527 87.17205307 21.50197937 87.98375458 21.3999939 88.8200531 C21.21840499 90.31204903 21.03859638 91.80426362 20.86123657 93.29676819 C20.0592714 99.89742906 19.0130764 106.41500338 18 113 C-43.38 112.67 -104.76 112.34 -168 112 C-166.35 110.35 -164.7 108.7 -163 107 C-159.71026919 103.02963523 -159.48167657 99.42746381 -159.65234375 94.43359375 C-160.1772352 90.75935363 -161.52954784 88.73049976 -164 86 C-165.95851344 84.60644236 -167.95127113 83.25717453 -170 82 C-170 81.67 -170 81.34 -170 81 C-124.79 80.67 -79.58 80.34 -33 80 C-32.01 77.03 -31.02 74.06 -30 71 C-26.04350585 65.12178012 -20.69856518 61.23285506 -14 59 C-11.66700175 58.96045766 -9.33291811 58.95598268 -7 59 C-7.04898438 57.845 -7.09796875 56.69 -7.1484375 55.5 C-7.14588977 48.97782376 -6.01115908 42.60501977 -4.97665405 36.18405151 C-4.38536448 32.51167269 -3.8159426 28.83591333 -3.24609375 25.16015625 C-3.13507828 24.44674576 -3.02406281 23.73333527 -2.90968323 22.99830627 C-1.72900576 15.35354608 -0.78709036 7.69468938 0 0 Z " fill="#C85B55" transform="translate(315,307)"/>
<path d="M0 0 C3.93792318 2.56821077 6.74612583 5.61725165 8.875 9.875 C9.95645769 23.00339337 6.95979158 36.50851768 4.98120117 49.45092773 C4.20076979 54.58544825 3.49870105 59.71907133 2.875 64.875 C2.04251691 71.75686024 1.02901935 78.60121017 -0.01953125 85.453125 C-0.79906125 90.58699937 -1.50139095 95.71983187 -2.125 100.875 C-2.95748309 107.75686024 -3.97098065 114.60121017 -5.01953125 121.453125 C-5.99357666 127.8680503 -6.81315108 134.28848837 -7.58984375 140.73046875 C-8.30192836 146.43132619 -9.20651557 152.10449718 -10.09204102 157.78051758 C-10.77142762 162.2127064 -11.29894581 166.5820787 -11.5625 171.0625 C-12.09983772 177.64488705 -14.11526605 183.45887592 -19.1875 187.875 C-23.64258806 190.90825144 -27.81728329 191.71554588 -33.125 190.875 C-38.34336969 188.63722937 -41.59544294 186.00857688 -44.125 180.875 C-44.47174515 178.21620629 -44.61782517 175.88355967 -44.58642578 173.2253418 C-44.58002642 172.4145325 -44.57362705 171.6037232 -44.56703377 170.76834393 C-44.22137836 157.01794847 -41.97374839 143.3270157 -40.08207846 129.72067475 C-39.62309134 126.41066231 -39.17139815 123.09966832 -38.71932995 119.78870505 C-37.65262543 111.97972535 -36.57174604 104.17279698 -35.48242188 96.36694336 C-34.36247598 88.33934268 -33.27012681 80.30830933 -32.19043624 72.27520448 C-31.2572314 65.34070571 -30.30546689 58.40891984 -29.33922303 51.47894782 C-28.7645895 47.3555939 -28.19723721 43.23157136 -27.64849472 39.10468483 C-27.13298894 35.23290462 -26.59433046 31.3650346 -26.0380764 27.49890518 C-25.83871492 26.0859679 -25.64742818 24.67186244 -25.4651165 23.25662422 C-24.25762538 13.93268766 -22.54772484 7.31689463 -15.11956596 1.23229694 C-10.36136864 -2.00564394 -5.29185727 -1.90506862 0 0 Z " fill="#B9424B" transform="translate(104.125,133.125)"/>
<path d="M0 0 C4.31663367 2.22343847 6.72780611 5.05918242 8.9375 9.30859375 C10.05416264 14.01152609 9.81378605 17.96462932 9.1875 22.73828125 C9.09419907 23.46460251 9.00089813 24.19092377 8.9047699 24.93925476 C8.59141673 27.35532041 8.26477788 29.76937779 7.9375 32.18359375 C7.71064445 33.90351511 7.48417231 35.62348707 7.25805664 37.34350586 C5.14371083 53.28403362 2.80201359 69.19239683 0.45727539 85.1003418 C-1.13266508 95.89134708 -2.69623482 106.68234743 -4.125 117.49609375 C-4.27404785 118.61008545 -4.4230957 119.72407715 -4.57666016 120.87182617 C-5.45621792 127.50566077 -6.28797922 134.143389 -7.08882141 140.78712463 C-7.58793372 144.89739748 -8.10299819 149.00560148 -8.61984253 153.11367798 C-8.87070202 155.13946353 -9.11444745 157.16614438 -9.35061646 159.19369507 C-9.68320607 162.04442512 -10.04031546 164.89116045 -10.40234375 167.73828125 C-10.54142654 169.00982307 -10.54142654 169.00982307 -10.68331909 170.30705261 C-11.53686577 176.72624581 -13.6681935 182.43639075 -18.73789978 186.72628784 C-23.13940999 189.75167832 -27.86898783 190.25631495 -33.0625 189.30859375 C-37.92884517 186.73769441 -42.28611005 183.6377636 -44.0625 178.30859375 C-44.72854418 170.21359524 -43.75539767 162.4815111 -42.40454102 154.53320312 C-41.15867023 147.14671768 -40.18330169 139.74054692 -39.25 132.30859375 C-37.64763785 119.67139161 -35.94964104 107.04951843 -34.1875 94.43359375 C-34.061474 93.53104858 -33.935448 92.62850342 -33.80560303 91.6986084 C-32.38526079 81.54569977 -30.9375877 71.39707208 -29.44921875 61.25390625 C-29.31772934 60.35764023 -29.18623993 59.46137421 -29.05076599 58.53794861 C-28.40687851 54.15646617 -27.75864054 49.77567779 -27.10424805 45.39575195 C-26.03681821 38.22024897 -24.99841582 31.05482462 -24.1953125 23.84375 C-24.07309326 22.76899414 -23.95087402 21.69423828 -23.82495117 20.58691406 C-23.61838084 18.70155238 -23.4290536 16.81416068 -23.26293945 14.92480469 C-22.51607962 8.09441961 -20.11702923 4.92676166 -14.875 0.43359375 C-10.04721379 -1.49752074 -4.95971657 -1.66263226 0 0 Z " fill="#B9424B" transform="translate(360.0625,134.69140625)"/>
<path d="M0 0 C56.1 0 112.2 0 170 0 C169.34 5.28 168.68 10.56 168 16 C166.22842529 16.01458252 164.45685059 16.02916504 162.6315918 16.04418945 C156.78006443 16.09582331 150.92877505 16.16110453 145.07750225 16.23571491 C141.52963721 16.28045382 137.98188792 16.31970171 134.43383789 16.34643555 C130.35533459 16.37740626 126.27745455 16.43219605 122.19921875 16.48828125 C120.28661507 16.49786613 120.28661507 16.49786613 118.33537292 16.50764465 C116.56387627 16.53733589 116.56387627 16.53733589 114.7565918 16.56762695 C113.19439156 16.58428154 113.19439156 16.58428154 111.60063171 16.60127258 C108.97278944 16.80076293 108.97278944 16.80076293 107.12458801 18.36296082 C105.71977042 20.03271448 105.71977042 20.03271448 106.25 22.625 C106.77745645 24.9312407 106.77745645 24.9312407 108 26 C109.8096774 26.12330088 111.62407837 26.17790183 113.43774414 26.20532227 C115.17943626 26.2352401 115.17943626 26.2352401 116.95631409 26.26576233 C118.219832 26.28247482 119.48334991 26.29918732 120.78515625 26.31640625 C122.07111191 26.33718735 123.35706757 26.35796844 124.68199158 26.37937927 C128.10635904 26.43466176 131.5307875 26.48404361 134.95526123 26.53222656 C138.44744314 26.58239665 141.9395361 26.6381061 145.43164062 26.69335938 C152.28768333 26.8010164 159.14380633 26.90244449 166 27 C165.99398295 29.25037773 165.9438571 31.50066792 165.875 33.75 C165.85179687 35.00296875 165.82859375 36.2559375 165.8046875 37.546875 C165 41 165 41 162.36158562 43.18281269 C158.66611444 45.18049 156.57405631 45.50828443 152.40994263 45.52812195 C151.10064789 45.54373672 149.79135315 45.5593515 148.44238281 45.57543945 C147.00341702 45.572447 145.56445209 45.56901433 144.12548828 45.56518555 C142.60064539 45.57552423 141.07581293 45.5875147 139.55099487 45.60102844 C135.41863119 45.63203201 131.28661652 45.63735372 127.15415049 45.63609672 C123.69996439 45.63692828 120.2458536 45.6491789 116.79169071 45.66104633 C108.63988754 45.68840594 100.48826516 45.69375309 92.33642578 45.6862793 C83.93712073 45.67903893 75.53865516 45.71245293 67.13953221 45.76533669 C59.91891713 45.80915319 52.69857293 45.82583024 45.47782695 45.8213008 C41.16928664 45.8189816 36.86142477 45.82723856 32.55301285 45.86237144 C28.49946126 45.89439256 24.44729715 45.89246869 20.39372635 45.86492729 C18.91029 45.86048242 17.42676129 45.86787138 15.94345856 45.88827133 C3.37480858 46.04935323 3.37480858 46.04935323 -1.91067505 41.67683411 C-4.58931327 38.99934207 -4.9665356 38.21937771 -5.5625 34.3125 C-5.1390947 31.81911322 -4.63303743 29.4417158 -4 27 C-2.95208282 26.99191315 -1.90416565 26.98382629 -0.82449341 26.97549438 C9.03481018 26.89812364 18.89397422 26.81040765 28.75309563 26.71247292 C33.82218547 26.6624545 38.8912539 26.61612512 43.96044922 26.578125 C48.84939423 26.54134204 53.73816249 26.49500151 58.62695694 26.44193649 C60.49530065 26.42335526 62.3636823 26.4082612 64.23208237 26.39665604 C66.8422443 26.37985712 69.45199811 26.35083823 72.06201172 26.31884766 C72.8402832 26.31668747 73.61855469 26.31452728 74.42041016 26.31230164 C78.6709893 26.39207503 78.6709893 26.39207503 82 24 C82.33333333 21.5 82.33333333 21.5 82 19 C79.10292476 16.10292476 76.12866711 16.69219562 72.24560547 16.68115234 C71.44552063 16.67110672 70.64543579 16.6610611 69.82110596 16.65071106 C67.16980729 16.61975729 64.51861014 16.60281028 61.8671875 16.5859375 C60.03157673 16.56723564 58.19597464 16.54766297 56.36038208 16.5272522 C51.52383534 16.47582118 46.68726068 16.43625433 41.85058594 16.39910889 C36.91724686 16.35913783 31.98402496 16.30801411 27.05078125 16.2578125 C17.36726969 16.16092342 7.68369212 16.07656035 -2 16 C-1.85936865 13.70800823 -1.71234057 11.41640814 -1.5625 9.125 C-1.48128906 7.84882813 -1.40007812 6.57265625 -1.31640625 5.2578125 C-1 2 -1 2 0 0 Z " fill="#FEDCA4" transform="translate(119,304)"/>
<path d="M0 0 C95.7 0 191.4 0 290 0 C289.34 4.62 288.68 9.24 288 14 C192.63 14 97.26 14 -1 14 C-1 4 -1 4 0 0 Z " fill="#445083" transform="translate(43,420)"/>
<path d="M0 0 C13.2 0 26.4 0 40 0 C40 11.55 40 23.1 40 35 C44.29 35 48.58 35 53 35 C55.05309202 45.74762562 56.69098556 56.53597883 58.1875 67.375 C58.36635742 68.66494873 58.54521484 69.95489746 58.72949219 71.28393555 C60 80.60904186 60 80.60904186 60 84 C45.15 84 30.3 84 15 84 C17.88316784 60.38548247 17.88316784 60.38548247 19.625 48.75 C19.74786377 47.9240332 19.87072754 47.09806641 19.99731445 46.24707031 C20.5266257 42.77280409 21.14675092 39.41299634 22 36 C14.74 36 7.48 36 0 36 C0 24.12 0 12.24 0 0 Z " fill="#FDB4B3" transform="translate(363,5)"/>
<path d="M0 0 C35.31 0 70.62 0 107 0 C104.525 1.98 104.525 1.98 102 4 C98.73361159 7.72005347 97.17688446 10.19577855 96.6875 15.1875 C97.06130237 19.74788892 98.21897869 23.33447048 101 27 C105.30157225 30.31793103 109.34180984 30.46898281 114.58203125 30.51171875 C115.80329964 30.53864555 115.80329964 30.53864555 117.04924011 30.56611633 C119.63694152 30.6200821 122.22445993 30.65407025 124.8125 30.6875 C126.57229101 30.72068528 128.33205792 30.75517606 130.09179688 30.79101562 C134.39439893 30.87580042 138.69694801 30.94267665 143 31 C143 31.33 143 31.66 143 32 C85.91 32 28.82 32 -30 32 C-30 31.67 -30 31.34 -30 31 C-29.0620459 30.9906543 -28.1240918 30.98130859 -27.15771484 30.97167969 C-23.65713676 30.92750562 -20.15775697 30.86582333 -16.65771484 30.79248047 C-15.14676062 30.76436218 -13.63566179 30.74310229 -12.12451172 30.72900391 C-9.94423897 30.70744551 -7.76568781 30.66073684 -5.5859375 30.609375 C-4.2767334 30.58842773 -2.9675293 30.56748047 -1.61865234 30.54589844 C2.56092228 29.91538104 4.73142031 28.63394506 8 26 C11.3053376 21.26234945 11.80796546 16.61432411 11 11 C9.63002843 8.12853006 9.63002843 8.12853006 8 6 C8 5.34 8 4.68 8 4 C7.236875 3.71125 6.47375 3.4225 5.6875 3.125 C3 2 3 2 0 0 Z " fill="#D27E69" transform="translate(176,41)"/>
<path d="M0 0 C10.89 0 21.78 0 33 0 C35.70267357 17.34824254 38.283737 34.70711389 40.71972656 52.09472656 C41.26038558 55.94903788 41.8058936 59.8026451 42.3515625 63.65625 C42.69820596 66.12235519 43.0445712 68.5884995 43.390625 71.0546875 C43.55306702 72.19928436 43.71550903 73.34388123 43.88287354 74.52316284 C44.03012878 75.5801236 44.17738403 76.63708435 44.32910156 77.72607422 C44.45915588 78.65136932 44.58921021 79.57666443 44.72320557 80.52999878 C45 83 45 83 45 87 C34.11 87 23.22 87 12 87 C10.75458482 81.3956317 9.64215772 76.10403793 8.85498047 70.46411133 C8.75715271 69.77017776 8.65932495 69.0762442 8.55853271 68.36128235 C8.24106764 66.10202934 7.92890768 63.8420835 7.6171875 61.58203125 C7.39604587 59.99498217 7.1746983 58.40796176 6.95315552 56.82096863 C6.49190956 53.51061432 6.03334052 50.19990315 5.57666016 46.88891602 C4.99242971 42.65497922 4.40117587 38.42205778 3.80788994 34.1893816 C3.35027916 30.91863664 2.89654017 27.6473634 2.44394302 24.37592125 C2.22748066 22.81490786 2.00979163 21.25406403 1.7908287 19.69339943 C1.48534019 17.51202688 1.18512245 15.32998995 0.88623047 13.14770508 C0.71461395 11.90910233 0.54299744 10.67049957 0.36618042 9.3943634 C0 6 0 6 0 0 Z " fill="#5C77AA" transform="translate(436,420)"/>
<path d="M0 0 C52.14 0 104.28 0 158 0 C158 5.94 158 11.88 158 18 C105.86 18 53.72 18 0 18 C0 12.06 0 6.12 0 0 Z " fill="#FEB88B" transform="translate(161,23)"/>
<path d="M0 0 C34.98 0 69.96 0 106 0 C104.35 1.32 102.7 2.64 101 4 C97.43857459 8.18577407 95.13308052 12.39255364 95.5078125 17.98046875 C96.92876538 23.81088651 100.30822893 27.4811717 105 31 C71.01 31 37.02 31 2 31 C3.65 29.35 5.3 27.7 7 26 C10.28973081 22.02963523 10.51832343 18.42746381 10.34765625 13.43359375 C9.8227648 9.75935363 8.47045216 7.73049976 6 5 C4.04148656 3.60644236 2.04872887 2.25717453 0 1 C0 0.67 0 0.34 0 0 Z " fill="#D17D68" transform="translate(145,388)"/>
<path d="M0 0 C4.62729826 2.77247406 7.47791415 6.23348679 9.8125 11.125 C11.55622856 19.36808045 10.91973547 26.12243705 6.5 33.375 C1.78843436 40.18614927 -4.88175467 45.98535814 -13.07421875 48.01171875 C-21.29486765 49.24283042 -26.50172251 47.89161881 -33.5 43.375 C-38.24681905 38.74685143 -39.59020604 33.73219532 -40 27.25 C-39.8321651 19.55057404 -36.63727019 12.96414038 -31.6015625 7.203125 C-29.65489069 5.40264593 -27.68754353 3.8708631 -25.5 2.375 C-24.89542969 1.94316406 -24.29085937 1.51132813 -23.66796875 1.06640625 C-16.75790263 -3.13782346 -7.33026993 -3.3041747 0 0 Z " fill="#D27E69" transform="translate(239.5,132.625)"/>
<path d="M0 0 C1.0785044 -0.00467997 1.0785044 -0.00467997 2.17879677 -0.00945449 C4.60023703 -0.017464 7.02142874 -0.01109948 9.44287109 -0.00482178 C11.17389066 -0.00753033 12.90490908 -0.0110905 14.63592529 -0.01544189 C19.3465633 -0.0245843 24.05711401 -0.02101404 28.7677536 -0.01468372 C33.68892153 -0.00963328 38.61008179 -0.0143125 43.53125 -0.01745605 C51.79672594 -0.0210985 60.06216619 -0.01628932 68.32763672 -0.0067749 C77.89455081 0.00411018 87.46137967 0.0005848 97.0282917 -0.01042771 C105.23042597 -0.01949268 113.43253451 -0.02078975 121.63467216 -0.01555037 C126.53862786 -0.01242631 131.44254344 -0.01203325 136.34649658 -0.01862335 C140.95604712 -0.02438471 145.56548737 -0.02042221 150.17502594 -0.00883484 C151.87059597 -0.00618175 153.56617523 -0.00696433 155.26174164 -0.01136017 C157.56882709 -0.01679163 159.87555479 -0.01001107 162.18261719 0 C164.12278214 0.00113108 164.12278214 0.00113108 166.10214233 0.002285 C169.09130859 0.25396729 169.09130859 0.25396729 171.09130859 2.25396729 C171.34130859 5.25396729 171.34130859 5.25396729 171.09130859 8.25396729 C168.21533942 11.12993646 166.21256125 10.50558519 162.18261719 10.50793457 C161.10411279 10.51261454 161.10411279 10.51261454 160.00382042 10.51738906 C157.58238016 10.52539857 155.16118845 10.51903405 152.73974609 10.51275635 C151.00872653 10.5154649 149.27770811 10.51902507 147.54669189 10.52337646 C142.83605389 10.53251887 138.12550318 10.52894861 133.41486359 10.52261829 C128.49369566 10.51756785 123.57253539 10.52224707 118.65136719 10.52539062 C110.38589124 10.52903307 102.120451 10.52422389 93.85498047 10.51470947 C84.28806637 10.50382439 74.72123751 10.50734977 65.15432549 10.51836228 C56.95219122 10.52742725 48.75008267 10.52872432 40.54794502 10.52348495 C35.64398933 10.52036088 30.74007375 10.51996782 25.83612061 10.52655792 C21.22657007 10.53231928 16.61712982 10.52835678 12.00759125 10.51676941 C10.31202121 10.51411632 8.61644196 10.5148989 6.92087555 10.51929474 C4.6137901 10.5247262 2.3070624 10.51794564 0 10.50793457 C-1.2934433 10.50718052 -2.5868866 10.50642647 -3.91952515 10.50564957 C-6.90869141 10.25396729 -6.90869141 10.25396729 -8.90869141 8.25396729 C-9.15869141 5.25396729 -9.15869141 5.25396729 -8.90869141 2.25396729 C-6.03272223 -0.62200189 -4.02994406 0.00234938 0 0 Z " fill="#445083" transform="translate(123.90869140625,292.74603271484375)"/>
<path d="M0 0 C1.26191162 -0.00701431 2.52382324 -0.01402863 3.82397461 -0.02125549 C5.22509924 -0.01382755 6.62622229 -0.00609639 8.02734375 0.00190735 C9.50073504 -0.00052023 10.97412468 -0.00423922 12.44750977 -0.00915527 C16.45162579 -0.01857265 20.45549774 -0.00913184 24.45959473 0.00417686 C28.64624068 0.01548 32.83287442 0.01138473 37.01953125 0.00942993 C44.05082189 0.00854659 51.08201619 0.0196356 58.11328125 0.03804016 C66.24704901 0.05920841 74.38067561 0.0627179 82.51446533 0.0564782 C90.33290474 0.05078706 98.15129434 0.05642725 105.96972656 0.06765175 C109.29981404 0.07230105 112.62987109 0.07317016 115.95996094 0.0710659 C119.88009436 0.06918473 123.80008374 0.07727364 127.72018433 0.0931263 C129.16054692 0.09737532 130.60092411 0.09821556 132.04129028 0.0954361 C134.00409599 0.09222264 135.9669101 0.10250568 137.9296875 0.11352539 C139.02917725 0.11557826 140.12866699 0.11763113 141.26147461 0.11974621 C143.96484375 0.3742218 143.96484375 0.3742218 146.96484375 2.3742218 C147.35365814 5.41993451 147.59946648 7.45094689 145.81860352 10.04181862 C143.15998372 11.95272075 141.18649787 11.75182235 137.9296875 11.75517273 C136.66777588 11.7636322 135.40586426 11.77209167 134.10571289 11.7808075 C132.70458856 11.7749744 131.3034655 11.76882988 129.90234375 11.7624054 C128.42895112 11.76646982 126.95556153 11.77181097 125.48217773 11.77833557 C121.47807363 11.79203048 117.47420101 11.78670165 113.47009277 11.77719831 C109.28344083 11.76961293 105.09680896 11.7766442 100.91015625 11.78135681 C93.87886998 11.78681764 86.84767818 11.77961419 79.81640625 11.76533508 C71.68260121 11.74900791 63.54902174 11.75429618 55.41522217 11.7708143 C48.43680894 11.78441986 41.4584637 11.7863534 34.4800415 11.77849829 C30.3098989 11.77381664 26.13986239 11.77321037 21.96972656 11.78310776 C18.04954446 11.79176167 14.12965373 11.78578462 10.20950317 11.76842499 C8.76913945 11.76445167 7.32875128 11.76560861 5.88839722 11.77221298 C3.92560694 11.78038438 1.96276319 11.7683305 0 11.75517273 C-1.64923462 11.75347611 -1.64923462 11.75347611 -3.33178711 11.75174522 C-6.03515625 11.3742218 -6.03515625 11.3742218 -7.88891602 10.00666237 C-9.53204023 7.66657471 -9.45406366 6.16693788 -9.03515625 3.3742218 C-6.55232902 -0.16265639 -4.13581478 -0.00063097 0 0 Z " fill="#495483" transform="translate(130.03515625,347.6257781982422)"/>
<path d="M0 0 C1.07542557 -0.00708481 2.15085114 -0.01416962 3.25886536 -0.02146912 C5.03635162 -0.01775299 5.03635162 -0.01775299 6.8497467 -0.01396179 C8.71564201 -0.02162819 8.71564201 -0.02162819 10.61923218 -0.02944946 C14.03664134 -0.04099254 17.45380848 -0.0434151 20.87122035 -0.04088616 C23.72171853 -0.03981826 26.57219421 -0.04469521 29.42268759 -0.04949158 C36.14643788 -0.06059642 42.8701323 -0.06101879 49.59388733 -0.05497742 C56.53536341 -0.04893641 63.47663686 -0.06124949 70.41807836 -0.08254749 C76.37311884 -0.10014861 82.32809473 -0.10616719 88.28316027 -0.10290974 C91.84188471 -0.10109426 95.40046463 -0.10375919 98.95916557 -0.11762428 C102.92668015 -0.13250297 106.8939356 -0.1232455 110.86146545 -0.11161804 C112.63591537 -0.12308365 112.63591537 -0.12308365 114.44621277 -0.13478088 C115.52445816 -0.12776657 116.60270355 -0.12075226 117.71362305 -0.11352539 C118.65217605 -0.11369313 119.59072905 -0.11386087 120.55772305 -0.1140337 C123.36341021 0.33097783 124.25634663 0.9927791 125.92030334 3.26069641 C126.3437548 6.08370614 126.43436006 7.56228883 124.71906948 9.89271641 C122.30354865 11.72974465 120.78480741 11.6404744 117.76504517 11.64837646 C116.16463379 11.66323341 116.16463379 11.66323341 114.53189087 11.6783905 C113.36141708 11.67388885 112.1909433 11.66938721 110.98500061 11.66474915 C109.13592606 11.67504402 109.13592606 11.67504402 107.24949646 11.68554688 C103.8670964 11.70072961 100.48524661 11.70230413 97.10285306 11.69660449 C94.27972761 11.69351697 91.45665223 11.69960025 88.6335339 11.70564324 C81.97346623 11.71969741 75.31352682 11.71812001 68.65345764 11.70674133 C61.78178099 11.69526058 54.91049465 11.70933267 48.03886944 11.73613781 C42.13982886 11.75828778 36.24091085 11.76493377 30.34183162 11.7590614 C26.81826271 11.7556887 23.29494396 11.75812715 19.77140999 11.77531242 C15.84245097 11.79363813 11.91397262 11.7796016 7.98500061 11.7624054 C6.81655106 11.77207336 5.6481015 11.78174133 4.44424438 11.79170227 C2.83960327 11.77695107 2.83960327 11.77695107 1.20254517 11.76190186 C-0.1908919 11.76158793 -0.1908919 11.76158793 -1.61247921 11.76126766 C-4.84806042 11.10480386 -6.07461918 9.83360936 -8.07969666 7.26069641 C-7.80012177 1.38962387 -5.55262741 0.01214998 0 0 Z " fill="#4A5484" transform="translate(173.07969665527344,264.7393035888672)"/>
<path d="M0 0 C13.2 0 26.4 0 40 0 C40 11.88 40 23.76 40 36 C26.8 36 13.6 36 0 36 C0 24.12 0 12.24 0 0 Z " fill="#FED2C2" transform="translate(363,5)"/>
<path d="M0 0 C0.8246727 -0.00511093 1.6493454 -0.01022186 2.49900818 -0.01548767 C5.227928 -0.0294003 7.95659578 -0.02842584 10.68554688 -0.02612305 C12.57979425 -0.03000869 14.47404076 -0.03434308 16.36828613 -0.03910828 C20.33946558 -0.04657381 24.31055612 -0.04627652 28.28173828 -0.04101562 C33.37645582 -0.03521658 38.47081034 -0.05216087 43.56546783 -0.0753603 C47.47733699 -0.09007421 51.38911821 -0.09097261 55.30101013 -0.08785057 C57.17973043 -0.08836483 59.05845551 -0.09362216 60.93714905 -0.10366249 C63.56120585 -0.11596611 66.18454882 -0.10927239 68.80859375 -0.09765625 C69.97756447 -0.10912186 69.97756447 -0.10912186 71.17015076 -0.12081909 C76.40523182 -0.06946115 76.40523182 -0.06946115 78.88684082 1.64167786 C80.35807888 4.00296198 80.31305528 5.54960217 79.90429688 8.2746582 C78.89356995 9.90763855 78.89356995 9.90763855 76.90429688 11.2746582 C74.09571282 11.56562604 71.50972044 11.67414136 68.70092773 11.64697266 C67.86489517 11.65062332 67.02886261 11.65427399 66.16749573 11.65803528 C63.40117141 11.66614832 60.63543142 11.65252566 57.86914062 11.63793945 C55.95007833 11.63742099 54.0310155 11.63793817 52.11195374 11.63945007 C48.08944779 11.63936032 44.06714214 11.62892347 40.04467773 11.61083984 C34.88041507 11.58813733 29.7164448 11.58761099 24.55214596 11.59435749 C20.58970018 11.59769351 16.62732146 11.59107458 12.66488838 11.58122826 C10.76023268 11.57737076 8.85556952 11.57623031 6.95091057 11.5778141 C4.29321868 11.57818361 1.63590651 11.56559749 -1.02172852 11.54931641 C-1.81398834 11.55179382 -2.60624817 11.55427124 -3.42251587 11.55682373 C-8.86696029 11.50340104 -8.86696029 11.50340104 -11.09570312 9.2746582 C-11.40820312 5.7746582 -11.40820312 5.7746582 -11.09570312 2.2746582 C-7.33069637 -0.2353463 -4.36034889 -0.01386143 0 0 Z " fill="#4A5484" transform="translate(122.095703125,319.725341796875)"/>
<path d="M0 0 C0.80516556 -0.00525696 1.61033112 -0.01051392 2.43989563 -0.01593018 C5.10400739 -0.02914465 7.76752268 -0.02038713 10.43164062 -0.01025391 C12.28104772 -0.01227423 14.13045404 -0.01518532 15.9798584 -0.01895142 C19.85692933 -0.02337673 23.73379299 -0.01693707 27.61083984 -0.00292969 C32.58451586 0.01416233 37.55770625 0.00432225 42.53136444 -0.01364708 C46.35060292 -0.02447934 50.16972597 -0.02104115 53.9889679 -0.0132637 C55.82302406 -0.01126015 57.65709065 -0.0137264 59.49113464 -0.02070236 C62.05296658 -0.02830771 64.61400828 -0.01672592 67.17578125 0 C67.93639359 -0.00607269 68.69700592 -0.01214539 69.48066711 -0.0184021 C72.43739178 0.0174238 74.57243103 0.05476576 77.09411621 1.68588257 C78.81287356 4.63005415 77.85099468 7.21836674 77.08789062 10.38818359 C73.98402636 11.94011573 70.69659732 11.54433233 67.28930664 11.54931641 C66.48428711 11.55428131 65.67926758 11.55924622 64.84985352 11.56436157 C62.18049269 11.57899534 59.51119126 11.58578666 56.84179688 11.59130859 C54.99096169 11.59705837 53.14012652 11.60281612 51.28929138 11.60858154 C47.40631838 11.61909452 43.5233661 11.62493547 39.64038086 11.62841797 C34.65887749 11.63390801 29.67764674 11.65794562 24.69622898 11.68638992 C20.8727284 11.70498901 17.04929389 11.71022041 13.22575188 11.71175385 C11.38889002 11.71478631 9.55202948 11.72283475 7.71521187 11.73593903 C5.14855147 11.75294522 2.58256261 11.75113295 0.01586914 11.74462891 C-0.74631424 11.75384369 -1.50849762 11.76305847 -2.29377747 11.77255249 C-7.41608203 11.73177697 -7.41608203 11.73177697 -9.88417053 10.02215576 C-11.36906899 7.6618181 -11.32173156 6.11899819 -10.91210938 3.38818359 C-8.35004028 -0.67551819 -4.31347307 -0.03443856 0 0 Z " fill="#4A5484" transform="translate(132.912109375,236.61181640625)"/>
<path d="M0 0 C0.69787628 -0.00511093 1.39575256 -0.01022186 2.11477661 -0.01548767 C4.42165704 -0.02938817 6.72823892 -0.02842681 9.03515625 -0.02612305 C10.63794059 -0.03000933 12.24072389 -0.03434386 13.84350586 -0.03910828 C17.20267069 -0.04657116 20.56173041 -0.04627845 23.92089844 -0.04101562 C28.22869767 -0.03521655 32.53606756 -0.05216194 36.84379578 -0.0753603 C40.15346803 -0.09008003 43.46303641 -0.09097184 46.7727356 -0.08785057 C48.3611842 -0.08836453 49.9496385 -0.09361627 51.53805542 -0.10366249 C53.75742655 -0.11597785 55.9759552 -0.10926594 58.1953125 -0.09765625 C59.45867432 -0.09828568 60.72203613 -0.0989151 62.02368164 -0.0995636 C65.09765625 0.2746582 65.09765625 0.2746582 67.00561523 1.64167786 C68.57678479 3.99112166 68.51222125 5.51089155 68.09765625 8.2746582 C67.01234436 9.90763855 67.01234436 9.90763855 65.09765625 11.2746582 C61.97898865 11.64888 61.97898865 11.64888 58.08764648 11.64697266 C57.37841034 11.65062332 56.66917419 11.65427399 55.93844604 11.65803528 C53.59413714 11.66614143 51.25051924 11.65253211 48.90625 11.63793945 C47.27865092 11.63742091 45.65105122 11.63793839 44.02345276 11.63945007 C40.61295214 11.63936035 37.20268791 11.62893001 33.79223633 11.61083984 C29.4149024 11.58813456 25.0379134 11.58761177 20.66053677 11.59435749 C17.30028706 11.5976943 13.9401164 11.59107315 10.57988167 11.58122826 C8.96549963 11.57737233 7.35110881 11.57622966 5.73672295 11.5778141 C3.48373442 11.57818383 1.23119302 11.56559173 -1.02172852 11.54931641 C-2.30507584 11.54470901 -3.58842316 11.54010162 -4.91065979 11.53535461 C-7.90234375 11.2746582 -7.90234375 11.2746582 -9.90234375 9.2746582 C-10.21484375 5.7746582 -10.21484375 5.7746582 -9.90234375 2.2746582 C-6.22006056 -0.18019726 -4.39389142 0.01602421 0 0 Z " fill="#4A5484" transform="translate(234.90234375,236.725341796875)"/>
<path d="M0 0 C0.69097275 0.00404846 1.3819455 0.00809692 2.09385681 0.01226807 C2.82245407 0.00876343 3.55105133 0.00525879 4.30172729 0.00164795 C6.71625729 -0.00717295 9.13049558 -0.00131907 11.54502869 0.00543213 C13.21889808 0.00408558 14.89276708 0.00214513 16.56663513 -0.00036621 C20.07721169 -0.00331796 23.58768658 0.00098175 27.09825134 0.01031494 C31.60451093 0.02170954 36.1105323 0.01515033 40.61678314 0.00317001 C44.07395736 -0.00404725 47.53107483 -0.00176128 50.98825073 0.0034256 C52.65008573 0.00476247 54.31192584 0.00311308 55.97375488 -0.00153351 C58.29387616 -0.0065966 60.61360836 0.00110815 62.93370056 0.01226807 C63.62467331 0.0082196 64.31564606 0.00417114 65.02755737 0 C69.78524943 0.04252787 69.78524943 0.04252787 72.01377869 2.27105713 C72.26377869 5.27105713 72.26377869 5.27105713 72.01377869 8.27105713 C69.11604065 11.16879517 67.00644218 10.53154297 62.9495697 10.54571533 C62.22257874 10.55082626 61.49558777 10.55593719 60.74656677 10.561203 C58.33685638 10.57513407 55.92743088 10.5741396 53.51768494 10.57183838 C51.84621066 10.57572348 50.17473738 10.58005777 48.50326538 10.58482361 C44.99689028 10.59229344 41.49061586 10.59198912 37.98423767 10.58673096 C33.486967 10.58093629 28.99010817 10.59786334 24.49290562 10.62107563 C21.03997379 10.63579558 17.58714153 10.63668704 14.13418388 10.6335659 C12.47595847 10.63408003 10.81772762 10.63933481 9.15953255 10.64937782 C6.84187565 10.66169114 4.52502582 10.6549819 2.2073822 10.64337158 C0.22787315 10.64431572 0.22787315 10.64431572 -1.79162598 10.64527893 C-4.98622131 10.27105713 -4.98622131 10.27105713 -6.94754028 8.90794373 C-7.98622131 7.27105713 -7.98622131 7.27105713 -7.79872131 4.70855713 C-6.3068958 0.2330806 -4.42150871 0.03952281 0 0 Z " fill="#445083" transform="translate(180.98622131347656,209.72894287109375)"/>
<path d="M0 0 C3.3 0 6.6 0 10 0 C11.87562608 7.77286485 13.03758107 15.58197918 14.125 23.5 C14.30675781 24.76714844 14.48851562 26.03429687 14.67578125 27.33984375 C14.84722656 28.57863281 15.01867187 29.81742188 15.1953125 31.09375 C15.35016113 32.20427734 15.50500977 33.31480469 15.66455078 34.45898438 C16.05894057 38.62217905 16 42.81816628 16 47 C8.74 47 1.48 47 -6 47 C-5.55888297 39.57453001 -4.99868263 32.42392672 -3.5390625 25.13671875 C-2.68778909 20.18329448 -2.20369032 15.19136636 -1.69750977 10.19238281 C-1.33518415 6.686987 -0.85699859 3.42799438 0 0 Z " fill="#FDD0C1" transform="translate(406,41)"/>
<path d="M0 0 C2.86273494 6.79899549 3.20242427 13.75422253 0.4375 20.625 C-3.89592979 29.18616618 -10.3154117 34.96487779 -19 39 C-25.19459053 40.57232726 -31.17685892 40.91157054 -37 38 C-37 37.34 -37 36.68 -37 36 C-35.47490415 34.90430007 -33.90298891 33.8734091 -32.3125 32.875 C-25.34132709 28.0964527 -22.69963103 23.29199042 -20.125 15.375 C-17.87385603 8.89062911 -14.61484617 5.89038677 -8.6171875 2.75390625 C-2.69009516 0 -2.69009516 0 0 0 Z " fill="#D27E69" transform="translate(248,141)"/>
<path d="M0 0 C1.19133545 -0.00953201 2.3826709 -0.01906403 3.61010742 -0.02888489 C4.89763916 -0.02797348 6.1851709 -0.02706207 7.51171875 -0.02612305 C8.84546034 -0.03001018 10.1792007 -0.03434489 11.51293945 -0.03910828 C14.30716975 -0.0465677 17.10127369 -0.04628097 19.89550781 -0.04101562 C23.47693095 -0.03521649 27.05783769 -0.05216331 30.63917542 -0.0753603 C33.39297511 -0.09008768 36.14665008 -0.09097083 38.90048218 -0.08785057 C40.86312128 -0.08861387 42.82574103 -0.10249292 44.78833008 -0.11653137 C46.57533325 -0.10718819 46.57533325 -0.10718819 48.3984375 -0.09765625 C49.44862061 -0.09828568 50.49880371 -0.0989151 51.58081055 -0.0995636 C54.19921875 0.2746582 54.19921875 0.2746582 56.03833008 1.60652161 C57.83924114 4.19433706 57.58900138 6.22136091 57.19921875 9.2746582 C53.734985 11.58414737 52.39315594 11.53168617 48.30664062 11.54931641 C46.48960632 11.56361443 46.48960632 11.56361443 44.63586426 11.57820129 C43.32645874 11.57728989 42.01705322 11.57637848 40.66796875 11.57543945 C39.31180693 11.5793265 37.95564633 11.58366119 36.5994873 11.58842468 C33.75817923 11.59588445 30.91699543 11.59559713 28.07568359 11.59033203 C24.43372963 11.5845329 20.79228349 11.60147958 17.15041351 11.6246767 C14.35029118 11.63940333 11.55029152 11.64028733 8.75013733 11.63716698 C6.75425988 11.63793035 4.75840147 11.65181005 2.76257324 11.66584778 C0.94553894 11.65650459 0.94553894 11.65650459 -0.90820312 11.64697266 C-1.97615112 11.64760208 -3.04409912 11.64823151 -4.14440918 11.64888 C-6.80078125 11.2746582 -6.80078125 11.2746582 -8.67687988 9.9427948 C-9.80078125 8.2746582 -9.80078125 8.2746582 -9.67578125 5.2121582 C-8.10374539 -0.06539075 -4.89845654 0.02149064 0 0 Z " fill="#4A5484" transform="translate(233.80078125,319.725341796875)"/>
<path d="M0 0 C2.875 2.5 2.875 2.5 5 5 C4 8 4 8 1.41796875 9.4296875 C-0.72722648 10.38944836 -2.87305572 11.34779342 -5.01953125 12.3046875 C-10.54319015 15.44658522 -12.4102206 19.50853101 -14.375 25.375 C-17.43790192 33.62342279 -21.455976 38.80986012 -29.109375 43.25 C-31 44 -31 44 -33.8125 43.5625 C-36.13628621 41.90265271 -37.54391584 40.45235227 -39 38 C-39 37.34 -39 36.68 -39 36 C-37.44863221 34.93121418 -35.85737508 33.92004286 -34.25 32.9375 C-28.83111411 29.24869441 -27.11652582 26.03455967 -25 20 C-21.36951756 11.25201095 -16.92325164 6.05241601 -8.875 1.0625 C-5.55081382 -0.16600359 -3.50749968 -0.59702122 0 0 Z " fill="#9C3F4C" transform="translate(242,134)"/>
<path d="M0 0 C10.89 0 21.78 0 33 0 C34 4 34 4 34 15 C23.44 15 12.88 15 2 15 C0 6 0 6 0 0 Z " fill="#445083" transform="translate(436,420)"/>
<path d="M0 0 C0.77085937 0.00091141 1.54171875 0.00182281 2.3359375 0.00276184 C3.12742187 -0.00152328 3.91890625 -0.00580841 4.734375 -0.01022339 C6.40884443 -0.01596989 8.08333882 -0.01646459 9.7578125 -0.01213074 C12.32595162 -0.0089692 14.8929408 -0.03243001 17.4609375 -0.05778503 C19.08593604 -0.06005777 20.71093769 -0.06076164 22.3359375 -0.05973816 C23.49222656 -0.07355278 23.49222656 -0.07355278 24.671875 -0.08764648 C26.8359375 -0.06877136 26.8359375 -0.06877136 30.3359375 0.30354309 C32.3359375 3.30354309 32.3359375 3.30354309 32.0234375 6.42854309 C31.3359375 9.30354309 31.3359375 9.30354309 30.3359375 10.30354309 C27.69307476 10.41690935 25.07732294 10.4677207 22.43359375 10.47151184 C21.64069443 10.47484024 20.8477951 10.47816864 20.03086853 10.4815979 C18.35041892 10.48667036 16.66995921 10.48900613 14.98950195 10.48884583 C12.41275491 10.49103095 9.83643674 10.50917918 7.25976562 10.52815247 C5.6302098 10.53108655 4.00065194 10.53307124 2.37109375 10.53401184 C1.21009911 10.54479012 1.21009911 10.54479012 0.02565002 10.55578613 C-5.43523997 10.53236562 -5.43523997 10.53236562 -7.6640625 8.30354309 C-7.9140625 5.30354309 -7.9140625 5.30354309 -7.6640625 2.30354309 C-5.12230528 -0.23821413 -3.46837253 0.0462942 0 0 Z " fill="#455183" transform="translate(274.6640625,209.6964569091797)"/>
<path d="M0 0 C1.00897339 0.00326294 1.00897339 0.00326294 2.03833008 0.0065918 C4.08859551 0.00974867 6.13741342 -0.01369197 8.1875 -0.0390625 C9.47720703 -0.03970703 10.76691406 -0.04035156 12.09570312 -0.04101562 C13.28220459 -0.04399658 14.46870605 -0.04697754 15.69116211 -0.05004883 C18.66210938 0.32226562 18.66210938 0.32226562 20.54907227 1.6887207 C22.14783083 4.03513298 22.07839096 5.54705508 21.66210938 8.32226562 C20.546875 9.95141602 20.546875 9.95141602 18.66210938 11.32226562 C14.52338478 11.88816031 10.38475002 11.79497215 6.21044922 11.76831055 C4.16857367 11.75979259 2.12949023 11.78857397 0.08789062 11.8203125 C-1.19730469 11.81966797 -2.4825 11.81902344 -3.80664062 11.81835938 C-5.5768457 11.82113892 -5.5768457 11.82113892 -7.3828125 11.82397461 C-10.33789062 11.32226562 -10.33789062 11.32226562 -12.2578125 9.45532227 C-13.33789062 7.32226562 -13.33789062 7.32226562 -13.15039062 4.69726562 C-11.01820117 -1.53528816 -5.62197707 0.03093634 0 0 Z " fill="#4B5584" transform="translate(131.337890625,264.677734375)"/>
<path d="M0 0 C1.02075623 -0.00287018 1.02075623 -0.00287018 2.06213379 -0.00579834 C3.50122446 -0.00715963 4.94032744 -0.00346705 6.37939453 0.00488281 C8.58524087 0.01558372 10.79027281 0.00498628 12.99609375 -0.0078125 C14.39323097 -0.00649089 15.79036768 -0.00392848 17.1875 0 C18.46302734 0.00225586 19.73855469 0.00451172 21.05273438 0.00683594 C24.09375 0.265625 24.09375 0.265625 26.09375 2.265625 C26.34375 5.265625 26.34375 5.265625 26.09375 8.265625 C22.64530772 11.71406728 17.65485767 10.56929483 12.99609375 10.58789062 C11.91303955 10.58462769 11.91303955 10.58462769 10.80810547 10.58129883 C8.60203766 10.57813688 6.39730831 10.60160076 4.19140625 10.62695312 C2.79427253 10.62922588 1.39713519 10.62992972 0 10.62890625 C-1.27552734 10.63188721 -2.55105469 10.63486816 -3.86523438 10.63793945 C-4.86876953 10.51507568 -5.87230469 10.39221191 -6.90625 10.265625 C-9.05540785 7.04188823 -9.28911803 5.99858826 -8.90625 2.265625 C-6.03758116 -0.60304384 -4.00969387 0.00709142 0 0 Z " fill="#455083" transform="translate(134.90625,209.734375)"/>
</svg>
