<?xml version="1.0" encoding="UTF-8"?>
<svg version="1.1" xmlns="http://www.w3.org/2000/svg" width="512" height="512">
<path d="M0 0 C1.01790619 0.00215515 2.03581238 0.0043103 3.08456421 0.00653076 C17.69363523 0.05620146 32.02575853 0.30709809 46.375 3.3125 C47.34985352 3.51117676 48.32470703 3.70985352 49.32910156 3.91455078 C97.7109774 14.03517194 141.69928269 35.9516877 177.375 70.3125 C178.3640332 71.26068604 178.3640332 71.26068604 179.37304688 72.22802734 C188.86130305 81.37247479 197.6012044 90.66984009 205.375 101.3125 C206.23306152 102.46355017 207.09113451 103.61459177 207.94921875 104.765625 C213.98791574 112.95680857 219.3588509 121.46247349 224.375 130.3125 C224.77187012 131.00375977 225.16874023 131.69501953 225.57763672 132.40722656 C241.65140503 160.65268219 251.17472112 192.1750954 255.375 224.3125 C255.50382568 225.28955399 255.50382568 225.28955399 255.63525391 226.28634644 C256.33837679 232.01788475 256.54948315 237.67411075 256.578125 243.4453125 C256.58518463 244.39166061 256.59224426 245.33800873 256.59951782 246.31303406 C256.82741099 285.82902112 256.82741099 285.82902112 253.375 302.3125 C253.07698486 303.77478027 253.07698486 303.77478027 252.77294922 305.26660156 C242.65232806 353.6484774 220.7358123 397.63678269 186.375 433.3125 C185.74287598 433.97185547 185.11075195 434.63121094 184.45947266 435.31054688 C175.31502521 444.79880305 166.01765991 453.5387044 155.375 461.3125 C154.22394983 462.17056152 153.07290823 463.02863451 151.921875 463.88671875 C143.73224019 469.92427396 135.22961724 475.30707302 126.375 480.3125 C125.66778809 480.7146875 124.96057617 481.116875 124.23193359 481.53125 C86.56956952 502.73548401 44.17570821 512.77469889 1.125 512.6875 C-0.39302216 512.68668427 -0.39302216 512.68668427 -1.94171143 512.68585205 C-18.47030572 512.64511956 -34.40413999 511.74174222 -50.625 508.3125 C-51.66688477 508.09287598 -52.70876953 507.87325195 -53.78222656 507.64697266 C-100.07549311 497.54935215 -142.48913721 475.19021242 -176.625 442.3125 C-177.28435547 441.68037598 -177.94371094 441.04825195 -178.62304688 440.39697266 C-188.11130305 431.25252521 -196.8512044 421.95515991 -204.625 411.3125 C-205.48306152 410.16144983 -206.34113451 409.01040823 -207.19921875 407.859375 C-213.23677396 399.66974019 -218.61957302 391.16711724 -223.625 382.3125 C-224.0271875 381.60528809 -224.429375 380.89807617 -224.84375 380.16943359 C-237.8691741 357.03404164 -246.61801461 331.86287591 -251.9375 305.875 C-252.08485596 305.15610596 -252.23221191 304.43721191 -252.3840332 303.6965332 C-255.35789088 288.05024391 -255.99800362 272.57681954 -255.9375 256.6875 C-255.93534485 255.66959381 -255.9331897 254.65168762 -255.93096924 253.60293579 C-255.88129854 238.99386477 -255.63040191 224.66174147 -252.625 210.3125 C-252.42632324 209.33764648 -252.22764648 208.36279297 -252.02294922 207.35839844 C-241.90232806 158.9765226 -219.9858123 114.98821731 -185.625 79.3125 C-184.99287598 78.65314453 -184.36075195 77.99378906 -183.70947266 77.31445312 C-174.56502521 67.82619695 -165.26765991 59.0862956 -154.625 51.3125 C-153.47394983 50.45443848 -152.32290823 49.59636549 -151.171875 48.73828125 C-142.98224019 42.70072604 -134.47961724 37.31792698 -125.625 32.3125 C-124.91778809 31.9103125 -124.21057617 31.508125 -123.48193359 31.09375 C-100.34654164 18.0683259 -75.17537591 9.31948539 -49.1875 4 C-48.46860596 3.85264404 -47.74971191 3.70528809 -47.0090332 3.5534668 C-31.36274391 0.57960912 -15.88931954 -0.06050362 0 0 Z " fill="#FEEAD1" transform="translate(255.625,-0.3125)"/>
<path d="M0 0 C1.01790619 0.00215515 2.03581238 0.0043103 3.08456421 0.00653076 C17.69363523 0.05620146 32.02575853 0.30709809 46.375 3.3125 C47.34985352 3.51117676 48.32470703 3.70985352 49.32910156 3.91455078 C97.7109774 14.03517194 141.69928269 35.9516877 177.375 70.3125 C178.3640332 71.26068604 178.3640332 71.26068604 179.37304688 72.22802734 C188.86130305 81.37247479 197.6012044 90.66984009 205.375 101.3125 C206.23306152 102.46355017 207.09113451 103.61459177 207.94921875 104.765625 C213.98791574 112.95680857 219.3588509 121.46247349 224.375 130.3125 C224.77187012 131.00375977 225.16874023 131.69501953 225.57763672 132.40722656 C241.65140503 160.65268219 251.17472112 192.1750954 255.375 224.3125 C255.50382568 225.28955399 255.50382568 225.28955399 255.63525391 226.28634644 C256.33837679 232.01788475 256.54948315 237.67411075 256.578125 243.4453125 C256.58518463 244.39166061 256.59224426 245.33800873 256.59951782 246.31303406 C256.82741099 285.82902112 256.82741099 285.82902112 253.375 302.3125 C253.07698486 303.77478027 253.07698486 303.77478027 252.77294922 305.26660156 C242.65232806 353.6484774 220.7358123 397.63678269 186.375 433.3125 C185.74287598 433.97185547 185.11075195 434.63121094 184.45947266 435.31054688 C175.31502521 444.79880305 166.01765991 453.5387044 155.375 461.3125 C154.22394983 462.17056152 153.07290823 463.02863451 151.921875 463.88671875 C143.73224019 469.92427396 135.22961724 475.30707302 126.375 480.3125 C125.66778809 480.7146875 124.96057617 481.116875 124.23193359 481.53125 C86.56956952 502.73548401 44.17570821 512.77469889 1.125 512.6875 C-0.39302216 512.68668427 -0.39302216 512.68668427 -1.94171143 512.68585205 C-18.47030572 512.64511956 -34.40413999 511.74174222 -50.625 508.3125 C-51.66688477 508.09287598 -52.70876953 507.87325195 -53.78222656 507.64697266 C-100.07549311 497.54935215 -142.48913721 475.19021242 -176.625 442.3125 C-177.28435547 441.68037598 -177.94371094 441.04825195 -178.62304688 440.39697266 C-188.11130305 431.25252521 -196.8512044 421.95515991 -204.625 411.3125 C-205.48306152 410.16144983 -206.34113451 409.01040823 -207.19921875 407.859375 C-213.23677396 399.66974019 -218.61957302 391.16711724 -223.625 382.3125 C-224.0271875 381.60528809 -224.429375 380.89807617 -224.84375 380.16943359 C-237.8691741 357.03404164 -246.61801461 331.86287591 -251.9375 305.875 C-252.08485596 305.15610596 -252.23221191 304.43721191 -252.3840332 303.6965332 C-255.35789088 288.05024391 -255.99800362 272.57681954 -255.9375 256.6875 C-255.93534485 255.66959381 -255.9331897 254.65168762 -255.93096924 253.60293579 C-255.88129854 238.99386477 -255.63040191 224.66174147 -252.625 210.3125 C-252.42632324 209.33764648 -252.22764648 208.36279297 -252.02294922 207.35839844 C-241.90232806 158.9765226 -219.9858123 114.98821731 -185.625 79.3125 C-184.99287598 78.65314453 -184.36075195 77.99378906 -183.70947266 77.31445312 C-174.56502521 67.82619695 -165.26765991 59.0862956 -154.625 51.3125 C-153.47394983 50.45443848 -152.32290823 49.59636549 -151.171875 48.73828125 C-142.98224019 42.70072604 -134.47961724 37.31792698 -125.625 32.3125 C-124.91778809 31.9103125 -124.21057617 31.508125 -123.48193359 31.09375 C-100.34654164 18.0683259 -75.17537591 9.31948539 -49.1875 4 C-48.46860596 3.85264404 -47.74971191 3.70528809 -47.0090332 3.5534668 C-31.36274391 0.57960912 -15.88931954 -0.06050362 0 0 Z M-95.625 74.3125 C-94.91923828 75.41658203 -94.91923828 75.41658203 -94.19921875 76.54296875 C-93.57660156 77.51878906 -92.95398438 78.49460937 -92.3125 79.5 C-91.39017578 80.94439453 -91.39017578 80.94439453 -90.44921875 82.41796875 C-89.54623047 83.85076172 -89.54623047 83.85076172 -88.625 85.3125 C-88.06296875 86.16199219 -87.5009375 87.01148438 -86.921875 87.88671875 C-84.90107811 91.66658282 -84.91678017 95.13561257 -85.625 99.3125 C-87.1875 101.375 -87.1875 101.375 -89.625 102.3125 C-93.125 102.75 -93.125 102.75 -96.625 102.3125 C-100.01741618 99.48103452 -102.14205628 96.15859908 -104.375 92.375 C-104.98859375 91.35535156 -105.6021875 90.33570313 -106.234375 89.28515625 C-107.6352863 86.29051158 -107.93617383 84.56187292 -107.625 81.3125 C-121.22472732 89.44458184 -133.17879136 99.40589834 -144.625 110.3125 C-145.40359375 111.03824219 -146.1821875 111.76398438 -146.984375 112.51171875 C-157.37866997 122.4821329 -165.61546589 134.40697029 -173.625 146.3125 C-173.13 147.3025 -173.13 147.3025 -172.625 148.3125 C-172.09261719 148.43753906 -171.56023437 148.56257813 -171.01171875 148.69140625 C-167.50574755 149.60376209 -164.54972113 151.45019966 -161.4375 153.25 C-160.79619141 153.61029297 -160.15488281 153.97058594 -159.49414062 154.34179688 C-154.75032383 157.06185233 -154.75032383 157.06185233 -153.625 159.3125 C-153.36770446 162.78598974 -153.30444503 165.47905709 -154.5625 168.75 C-157.24205024 170.7799623 -159.54894497 171.09691318 -162.875 170.9765625 C-168.74818578 169.55832162 -173.71340161 165.70027839 -178.625 162.3125 C-180.11 161.3225 -180.11 161.3225 -181.625 160.3125 C-194.41563846 185.58804003 -204.94421833 213.56004679 -204.6875 242.3125 C-204.68073242 243.33150391 -204.68073242 243.33150391 -204.67382812 244.37109375 C-204.6622283 246.01826874 -204.64430199 247.66539726 -204.625 249.3125 C-203.965 248.9825 -203.305 248.6525 -202.625 248.3125 C-198.37832817 248.10105483 -194.12780971 248.12670396 -189.87646484 248.12719727 C-187.765093 248.1250156 -185.65424779 248.10686897 -183.54296875 248.08789062 C-182.19791845 248.08495558 -180.85286567 248.08297153 -179.5078125 248.08203125 C-178.28465332 248.07792236 -177.06149414 248.07381348 -175.80126953 248.06958008 C-172.78184221 248.30050477 -171.10435125 248.62560666 -168.625 250.3125 C-167.03729528 253.48790944 -167.21399698 256.85440559 -167.625 260.3125 C-169.16838091 262.48726401 -170.26165273 263.13082637 -172.625 264.3125 C-174.85246339 264.41022811 -177.0828947 264.44327394 -179.3125 264.4453125 C-179.97080811 264.44626923 -180.62911621 264.44722595 -181.30737305 264.44821167 C-182.69938248 264.44889225 -184.0913951 264.44704646 -185.48339844 264.44287109 C-187.61660883 264.43752104 -189.74960867 264.44282012 -191.8828125 264.44921875 C-193.23437547 264.44855795 -194.5859383 264.44727674 -195.9375 264.4453125 C-197.78794922 264.44362061 -197.78794922 264.44362061 -199.67578125 264.44189453 C-202.625 264.3125 -202.625 264.3125 -204.625 263.3125 C-205.95943849 293.60919603 -196.08354513 325.89785024 -181.625 352.3125 C-180.91214844 351.85359375 -180.19929688 351.3946875 -179.46484375 350.921875 C-177.48538901 349.65374518 -175.5007692 348.39365038 -173.51171875 347.140625 C-171.85373913 346.09064603 -170.20434371 345.02616417 -168.58203125 343.921875 C-165.45784608 341.8915121 -163.64197739 341.3125 -159.875 341.3125 C-156.625 342.3125 -156.625 342.3125 -154.6875 343.9375 C-153.18800134 347.28932053 -153.17122527 349.68230218 -153.625 353.3125 C-156.46607923 356.73791467 -159.78083932 358.75593881 -163.625 360.9375 C-165.171875 361.82308594 -165.171875 361.82308594 -166.75 362.7265625 C-169.02120099 363.97942609 -171.30147004 365.16257705 -173.625 366.3125 C-166.19725946 377.19071575 -158.54815854 387.6095648 -149.625 397.3125 C-149.12419922 397.8585791 -148.62339844 398.4046582 -148.10742188 398.96728516 C-136.75442875 411.18661461 -123.40807801 420.99960946 -109.625 430.3125 C-108.965 429.9825 -108.305 429.6525 -107.625 429.3125 C-107.49996094 428.60609375 -107.37492187 427.8996875 -107.24609375 427.171875 C-106.44870022 423.50085574 -104.6737 420.69120443 -102.6875 417.5625 C-102.14706055 416.67884766 -102.14706055 416.67884766 -101.59570312 415.77734375 C-98.8925047 411.44625235 -98.8925047 411.44625235 -96.625 410.3125 C-93.15151026 410.05520446 -90.45844291 409.99194503 -87.1875 411.25 C-85.15959564 413.92683376 -84.84029387 416.23150377 -84.9609375 419.5546875 C-86.36635161 425.39128964 -90.08349182 430.53359739 -93.625 435.3125 C-94.285 435.6425 -94.945 435.9725 -95.625 436.3125 C-95.625 436.9725 -95.625 437.6325 -95.625 438.3125 C-67.8197507 452.01931303 -37.97409748 462.1700741 -6.625 461.3125 C-6.955 460.6525 -7.285 459.9925 -7.625 459.3125 C-7.88312405 454.92403515 -7.8960009 450.53181056 -7.92016602 446.13671875 C-7.93738187 443.9524869 -7.98127034 441.76976825 -8.02539062 439.5859375 C-8.03551777 438.19532362 -8.04403381 436.80469689 -8.05078125 435.4140625 C-8.07265503 433.51648193 -8.07265503 433.51648193 -8.0949707 431.58056641 C-7.54573982 427.76134323 -6.65861454 426.61021154 -3.625 424.3125 C-1.625 423.78125 -1.625 423.78125 0.375 423.8125 C1.365 423.79703125 1.365 423.79703125 2.375 423.78125 C5.35263428 424.57218411 6.47417733 425.90285524 8.375 428.3125 C8.8449707 431.58056641 8.8449707 431.58056641 8.80078125 435.4140625 C8.79749313 436.09173676 8.79420502 436.76941101 8.79081726 437.46762085 C8.78042344 438.89485329 8.76051894 440.32204435 8.73168945 441.74902344 C8.68750839 443.93708431 8.67023568 446.1240477 8.65820312 448.3125 C8.5553339 458.9518322 8.5553339 458.9518322 7.375 461.3125 C19.59303176 460.89367858 31.38007126 459.6825952 43.375 457.3125 C44.06916016 457.18004883 44.76332031 457.04759766 45.47851562 456.91113281 C63.04375712 453.48599365 79.64891532 446.77022621 95.375 438.3125 C94.26766947 435.95802448 93.05319799 433.80941134 91.6484375 431.61328125 C87.57914767 425.20791763 85.16380484 420.94302953 86.375 413.3125 C87.66796875 411.59375 87.66796875 411.59375 89.375 410.3125 C94.87019231 409.70192308 94.87019231 409.70192308 97.375 410.3125 C100.81162656 413.12428537 102.8978064 416.50533146 105.125 420.3125 C105.73859375 421.34375 106.3521875 422.375 106.984375 423.4375 C108.375 426.3125 108.375 426.3125 108.375 430.3125 C112.88263868 428.79010882 116.4680809 426.3129076 120.25 423.5 C120.89984863 423.01934082 121.54969727 422.53868164 122.21923828 422.04345703 C139.71958586 408.91083265 154.30727133 393.90487992 167.375 376.375 C167.85630371 375.7361084 168.33760742 375.0972168 168.83349609 374.43896484 C171.05296075 371.42071702 172.63229794 368.98158791 173.375 365.3125 C172.66214844 364.92578125 171.94929688 364.5390625 171.21484375 364.140625 C168.26518237 362.53677144 165.31981532 360.92523107 162.375 359.3125 C161.63121094 358.9103125 160.88742187 358.508125 160.12109375 358.09375 C155.48919308 355.54088617 155.48919308 355.54088617 154.375 353.3125 C153.88200698 348.95772829 153.92217141 346.97115977 156.4375 343.3125 C159.375 341.3125 159.375 341.3125 162.63671875 341.44140625 C166.79743519 342.41093579 169.55086169 343.9301661 173.125 346.25 C174.23359375 346.96027344 175.3421875 347.67054688 176.484375 348.40234375 C178.45061435 349.70165597 180.41405861 351.00520574 182.375 352.3125 C187.40080698 342.47999479 191.56328797 332.49704454 195.1875 322.0625 C195.5599585 320.99918457 195.93241699 319.93586914 196.31616211 318.84033203 C199.86837246 308.40325124 202.33500772 297.75902906 204.0625 286.875 C204.25356323 285.67846802 204.25356323 285.67846802 204.44848633 284.45776367 C205.5049616 277.36995538 205.69066554 270.47927695 205.375 263.3125 C204.715 263.6425 204.055 263.9725 203.375 264.3125 C198.98653515 264.57062405 194.59431056 264.5835009 190.19921875 264.60766602 C188.0149869 264.62488187 185.83226825 264.66877034 183.6484375 264.71289062 C182.25782362 264.72301777 180.86719689 264.73153381 179.4765625 264.73828125 C177.57898193 264.76015503 177.57898193 264.76015503 175.64306641 264.7824707 C171.82384323 264.23323982 170.67271154 263.34611454 168.375 260.3125 C167.84375 258.3125 167.84375 258.3125 167.875 256.3125 C167.85953125 255.3225 167.85953125 255.3225 167.84375 254.3125 C168.63468411 251.33486572 169.96535524 250.21332267 172.375 248.3125 C175.64306641 247.8425293 175.64306641 247.8425293 179.4765625 247.88671875 C180.15423676 247.89000687 180.83191101 247.89329498 181.53012085 247.89668274 C182.95735329 247.90707656 184.38454435 247.92698106 185.81152344 247.95581055 C187.99958431 247.99999161 190.1865477 248.01726432 192.375 248.02929688 C203.0143322 248.1321661 203.0143322 248.1321661 205.375 249.3125 C206.81571631 220.07129497 197.7495252 186.17962977 182.375 161.3125 C180.02052448 162.41983053 177.87191134 163.63430201 175.67578125 165.0390625 C169.30676871 169.0852587 164.97075119 171.63874227 157.375 170.3125 C155.3125 168.75 155.3125 168.75 154.375 166.3125 C153.9375 162.8125 153.9375 162.8125 154.375 159.3125 C157.21857227 155.89752431 160.56251148 153.79280578 164.375 151.5625 C165.40625 150.94890625 166.4375 150.3353125 167.5 149.703125 C170.375 148.3125 170.375 148.3125 174.375 148.3125 C172.79662921 143.47525776 170.04922812 139.8683931 167 135.875 C166.20468872 134.82590454 166.20468872 134.82590454 165.39331055 133.75561523 C149.76858289 113.34597319 131.92459559 96.47730065 110.375 82.3125 C109.715 82.6425 109.055 82.9725 108.375 83.3125 C108.24996094 83.84488281 108.12492187 84.37726563 107.99609375 84.92578125 C107.08373791 88.43175245 105.23730034 91.38777887 103.4375 94.5 C103.07720703 95.14130859 102.71691406 95.78261719 102.34570312 96.44335938 C99.62564767 101.18717617 99.62564767 101.18717617 97.375 102.3125 C90.00380215 102.78051256 90.00380215 102.78051256 87.6640625 101.0390625 C85.7959897 98.53697711 85.67070072 96.11843097 85.74609375 93.0625 C87.090329 87.18460174 90.99717562 82.20966707 94.375 77.3125 C95.035 76.3225 95.695 75.3325 96.375 74.3125 C76.77947758 64.54072755 56.91491577 57.39931438 35.375 53.3125 C34.6840625 53.18117676 33.993125 53.04985352 33.28125 52.91455078 C24.62645151 51.33389727 16.15661404 51.07227348 7.375 51.3125 C7.705 51.9725 8.035 52.6325 8.375 53.3125 C8.58644517 57.55917183 8.56079604 61.80969029 8.56030273 66.06103516 C8.5624844 68.172407 8.58063103 70.28325221 8.59960938 72.39453125 C8.60254442 73.73958155 8.60452847 75.08463433 8.60546875 76.4296875 C8.60957764 77.65284668 8.61368652 78.87600586 8.61791992 80.13623047 C8.38699523 83.15565779 8.06189334 84.83314875 6.375 87.3125 C3.19959056 88.90020472 -0.16690559 88.72350302 -3.625 88.3125 C-5.79976401 86.76911909 -6.44332637 85.67584727 -7.625 83.3125 C-7.72272811 81.08503661 -7.75577394 78.8546053 -7.7578125 76.625 C-7.75876923 75.96669189 -7.75972595 75.30838379 -7.76071167 74.63012695 C-7.76139225 73.23811752 -7.75954646 71.8461049 -7.75537109 70.45410156 C-7.75002104 68.32089117 -7.75532012 66.18789133 -7.76171875 64.0546875 C-7.76105795 62.70312453 -7.75977674 61.3515617 -7.7578125 60 C-7.75668457 58.76636719 -7.75555664 57.53273438 -7.75439453 56.26171875 C-7.625 53.3125 -7.625 53.3125 -6.625 51.3125 C-36.97775298 49.38873397 -69.06066683 60.28321154 -95.625 74.3125 Z " fill="#BEF991" transform="translate(255.625,-0.3125)"/>
<path d="M0 0 C4.65349873 1.49322311 8.8187618 3.3423436 13.0625 5.75 C14.07775757 6.32186035 14.07775757 6.32186035 15.11352539 6.90527344 C22.14548901 10.94879062 28.85921591 15.46185917 35.55297852 20.03808594 C36.80872681 20.89321777 36.80872681 20.89321777 38.08984375 21.765625 C38.90259766 22.32209717 39.71535156 22.87856934 40.55273438 23.4519043 C42.97798176 24.98607166 45.4374029 26.18137664 48.02734375 27.41015625 C51.57398228 29.34709751 51.88286958 29.66103165 53.2890625 33.73046875 C53.43555554 35.2131405 53.54512825 36.69975129 53.625 38.1875 C53.80864685 39.89207206 54.00605979 41.59519897 54.21484375 43.296875 C54.32683105 44.21275391 54.43881836 45.12863281 54.55419922 46.07226562 C57.61035178 66.14312079 64.84156825 86.44678939 75 104 C75.70382813 103.41863281 76.40765625 102.83726562 77.1328125 102.23828125 C89.942148 92.23862288 89.942148 92.23862288 96 92.75 C99.70062565 94.29192736 101.0830021 95.47272386 103 99 C103.65774827 103.09265591 103.64625908 105.07677275 101.25 108.5 C96.11414819 112.9530507 89.43051426 116.85649525 83 119 C90.42858155 129.87944745 98.0888161 140.28513153 107 150 C107.46841309 150.51369141 107.93682617 151.02738281 108.41943359 151.55664062 C119.57642647 163.64047442 132.8820835 173.61462843 147 182 C147.08507812 181.31292969 147.17015625 180.62585938 147.2578125 179.91796875 C148.17861426 176.29776395 149.90134554 173.43568438 151.875 170.3125 C152.22691406 169.73177734 152.57882813 169.15105469 152.94140625 168.55273438 C154.77069499 165.61159171 156.07312555 163.95124964 159 162 C162.96913548 161.55898495 165.33283323 161.67351414 168.9375 163.4375 C171.46370287 166.57611569 171.89431919 168.30384355 171.6953125 172.27734375 C170.21367566 178.07903406 166.64583726 183.31548253 163 188 C162.01 188.33 161.02 188.66 160 189 C160 189.66 160 190.32 160 191 C160.79148438 191.24234375 161.58296875 191.4846875 162.3984375 191.734375 C166.0249939 193.00878311 169.47077581 194.50317297 172.9765625 196.0715332 C194.17430956 205.50382718 218.49204565 213.30420571 241.9375 213.0625 C243.08089844 213.05347656 244.22429687 213.04445313 245.40234375 213.03515625 C246.25957031 213.02355469 247.11679688 213.01195312 248 213 C247.67 212.67 247.34 212.34 247 212 C246.70909456 207.65630306 246.68593517 203.30677071 246.64990234 198.95458984 C246.63337984 197.49186247 246.60613802 196.02921461 246.56787109 194.56689453 C246.51290269 192.4556297 246.49119834 190.3462605 246.4765625 188.234375 C246.45674316 186.96819336 246.43692383 185.70201172 246.41650391 184.39746094 C247.15080515 180.12192282 248.66932238 178.68045317 252 176 C254.0625 175.3359375 254.0625 175.3359375 256 175.375 C256.639375 175.36210937 257.27875 175.34921875 257.9375 175.3359375 C261.26000363 176.40568299 262.80054981 178.33680223 265 181 C265.58349609 184.39746094 265.58349609 184.39746094 265.5234375 188.234375 C265.51873444 188.91300598 265.51403137 189.59163696 265.50918579 190.29083252 C265.48793809 192.44494654 265.43135287 194.5965496 265.375 196.75 C265.35848327 198.21221645 265.34413767 199.67445914 265.33203125 201.13671875 C265.19614117 211.80385883 265.19614117 211.80385883 264 213 C294.67886658 211.54731855 322.44881119 204.49445982 350 191 C348.89266947 188.64552448 347.67819799 186.49691134 346.2734375 184.30078125 C339.90166453 174.27113861 339.90166453 174.27113861 340.51953125 167.84765625 C341 166 341 166 342.5 163.4375 C346.01142821 161.41842878 349.11116326 161.14882891 353 162 C359.23651321 166.2590822 363.65842244 174.97526733 366 182 C375.52241754 175.48754203 384.59665258 168.93735773 393 161 C394.28810702 159.91243658 395.57969534 158.82898087 396.875 157.75 C405.38949482 150.27844531 412.70319268 141.65549493 419.5 132.625 C419.99209961 131.97152588 420.48419922 131.31805176 420.99121094 130.64477539 C423.99014255 126.57945349 426.57284106 122.43070996 429 118 C428.48695313 117.91492188 427.97390625 117.82984375 427.4453125 117.7421875 C423.98707788 116.69256357 420.9900058 114.91693117 417.875 113.125 C416.92560547 112.59712891 416.92560547 112.59712891 415.95703125 112.05859375 C412.81094003 110.26178157 411.04194437 109.06291655 409 106 C408.55329363 101.97964268 408.61750984 99.70378189 410.5625 96.125 C413.81405763 93.29030873 415.69910417 93.10949327 420 93 C422.84769538 94.08108612 425.27921808 95.63624878 427.8125 97.3125 C428.47958984 97.72951172 429.14667969 98.14652344 429.83398438 98.57617188 C432.44021885 100.22512144 434.81370926 101.81370926 437 104 C442.21897629 94.58593378 446.2870635 84.98604867 449.8125 74.8125 C450.1849585 73.74531738 450.55741699 72.67813477 450.94116211 71.57861328 C454.28541276 61.70410185 456.91670679 51.9317648 457.61401367 41.5090332 C458.07907246 36.06961863 458.47269625 31.50790941 462.4609375 27.5703125 C464.79066186 26.30109221 467.02257741 25.20706037 469.44140625 24.15234375 C475.47865742 21.50615936 480.72030359 17.60704364 486.125 13.875 C506.22711704 0 506.22711704 0 512 0 C513.28918213 69.66211317 490.82214714 135.30954761 442 186 C441.36787598 186.65935547 440.73575195 187.31871094 440.08447266 187.99804688 C430.94002521 197.48630305 421.64265991 206.2262044 411 214 C409.84894983 214.85806152 408.69790823 215.71613451 407.546875 216.57421875 C399.35724019 222.61177396 390.85461724 227.99457302 382 233 C380.93918213 233.60328125 380.93918213 233.60328125 379.85693359 234.21875 C342.19456952 255.42298401 299.80070821 265.46219889 256.75 265.375 C255.23197784 265.37418427 255.23197784 265.37418427 253.68328857 265.37335205 C237.15469428 265.33261956 221.22086001 264.42924222 205 261 C203.95811523 260.78037598 202.91623047 260.56075195 201.84277344 260.33447266 C155.54950689 250.23685215 113.13586279 227.87771242 79 195 C78.34064453 194.36787598 77.68128906 193.73575195 77.00195312 193.08447266 C67.51369695 183.94002521 58.7737956 174.64265991 51 164 C50.14193848 162.84894983 49.28386549 161.69790823 48.42578125 160.546875 C42.38822604 152.35724019 37.00542698 143.85461724 32 135 C31.5978125 134.29278809 31.195625 133.58557617 30.78125 132.85693359 C16.16041644 106.88782023 6.90531486 78.34874823 2 49 C1.77441406 47.71480469 1.54882812 46.42960937 1.31640625 45.10546875 C-0.87041993 30.21996915 -0.17854848 15.00768679 0 0 Z " fill="#C79A83" transform="translate(0,247)"/>
<path d="M0 0 C-0.33 0.66 -0.66 1.32 -1 2 C-1.15411106 4.0307477 -1.24982453 6.06606421 -1.31640625 8.1015625 C-1.35830078 9.31328125 -1.40019531 10.525 -1.44335938 11.7734375 C-1.48267578 13.04445313 -1.52199219 14.31546875 -1.5625 15.625 C-1.62727539 17.543125 -1.62727539 17.543125 -1.69335938 19.5 C-1.79969886 22.66655348 -1.90172833 25.83318753 -2 29 C-2.60247559 29.20044922 -3.20495117 29.40089844 -3.82568359 29.60742188 C-41.56077708 42.24069288 -78.77632856 61.26567371 -103.8671875 93.28125 C-105.24895862 95.04262857 -106.66927921 96.77469682 -108.1328125 98.46875 C-126.16371058 119.40785744 -138.48960829 145.56582978 -146 172 C-146.20560547 172.71494629 -146.41121094 173.42989258 -146.62304688 174.16650391 C-160.9771796 225.43298973 -152.65696068 282.10284402 -126.75976562 328.20800781 C-121.3852396 337.7206904 -121.3852396 337.7206904 -115.234375 346.734375 C-112.2855852 351.0441447 -112.24495556 352.8824766 -113 358 C-114.60438552 360.79023569 -115.82771054 361.6059323 -118.84765625 362.62109375 C-123.16048437 363.25510297 -125.4055099 362.43479994 -128.9375 359.8515625 C-131.61050549 357.50319445 -134.11445714 354.99901771 -136.58935547 352.44433594 C-137.82069492 351.18358755 -139.09646894 349.96654651 -140.37890625 348.7578125 C-150.47106309 339.18922015 -161.04022625 326.60392343 -167 314 C-166.0925 313.649375 -165.185 313.29875 -164.25 312.9375 C-154.272845 308.98521437 -154.272845 308.98521437 -147 302 C-146.50700698 297.64522829 -146.54717141 295.65865977 -149.0625 292 C-151.8578823 289.67042739 -151.8578823 289.67042739 -155.26171875 290.12890625 C-159.42243519 291.09843579 -162.17586169 292.6176661 -165.75 294.9375 C-166.85859375 295.64777344 -167.9671875 296.35804688 -169.109375 297.08984375 C-171.07561435 298.38915597 -173.03905861 299.69270574 -175 301 C-188.86602007 273.48805542 -198.85077349 243.10049773 -198 212 C-197.34 212.33 -196.68 212.66 -196 213 C-191.75332817 213.21144517 -187.50280971 213.18579604 -183.25146484 213.18530273 C-181.140093 213.1874844 -179.02924779 213.20563103 -176.91796875 213.22460938 C-175.57291845 213.22754442 -174.22786567 213.22952847 -172.8828125 213.23046875 C-171.65965332 213.23457764 -170.43649414 213.23868652 -169.17626953 213.24291992 C-166.15684221 213.01199523 -164.47935125 212.68689334 -162 211 C-160.41229528 207.82459056 -160.58899698 204.45809441 -161 201 C-162.54338091 198.82523599 -163.63665273 198.18167363 -166 197 C-168.22746339 196.90227189 -170.4578947 196.86922606 -172.6875 196.8671875 C-173.34580811 196.86623077 -174.00411621 196.86527405 -174.68237305 196.86428833 C-176.07438248 196.86360775 -177.4663951 196.86545354 -178.85839844 196.86962891 C-180.99160883 196.87497896 -183.12460867 196.86967988 -185.2578125 196.86328125 C-186.60937547 196.86394205 -187.9609383 196.86522326 -189.3125 196.8671875 C-190.54613281 196.86831543 -191.77976562 196.86944336 -193.05078125 196.87060547 C-195.93225331 196.79630197 -195.93225331 196.79630197 -198 198 C-199.77226322 167.28077083 -189.33921301 135.81708587 -175 109 C-173.89591797 109.70576172 -173.89591797 109.70576172 -172.76953125 110.42578125 C-171.79371094 111.04839844 -170.81789063 111.67101562 -169.8125 112.3125 C-168.84957031 112.92738281 -167.88664062 113.54226562 -166.89453125 114.17578125 C-165.46173828 115.07876953 -165.46173828 115.07876953 -164 116 C-163.15050781 116.56203125 -162.30101562 117.1240625 -161.42578125 117.703125 C-157.64591718 119.72392189 -154.17688743 119.70821983 -150 119 C-147.74536751 117.5771736 -147.74536751 117.5771736 -147 115 C-146.41666667 111.5 -146.41666667 111.5 -147 108 C-149.84357227 104.58502431 -153.18751148 102.48030578 -157 100.25 C-158.03125 99.63640625 -159.0625 99.0228125 -160.125 98.390625 C-163.06787078 96.70971131 -163.06787078 96.70971131 -167 97 C-165.51386768 92.70939218 -163.26863985 89.21235887 -160.625 85.5625 C-160.18583252 84.95414307 -159.74666504 84.34578613 -159.29418945 83.71899414 C-143.32141308 61.92978491 -123.99008634 45.40642827 -102 30 C-101 32 -101 32 -100.68359375 33.67578125 C-99.6697394 37.12288605 -97.85045732 40.09575787 -96.0625 43.1875 C-95.70220703 43.82880859 -95.34191406 44.47011719 -94.97070312 45.13085938 C-93.09792373 48.66187906 -93.09792373 48.66187906 -90 51 C-86.52651026 51.25729554 -83.83344291 51.32055497 -80.5625 50.0625 C-78.5325377 47.38294976 -78.21558682 45.07605503 -78.3359375 41.75 C-79.75417838 35.87681422 -83.61222161 30.91159839 -87 26 C-87.99 24.515 -87.99 24.515 -89 23 C-61.45979549 8.92323293 -31.22628026 -0.85421435 0 0 Z " fill="#FEF2E3" transform="translate(249,51)"/>
<path d="M0 0 C1.44797083 -0.02124973 2.89585105 -0.05019018 4.34350586 -0.0871582 C17.43079757 -0.39313021 17.43079757 -0.39313021 21.41809082 2.71398926 C23.50012207 5.40539551 23.50012207 5.40539551 24.12512207 8.90539551 C23.37333959 13.1153774 22.79773332 14.65738614 19.50012207 17.40539551 C16.24894289 18.55409907 12.90706469 18.93969832 9.50012207 19.40539551 C-42.68093251 26.64332847 -91.17916943 48.62996061 -130.14440918 84.27258301 C-132.16298996 86.10035267 -134.22216146 87.84885744 -136.31237793 89.59289551 C-155.28555137 106.19442227 -170.00609124 127.71463572 -182.49987793 149.40539551 C-183.1572998 150.52945801 -183.81472168 151.65352051 -184.49206543 152.81164551 C-201.31800893 182.81453272 -209.10351669 215.73907763 -213.10583496 249.57873535 C-213.33569092 251.44586182 -213.33569092 251.44586182 -213.57019043 253.35070801 C-213.70183594 254.46977539 -213.83348145 255.58884277 -213.96911621 256.74182129 C-214.49987793 259.40539551 -214.49987793 259.40539551 -216.49987793 261.40539551 C-221.94917353 262.19410934 -225.34261499 260.10212286 -229.74987793 257.21789551 C-231.0670993 256.38952301 -232.38611766 255.56400116 -233.70690918 254.74133301 C-234.66911377 254.13950195 -234.66911377 254.13950195 -235.65075684 253.5255127 C-239.46159821 251.21707063 -243.46822869 249.29315597 -247.49987793 247.40539551 C-250.22164272 189.24027388 -221.6633243 128.10348174 -183.37487793 85.59289551 C-181.43838954 83.50905406 -179.4732554 81.45428935 -177.49987793 79.40539551 C-176.86775391 78.74604004 -176.23562988 78.08668457 -175.58435059 77.40734863 C-166.43990314 67.91909245 -157.14253784 59.17919111 -146.49987793 51.40539551 C-145.34882776 50.54733399 -144.19778616 49.689261 -143.04675293 48.83117676 C-134.85711812 42.79362154 -126.35449517 37.41082249 -117.49987793 32.40539551 C-116.79266602 32.00320801 -116.0854541 31.60102051 -115.35681152 31.18664551 C-89.38769816 16.56581195 -60.84862616 7.31071037 -31.49987793 2.40539551 C-30.21468262 2.17980957 -28.9294873 1.95422363 -27.60534668 1.72180176 C-18.44797155 0.37649336 -9.24417848 0.12383119 0 0 Z " fill="#D9FEBE" transform="translate(247.4998779296875,-0.4053955078125)"/>
<path d="M0 0 C1.22589844 0.0309375 2.45179688 0.061875 3.71484375 0.09375 C4.94332031 0.1040625 6.17179687 0.114375 7.4375 0.125 C10.65234375 0.59375 10.65234375 0.59375 12.59375 1.9765625 C13.65234375 3.59375 13.65234375 3.59375 13.52734375 5.96875 C12.57966678 8.81178092 11.29452162 11.09478367 9.65234375 13.59375 C12.62234375 12.93375 15.59234375 12.27375 18.65234375 11.59375 C18.65234375 8.95375 18.65234375 6.31375 18.65234375 3.59375 C24.87456691 4.89004649 28.84195392 7.49919199 33.65234375 11.59375 C34.24015625 12.07457031 34.82796875 12.55539063 35.43359375 13.05078125 C46.10632103 22.6319796 52.68356577 38.51023507 53.55078125 52.63671875 C53.58429688 53.61253906 53.6178125 54.58835938 53.65234375 55.59375 C53.68875977 56.24553223 53.72517578 56.89731445 53.76269531 57.56884766 C54.769018 76.62555504 51.07318225 96.00463007 38.40234375 110.90625 C29.32885854 120.39147319 19.61025156 125.85835971 6.42578125 126.83203125 C-4.27284401 127.06567939 -13.76240003 125.2711715 -22.34765625 118.59375 C-21.70828125 118.284375 -21.06890625 117.975 -20.41015625 117.65625 C-18.41154804 116.7592337 -18.41154804 116.7592337 -17.34765625 115.59375 C-16.79820367 111.41791041 -17.70139204 108.3216692 -19.16015625 104.46875 C-26.63601903 84.59519307 -26.62844534 63.50851474 -18.76171875 43.6640625 C-17.34765625 40.59375 -17.34765625 40.59375 -15.24609375 37.2265625 C-12.97476314 33.33911336 -12.63871216 29.77303678 -12.34765625 25.34375 C-10.17569408 1.80479055 -10.17569408 1.80479055 0 0 Z " fill="#C79A83" transform="translate(252.34765625,192.40625)"/>
<path d="M0 0 C2.69990662 1.79993774 4.5418865 3.083773 6 6 C6.09301163 8.59382177 6.12580286 11.16054639 6.11352539 13.75439453 C6.11367142 14.55447937 6.11381744 15.35456421 6.1139679 16.17889404 C6.1132698 18.83022753 6.10548221 21.48149125 6.09765625 24.1328125 C6.0957917 25.96841392 6.09436797 27.80401583 6.09336853 29.63961792 C6.08954623 34.47623055 6.07971839 39.31281327 6.06866455 44.14941406 C6.05844426 49.08267817 6.05386958 54.01594711 6.04882812 58.94921875 C6.03809588 68.63282566 6.02102289 78.31641035 6 88 C8.31 88.33 10.62 88.66 13 89 C13.35935829 95.3486631 13.35935829 95.3486631 12 97.8125 C8.84776326 99.68414056 5.577484 100.23758538 2 101 C2.474375 100.113125 2.94875 99.22625 3.4375 98.3125 C4.80767602 95.40772684 5.73467423 93.1839093 6 90 C3.15832772 87.15832772 1.08705954 87.59884556 -2.875 87.5 C-4.10992187 87.4484375 -5.34484375 87.396875 -6.6171875 87.34375 C-10.19108735 87.6800736 -10.19108735 87.6800736 -12.30859375 90.6171875 C-15.96675845 97.9335169 -18.08229431 105.69096234 -18.25 113.875 C-18.56062937 120.13795981 -21.03996141 124.83222606 -24.03027344 130.21826172 C-32.9006309 146.31162454 -31.90326525 168.3019206 -27.16796875 185.51953125 C-26.32905319 188.01944351 -25.45023509 190.34378382 -24.39453125 192.74609375 C-22.90731158 196.21627297 -22.32376937 198.28073156 -23 202 C-25.5 203.875 -25.5 203.875 -28 205 C-27.34 205.99 -26.68 206.98 -26 208 C-34.94306873 224.24499927 -43.97982673 240.42165726 -53.44970703 256.36767578 C-54.51601705 258.17821981 -55.56286465 260.00032244 -56.59326172 261.83154297 C-57.10775879 262.73146973 -57.62225586 263.63139648 -58.15234375 264.55859375 C-58.60472412 265.36482178 -59.05710449 266.1710498 -59.52319336 267.00170898 C-61.18764729 269.25390859 -62.3983691 270.02743658 -65 271 C-69.02250703 271.59909679 -70.50172663 271.34662495 -73.875 269 C-76.09226248 265.86974709 -76.55840686 264.13187733 -76.44189453 260.33789062 C-75.5169926 255.4445973 -72.60488904 251.41775312 -70 247.25 C-68.71709042 245.12730421 -67.43591307 243.00356077 -66.15625 240.87890625 C-65.47949219 239.76531738 -64.80273438 238.65172852 -64.10546875 237.50439453 C-60.81692515 232.06124162 -57.67892306 226.5310535 -54.53417969 221.00402832 C-53.52793587 219.23656913 -52.51832696 217.47107494 -51.5078125 215.70605469 C-50.2573987 213.51719257 -49.01399451 211.32430713 -47.77856445 209.12695312 C-46.58877019 207.03513638 -45.36808332 204.96060404 -44.11791992 202.90429688 C-43.54662354 201.93943359 -42.97532715 200.97457031 -42.38671875 199.98046875 C-41.87069092 199.13508545 -41.35466309 198.28970215 -40.82299805 197.41870117 C-39.71401625 194.9695456 -39.71401625 194.9695456 -40.89355469 192.40478516 C-42.31554605 190.05253212 -42.31554605 190.05253212 -44.12890625 187.66796875 C-46.21465915 184.69392025 -47.45476432 181.82715934 -48.75 178.4375 C-49.13671875 177.42558594 -49.5234375 176.41367187 -49.921875 175.37109375 C-56.74172871 154.0466961 -54.27090035 131.2363217 -44.13037109 111.50561523 C-38.57984148 101.24643303 -30.6186504 93.44358228 -19.625 89.0625 C-16 88 -16 88 -12 88 C-12.00888245 86.98380081 -12.01776489 85.96760162 -12.0269165 84.92060852 C-12.10801735 75.34201886 -12.1679726 65.7634989 -12.20724869 56.18464375 C-12.22811985 51.26007587 -12.25642896 46.33578526 -12.30175781 41.41137695 C-12.34523227 36.65866052 -12.36914066 31.90621071 -12.37950897 27.15331078 C-12.38689746 25.34040314 -12.40132554 23.52751003 -12.42292023 21.71471596 C-12.45197587 19.17448059 -12.45595516 16.63534562 -12.45410156 14.0949707 C-12.46848267 13.34618652 -12.48286377 12.59740234 -12.49768066 11.82592773 C-12.46878852 8.1644839 -12.10480847 6.16207839 -10.09661865 3.05656433 C-6.77411695 -0.20246348 -4.60745692 -0.45171146 0 0 Z " fill="#DFB6A2" transform="translate(259,106)"/>
<path d="M0 0 C3.38567781 1.07890306 6.58916124 2.15710717 9.69921875 3.8828125 C10.34624756 4.23980225 10.99327637 4.59679199 11.65991211 4.96459961 C14.46415065 6.5694817 17.23623198 8.22703261 20.00976562 9.88427734 C22.1945158 11.15762387 22.1945158 11.15762387 25.453125 12.45703125 C29.13115338 14.28160292 30.79585475 15.49825311 33 19 C34.22443009 25.12708767 33.94589451 31.40919005 33.9140625 37.62890625 C33.88112121 55.1936742 37.13729567 73.14537227 42 90 C42.22171875 90.88945312 42.4434375 91.77890625 42.671875 92.6953125 C48.17451568 114.63876983 57.17051361 136.89404251 69.44677734 155.91699219 C71.43049967 159.15220859 72.00204225 160.94009395 71.87109375 164.78125 C71 168 71 168 68.8125 170.4375 C65.43388366 172.31450908 63.81030177 172.62209008 60 172 C54.99872354 169.17911655 52.04965483 165.96826839 48.8125 161.375 C48.10975952 160.39418457 48.10975952 160.39418457 47.39282227 159.39355469 C23.99708088 126.24210536 8.69101397 89.03267678 2 49 C1.77441406 47.71480469 1.54882812 46.42960937 1.31640625 45.10546875 C-0.87041993 30.21996915 -0.17854848 15.00768679 0 0 Z " fill="#DFB6A2" transform="translate(0,247)"/>
<path d="M0 0 C1.22589844 0.0309375 2.45179688 0.061875 3.71484375 0.09375 C4.94332031 0.1040625 6.17179687 0.114375 7.4375 0.125 C10.65234375 0.59375 10.65234375 0.59375 12.6484375 1.8125 C13.65234375 3.59375 13.65234375 3.59375 13.49609375 5.9921875 C12.63516059 8.64673143 11.57060342 10.81925254 10.15234375 13.21875 C6.52387909 19.39979736 5.78071993 24.47963942 6.65234375 31.59375 C8.30138578 37.0772427 10.44889903 42.31365733 12.65234375 47.59375 C13.49733573 49.66554516 14.33637691 51.73959233 15.17138672 53.81542969 C15.92251148 55.67637018 16.68741532 57.53173179 17.453125 59.38671875 C21.24581431 69.52938301 20.76863108 80.74361434 17 90.8203125 C14.69472848 95.56449447 11.51259043 101.16362666 6.65234375 103.59375 C2.78020193 104.02398798 1.12738004 103.91044086 -2.16015625 101.71875 C-4.57811579 99.36987502 -5.21106299 98.37428292 -5.78515625 95.09375 C-5.31292209 91.31587673 -4.46353758 90.09305475 -2.34765625 87.03125 C1.50566891 80.87510433 1.82910683 75.69329413 0.65234375 68.59375 C-0.86085744 63.0785117 -3.08965916 57.83735084 -5.34765625 52.59375 C-6.28586578 50.36488187 -7.22343933 48.13574584 -8.16015625 45.90625 C-8.55847656 44.99488281 -8.95679688 44.08351562 -9.3671875 43.14453125 C-13.41643312 32.61003966 -12.84792956 18.13806671 -8.61328125 7.8203125 C-4.63537464 0.82214346 -4.63537464 0.82214346 0 0 Z " fill="#A07765" transform="translate(252.34765625,192.40625)"/>
<path d="M0 0 C2.69990662 1.79993774 4.5418865 3.083773 6 6 C6.09301163 8.59382177 6.12580286 11.16054639 6.11352539 13.75439453 C6.11367142 14.55447937 6.11381744 15.35456421 6.1139679 16.17889404 C6.1132698 18.83022753 6.10548221 21.48149125 6.09765625 24.1328125 C6.0957917 25.96841392 6.09436797 27.80401583 6.09336853 29.63961792 C6.08954623 34.47623055 6.07971839 39.31281327 6.06866455 44.14941406 C6.05844426 49.08267817 6.05386958 54.01594711 6.04882812 58.94921875 C6.03809588 68.63282566 6.02102289 78.31641035 6 88 C9.465 88.495 9.465 88.495 13 89 C13.35935829 95.3486631 13.35935829 95.3486631 12 97.8125 C8.84776326 99.68414056 5.577484 100.23758538 2 101 C2.474375 100.113125 2.94875 99.22625 3.4375 98.3125 C4.80767602 95.40772684 5.73467423 93.1839093 6 90 C4.03464283 87.58877632 4.03464283 87.58877632 0.3046875 87.8046875 C-1.17200108 87.817991 -2.64862358 87.84185165 -4.125 87.875 C-4.87910156 87.88402344 -5.63320312 87.89304687 -6.41015625 87.90234375 C-8.27357254 87.9259313 -10.13682593 87.96180281 -12 88 C-12.09269711 77.39495666 -12.16376361 66.79000977 -12.20724869 56.18464375 C-12.22811985 51.26007587 -12.25642896 46.33578526 -12.30175781 41.41137695 C-12.34523227 36.65866052 -12.36914066 31.90621071 -12.37950897 27.15331078 C-12.38689746 25.34040314 -12.40132554 23.52751003 -12.42292023 21.71471596 C-12.45197587 19.17448059 -12.45595516 16.63534562 -12.45410156 14.0949707 C-12.46848267 13.34618652 -12.48286377 12.59740234 -12.49768066 11.82592773 C-12.46878852 8.1644839 -12.10480847 6.16207839 -10.09661865 3.05656433 C-6.77411695 -0.20246348 -4.60745692 -0.45171146 0 0 Z " fill="#FECA8D" transform="translate(259,106)"/>
<path d="M0 0 C3.75507824 1.25169275 5.24058521 3.17641277 8 6 C9.04479612 6.90373002 10.10084292 7.79462398 11.16796875 8.671875 C12.10253906 9.44015625 13.03710938 10.2084375 14 11 C8.37555676 23.01008933 1.64658644 34.33332574 -5.09326172 45.7421875 C-7.04914823 49.08397363 -8.96815636 52.44472506 -10.87890625 55.8125 C-11.50659912 56.91158691 -12.13429199 58.01067383 -12.78100586 59.14306641 C-13.98913767 61.26053614 -15.18947785 63.38247486 -16.38110352 65.50927734 C-16.92822998 66.4627002 -17.47535645 67.41612305 -18.0390625 68.3984375 C-18.51553223 69.24067871 -18.99200195 70.08291992 -19.48291016 70.95068359 C-21.17041989 73.23020672 -22.36305393 74.02394984 -25 75 C-29.02250703 75.59909679 -30.50172663 75.34662495 -33.875 73 C-36.09226248 69.86974709 -36.55840686 68.13187733 -36.44189453 64.33789062 C-35.51700454 59.44466046 -32.60501928 55.41761471 -30 51.25 C-28.71700362 49.12865941 -27.43583024 47.00621544 -26.15625 44.8828125 C-25.47949219 43.76938477 -24.80273438 42.65595703 -24.10546875 41.50878906 C-20.44855741 35.45186982 -16.98925306 29.27938013 -13.5 23.125 C-9.09126652 15.36000591 -4.63710756 7.63136649 0 0 Z " fill="#FECA8C" transform="translate(219,302)"/>
<path d="M0 0 C8.30661985 -0.37132241 16.2251524 0.11252573 24.4375 1.3125 C25.27700195 1.43020752 26.11650391 1.54791504 26.98144531 1.66918945 C32.08180498 2.46288342 36.41037308 3.6015498 41 6 C43.11212504 9.16818756 43.33156464 11.13219252 43.55859375 14.8671875 C42.65106912 18.33228155 40.74389741 19.76080214 38 22 C35.05929773 22.64020207 32.5998006 22.9896374 29.63671875 23.14453125 C28.44874443 23.23380135 28.44874443 23.23380135 27.23677063 23.32487488 C24.72131994 23.50895874 22.20511091 23.66114979 19.6875 23.8125 C17.97576318 23.93214187 16.26417042 24.0538643 14.55273438 24.17773438 C10.36977395 24.47593908 6.18584199 24.7455733 2 25 C1.97494385 24.31373535 1.9498877 23.6274707 1.92407227 22.92041016 C1.80828573 19.82174183 1.68548115 16.72339077 1.5625 13.625 C1.52318359 12.54476562 1.48386719 11.46453125 1.44335938 10.3515625 C1.40146484 9.3203125 1.35957031 8.2890625 1.31640625 7.2265625 C1.27974854 6.27346191 1.24309082 5.32036133 1.20532227 4.33837891 C1.14236535 1.97867651 1.14236535 1.97867651 0 0 Z " fill="#FEF2E3" transform="translate(263,51)"/>
<path d="M0 0 C0.639375 -0.01289063 1.27875 -0.02578125 1.9375 -0.0390625 C5.25703525 1.02972726 6.79922087 2.96706389 9 5.625 C9.61523438 9.0065918 9.61523438 9.0065918 9.59375 12.82421875 C9.59379028 13.50047806 9.59383057 14.17673737 9.59387207 14.87348938 C9.58853469 16.29474241 9.57102771 17.71599646 9.54199219 19.13696289 C9.49991646 21.31682807 9.50094339 23.493623 9.5078125 25.67382812 C9.44907219 33.42379414 9.44907219 33.42379414 9 36.625 C5.53767506 38.93321663 4.08201684 38.89500989 0 38.875 C-1.051875 38.88015625 -2.10375 38.8853125 -3.1875 38.890625 C-6 38.625 -6 38.625 -9 36.625 C-9.6102424 32.27489415 -9.51480165 27.89213584 -9.50097656 23.50415039 C-9.50000788 21.33018029 -9.54152586 19.15978458 -9.5859375 16.98632812 C-9.59114761 15.59896567 -9.59383264 14.21159098 -9.59375 12.82421875 C-9.60083984 11.56440186 -9.60792969 10.30458496 -9.61523438 9.0065918 C-8.69739207 3.96173711 -5.45103449 -0.10989989 0 0 Z " fill="#A27967" transform="translate(256,422.375)"/>
<path d="M0 0 C1.01438896 -0.00006042 1.01438896 -0.00006042 2.04927063 -0.00012207 C3.47052366 0.00521531 4.89177771 0.02272229 6.31274414 0.05175781 C8.49260932 0.09383354 10.66940425 0.09280661 12.84960938 0.0859375 C20.59957539 0.14467781 20.59957539 0.14467781 23.80078125 0.59375 C26.10899788 4.05607494 26.07079114 5.51173316 26.05078125 9.59375 C26.05851562 11.1715625 26.05851562 11.1715625 26.06640625 12.78125 C25.80078125 15.59375 25.80078125 15.59375 23.80078125 18.59375 C19.4506754 19.2039924 15.06791709 19.10855165 10.67993164 19.09472656 C8.50596154 19.09375788 6.33556583 19.13527586 4.16210938 19.1796875 C2.77474692 19.18489761 1.38737223 19.18758264 0 19.1875 C-1.88972534 19.19813477 -1.88972534 19.19813477 -3.81762695 19.20898438 C-8.06439875 18.43634233 -9.52649435 16.90571945 -12.19921875 13.59375 C-12.86328125 11.53125 -12.86328125 11.53125 -12.82421875 9.59375 C-12.83710938 8.954375 -12.85 8.315 -12.86328125 7.65625 C-10.80744068 1.27105104 -6.11230026 -0.03439806 0 0 Z " fill="#A27A67" transform="translate(435.19921875,246.40625)"/>
<path d="M0 0 C1.03846069 0.00326294 1.03846069 0.00326294 2.09790039 0.0065918 C4.19861363 0.00973839 6.29789988 -0.01365377 8.3984375 -0.0390625 C9.74023261 -0.04133698 11.08203148 -0.0420383 12.42382812 -0.04101562 C14.25071167 -0.04548706 14.25071167 -0.04548706 16.11450195 -0.05004883 C19.67847586 0.35329516 21.55953014 1.17848286 24.40429688 3.32226562 C26.0004643 6.51460048 25.91895802 9.85688059 25.40429688 13.32226562 C23.53414593 15.75346185 22.12291342 16.96295735 19.40429688 18.32226562 C15.12128609 18.55627118 10.83453692 18.5506256 6.54589844 18.5625 C4.41236728 18.57222882 2.27979031 18.60326318 0.14648438 18.63476562 C-1.2050724 18.64129353 -2.55663606 18.64654484 -3.90820312 18.65039062 C-5.14183594 18.65973633 -6.37546875 18.66908203 -7.64648438 18.67871094 C-9.10634766 18.50227051 -9.10634766 18.50227051 -10.59570312 18.32226562 C-12.98425136 14.73944327 -12.86469115 13.0083353 -12.84570312 8.75976562 C-12.85085937 7.60347656 -12.85601562 6.4471875 -12.86132812 5.25585938 C-12.22009143 -1.8260341 -5.53957278 0.02307517 0 0 Z " fill="#A27A68" transform="translate(63.595703125,246.677734375)"/>
<path d="M0 0 C1.051875 -0.00515625 2.10375 -0.0103125 3.1875 -0.015625 C6 0.25 6 0.25 9 2.25 C9.38818359 5.15161133 9.38818359 5.15161133 9.3984375 8.83203125 C9.40130768 9.48322433 9.40417786 10.13441742 9.40713501 10.80534363 C9.40917758 12.18477242 9.40363407 13.56423004 9.39111328 14.94360352 C9.37513725 17.04445202 9.3909124 19.14335417 9.41015625 21.24414062 C9.40817233 22.58594172 9.40432558 23.92774161 9.3984375 25.26953125 C9.39505371 26.48745361 9.39166992 27.70537598 9.38818359 28.96020508 C8.96869983 32.515264 8.13799224 34.4090213 6 37.25 C2.80766515 38.84616743 -0.53461497 38.76466114 -4 38.25 C-6.43119623 36.37984906 -7.64069173 34.96861655 -9 32.25 C-9.23400556 27.96698921 -9.22835997 23.68024004 -9.24023438 19.39160156 C-9.2499632 17.25807041 -9.28099756 15.12549344 -9.3125 12.9921875 C-9.31902791 11.64063073 -9.32427921 10.28906706 -9.328125 8.9375 C-9.3374707 7.70386719 -9.34681641 6.47023438 -9.35644531 5.19921875 C-9.23881836 4.22597656 -9.12119141 3.25273438 -9 2.25 C-5.53767506 -0.05821663 -4.08201684 -0.02000989 0 0 Z " fill="#A27967" transform="translate(256,50.75)"/>
<path d="M0 0 C6.42295833 0.37782108 10.47811128 2.47811128 15 7 C14.67598945 11.09778052 12.13422467 14.63226178 10.125 18.125 C9.77308594 18.75792969 9.42117188 19.39085938 9.05859375 20.04296875 C7.26178157 23.18905997 6.06291655 24.95805563 3 27 C-3.86323268 27.65364121 -3.86323268 27.65364121 -7.5 25.5625 C-9.84434542 21.55757658 -10.10704202 18.51232918 -9 14 C-3.75581395 3.75581395 -3.75581395 3.75581395 0 0 Z " fill="#A17967" transform="translate(350,76)"/>
<path d="M0 0 C3.14674823 2.74331897 3.89954133 4.37492386 4.5625 8.5 C4.00900036 11.94399774 3.46343661 13.46570635 0.82421875 15.734375 C-8.92613399 22.49907369 -8.92613399 22.49907369 -14.63671875 23.4296875 C-17 23 -17 23 -18.80078125 21.20703125 C-19.54908203 20.02173828 -19.54908203 20.02173828 -20.3125 18.8125 C-20.82425781 18.03519531 -21.33601563 17.25789063 -21.86328125 16.45703125 C-23.16250639 13.64874049 -23.53846684 12.05131208 -23 9 C-21.27734375 7.33984375 -21.27734375 7.33984375 -18.9375 5.9375 C-18.11378906 5.43992187 -17.29007812 4.94234375 -16.44140625 4.4296875 C-15.63574219 3.95789063 -14.83007812 3.48609375 -14 3 C-13.36964844 2.56945312 -12.73929688 2.13890625 -12.08984375 1.6953125 C-7.76554928 -1.16128294 -4.92754344 -1.5805328 0 0 Z " fill="#A17967" transform="translate(99,341)"/>
<path d="M0 0 C5.59859611 3.82343149 9.30163435 10.90772724 12 17 C11.9609375 19.16796875 11.9609375 19.16796875 11 21 C9.109375 22.703125 9.109375 22.703125 6.75 24.25 C5.98171875 24.77078125 5.2134375 25.2915625 4.421875 25.828125 C1.62137475 27.18320576 0.0659687 27.55427121 -3 27 C-4.6953125 25.20703125 -4.6953125 25.20703125 -6.125 22.8125 C-6.62515625 21.98363281 -7.1253125 21.15476562 -7.640625 20.30078125 C-8.08921875 19.54152344 -8.5378125 18.78226562 -9 18 C-9.61875 17.175 -10.2375 16.35 -10.875 15.5 C-12.59244259 11.68346092 -12.66696605 8.10912416 -12 4 C-9.25698855 -0.6859779 -5.04652582 -1.10456087 0 0 Z " fill="#A17966" transform="translate(353,409)"/>
<path d="M0 0 C2.9375 1.4375 2.9375 1.4375 5 4 C6.04220792 7.22389649 5.84316886 9.73506279 5 13 C-0.26806527 23.26806527 -0.26806527 23.26806527 -4 27 C-10.53740377 26.8665836 -14.10984232 24.1534586 -19 20 C-18.43864282 15.46661548 -16.52274223 12.10677668 -14.125 8.3125 C-13.77308594 7.73177734 -13.42117187 7.15105469 -13.05859375 6.55273438 C-9.47147625 0.78534286 -6.80615226 -0.70408472 0 0 Z " fill="#A17966" transform="translate(166,409)"/>
<path d="M0 0 C2.43360417 1.26307867 4.60866308 2.49960102 6.875 4 C7.45507812 4.36867188 8.03515625 4.73734375 8.6328125 5.1171875 C12.75821834 7.75821834 12.75821834 7.75821834 14 9 C13.75130306 15.21742345 11.74852645 18.29031292 8 23 C2.51809776 22.54666203 -1.33143112 21.03369956 -5.875 18.0625 C-6.45507812 17.70220703 -7.03515625 17.34191406 -7.6328125 16.97070312 C-11.85326 14.29348 -11.85326 14.29348 -13 12 C-13.39447548 7.81855989 -13.45035186 5.69053952 -11.125 2.125 C-7.32884823 -1.67115177 -5.1594554 -1.10181389 0 0 Z " fill="#A17866" transform="translate(422,341)"/>
<path d="M0 0 C3.8073804 1.8150483 6.31230794 5.97474824 7.76171875 9.83984375 C8.0703125 12.26953125 8.0703125 12.26953125 7.76171875 14.83984375 C5.96875 16.53515625 5.96875 16.53515625 3.57421875 17.96484375 C2.74535156 18.465 1.91648437 18.96515625 1.0625 19.48046875 C0.30324219 19.9290625 -0.45601563 20.37765625 -1.23828125 20.83984375 C-2.06328125 21.45859375 -2.88828125 22.07734375 -3.73828125 22.71484375 C-7.55365922 24.43176384 -11.13646912 24.64337038 -15.23828125 23.83984375 C-18.55406201 21.1710446 -19.12836484 19.52376811 -19.80078125 15.33984375 C-19.25161142 11.92278703 -18.74852539 10.42212834 -16.1328125 8.17578125 C-4.12039901 -0.29482785 -4.12039901 -0.29482785 0 0 Z " fill="#A17866" transform="translate(428.23828125,147.16015625)"/>
<path d="M0 0 C4.14029864 0.68658219 7.54054498 2.81301453 11.125 4.875 C11.75792969 5.22691406 12.39085938 5.57882813 13.04296875 5.94140625 C16.18905997 7.73821843 17.95805563 8.93708345 20 12 C20.44101505 15.96913548 20.32648586 18.33283323 18.5625 21.9375 C15.42356328 24.46396127 13.69570861 24.88884364 9.72265625 24.703125 C4.06409971 23.2418048 -2.81262967 19.18737033 -7 15 C-6.8665836 8.46259623 -4.1534586 4.89015768 0 0 Z " fill="#A17967" transform="translate(83,147)"/>
<path d="M0 0 C1.6953125 1.79296875 1.6953125 1.79296875 3.125 4.1875 C3.87523437 5.43080078 3.87523437 5.43080078 4.640625 6.69921875 C5.08921875 7.45847656 5.5378125 8.21773437 6 9 C6.61875 9.825 7.2375 10.65 7.875 11.5 C9.59192009 15.31537797 9.80352663 18.89818787 9 23 C6.33120085 26.31578076 4.68392436 26.89008359 0.5 27.5625 C-2.91705672 27.01333017 -4.41771541 26.51024414 -6.6640625 23.89453125 C-15.03642248 12.02144765 -15.03642248 12.02144765 -14.9609375 7.83203125 C-13.65237039 5.33724274 -12.09781874 4.28929838 -9.75 2.75 C-8.98171875 2.22921875 -8.2134375 1.7084375 -7.421875 1.171875 C-4.62137475 -0.18320576 -3.0659687 -0.55427121 0 0 Z " fill="#A17967" transform="translate(162,76)"/>
<path d="M0 0 C2.64 0.33 5.28 0.66 8 1 C8.35935829 7.3486631 8.35935829 7.3486631 7 9.8125 C3.84776326 11.68414056 0.577484 12.23758538 -3 13 C-2.525625 12.113125 -2.05125 11.22625 -1.5625 10.3125 C-0.19366381 7.41056728 0.64832237 5.16509869 1 2 C0.67 1.34 0.34 0.68 0 0 Z " fill="#DDB5A0" transform="translate(264,194)"/>
</svg>
